<svg width="68" height="68" viewBox="0 0 68 68" fill="none" xmlns="http://www.w3.org/2000/svg">
<path d="M53.8333 1.4165H14.1667C13.7909 1.4165 13.4306 1.56576 13.1649 1.83144C12.8993 2.09711 12.75 2.45745 12.75 2.83317V11.3332C12.75 11.7089 12.8993 12.0692 13.1649 12.3349C13.4306 12.6006 13.7909 12.7498 14.1667 12.7498H53.8333C54.2091 12.7498 54.5694 12.6006 54.8351 12.3349C55.1007 12.0692 55.25 11.7089 55.25 11.3332V2.83317C55.25 2.45745 55.1007 2.09711 54.8351 1.83144C54.5694 1.56576 54.2091 1.4165 53.8333 1.4165Z" fill="white"/>
<path d="M53.8333 1.4165H14.1667C13.7909 1.4165 13.4306 1.56576 13.1649 1.83144C12.8993 2.09711 12.75 2.45745 12.75 2.83317V11.3332C12.75 11.7089 12.8993 12.0692 13.1649 12.3349C13.4306 12.6006 13.7909 12.7498 14.1667 12.7498H53.8333C54.2091 12.7498 54.5694 12.6006 54.8351 12.3349C55.1007 12.0692 55.25 11.7089 55.25 11.3332V2.83317C55.25 2.45745 55.1007 2.09711 54.8351 1.83144C54.5694 1.56576 54.2091 1.4165 53.8333 1.4165Z" fill="white"/>
<path d="M53.8333 1.4165H14.1667C13.7909 1.4165 13.4306 1.56576 13.1649 1.83144C12.8993 2.09711 12.75 2.45745 12.75 2.83317V11.3332C12.75 11.7089 12.8993 12.0692 13.1649 12.3349C13.4306 12.6006 13.7909 12.7498 14.1667 12.7498H53.8333C54.2091 12.7498 54.5694 12.6006 54.8351 12.3349C55.1007 12.0692 55.25 11.7089 55.25 11.3332V2.83317C55.25 2.45745 55.1007 2.09711 54.8351 1.83144C54.5694 1.56576 54.2091 1.4165 53.8333 1.4165Z" fill="white"/>
<path d="M35.4167 47.5798V36.833H41.0834C41.4591 36.833 41.8194 36.6838 42.0851 36.4181C42.3508 36.1524 42.5 35.7921 42.5 35.4163V15.583H25.5V35.4163C25.5 35.7921 25.6493 36.1524 25.915 36.4181C26.1806 36.6838 26.541 36.833 26.9167 36.833H32.5834V47.5798L15.9984 64.1648C15.7404 64.4319 15.5976 64.7898 15.6008 65.1612C15.6041 65.5327 15.753 65.888 16.0157 66.1507C16.2784 66.4133 16.6337 66.5623 17.0051 66.5655C17.3766 66.5688 17.7344 66.426 18.0016 66.1679L32.5834 51.5862V62.333C32.5834 62.7087 32.7326 63.0691 32.9983 63.3347C33.264 63.6004 33.6243 63.7497 34 63.7497C34.3758 63.7497 34.7361 63.6004 35.0018 63.3347C35.2674 63.0691 35.4167 62.7087 35.4167 62.333V51.5862L49.9984 66.1679C50.2656 66.426 50.6235 66.5688 50.9949 66.5655C51.3664 66.5623 51.7217 66.4133 51.9844 66.1507C52.247 65.888 52.396 65.5327 52.3992 65.1612C52.4025 64.7898 52.2597 64.4319 52.0016 64.1648L35.4167 47.5798Z" fill="white"/>
<path d="M35.4167 47.5798V36.833H41.0834C41.4591 36.833 41.8194 36.6838 42.0851 36.4181C42.3508 36.1524 42.5 35.7921 42.5 35.4163V15.583H25.5V35.4163C25.5 35.7921 25.6493 36.1524 25.915 36.4181C26.1806 36.6838 26.541 36.833 26.9167 36.833H32.5834V47.5798L15.9984 64.1648C15.7404 64.4319 15.5976 64.7898 15.6008 65.1612C15.6041 65.5327 15.753 65.888 16.0157 66.1507C16.2784 66.4133 16.6337 66.5623 17.0051 66.5655C17.3766 66.5688 17.7344 66.426 18.0016 66.1679L32.5834 51.5862V62.333C32.5834 62.7087 32.7326 63.0691 32.9983 63.3347C33.264 63.6004 33.6243 63.7497 34 63.7497C34.3758 63.7497 34.7361 63.6004 35.0018 63.3347C35.2674 63.0691 35.4167 62.7087 35.4167 62.333V51.5862L49.9984 66.1679C50.2656 66.426 50.6235 66.5688 50.9949 66.5655C51.3664 66.5623 51.7217 66.4133 51.9844 66.1507C52.247 65.888 52.396 65.5327 52.3992 65.1612C52.4025 64.7898 52.2597 64.4319 52.0016 64.1648L35.4167 47.5798Z" fill="white"/>
<path d="M35.4167 47.5798V36.833H41.0834C41.4591 36.833 41.8194 36.6838 42.0851 36.4181C42.3508 36.1524 42.5 35.7921 42.5 35.4163V15.583H25.5V35.4163C25.5 35.7921 25.6493 36.1524 25.915 36.4181C26.1806 36.6838 26.541 36.833 26.9167 36.833H32.5834V47.5798L15.9984 64.1648C15.7404 64.4319 15.5976 64.7898 15.6008 65.1612C15.6041 65.5327 15.753 65.888 16.0157 66.1507C16.2784 66.4133 16.6337 66.5623 17.0051 66.5655C17.3766 66.5688 17.7344 66.426 18.0016 66.1679L32.5834 51.5862V62.333C32.5834 62.7087 32.7326 63.0691 32.9983 63.3347C33.264 63.6004 33.6243 63.7497 34 63.7497C34.3758 63.7497 34.7361 63.6004 35.0018 63.3347C35.2674 63.0691 35.4167 62.7087 35.4167 62.333V51.5862L49.9984 66.1679C50.2656 66.426 50.6235 66.5688 50.9949 66.5655C51.3664 66.5623 51.7217 66.4133 51.9844 66.1507C52.247 65.888 52.396 65.5327 52.3992 65.1612C52.4025 64.7898 52.2597 64.4319 52.0016 64.1648L35.4167 47.5798Z" fill="white"/>
</svg>
