<svg width="346" height="259" viewBox="0 0 346 259" fill="none" xmlns="http://www.w3.org/2000/svg">
<path d="M113 0H10C4.47715 0 0 4.47715 0 10V75C0 80.5229 4.47715 85 10 85H113C118.523 85 123 80.5229 123 75V10C123 4.47715 118.523 0 113 0Z" fill="#FAF8FF"/>
<path d="M15.552 44.348V43.2H9.672V44.418H14.026L11.758 47.484L12.276 48.282H12.612C13.83 48.282 14.67 48.968 14.67 50.102C14.67 51.236 13.83 51.908 12.612 51.908C11.478 51.908 10.778 51.46 10.484 50.55L9.392 51.194C9.882 52.482 11.114 53.182 12.612 53.182C13.55 53.182 14.334 52.902 14.992 52.356C15.65 51.81 15.972 51.054 15.972 50.102C15.972 48.548 14.922 47.498 13.424 47.218L15.552 44.348ZM20.2582 46.588C20.1602 46.588 20.0062 46.602 19.7962 46.616L22.1062 43.2H20.6222L17.4722 47.918C17.0802 48.464 16.8842 49.122 16.8842 49.878C16.8842 50.844 17.1922 51.642 17.8222 52.258C18.4522 52.874 19.2642 53.182 20.2582 53.182C21.2382 53.182 22.0502 52.874 22.6802 52.258C23.3102 51.642 23.6322 50.844 23.6322 49.878C23.6322 48.912 23.3102 48.114 22.6802 47.512C22.0502 46.896 21.2382 46.588 20.2582 46.588ZM20.2582 47.834C21.4902 47.834 22.3442 48.646 22.3442 49.878C22.3442 51.11 21.4902 51.936 20.2582 51.936C19.0262 51.936 18.1722 51.11 18.1722 49.878C18.1722 48.646 19.0122 47.834 20.2582 47.834ZM31.2214 51.796C31.8794 50.872 32.2154 49.64 32.2154 48.1C32.2154 46.56 31.8794 45.328 31.2214 44.404C30.5634 43.48 29.6254 43.018 28.4354 43.018C27.2454 43.018 26.3074 43.48 25.6494 44.404C24.9914 45.328 24.6554 46.56 24.6554 48.1C24.6554 49.64 24.9914 50.872 25.6494 51.796C26.3074 52.72 27.2454 53.182 28.4354 53.182C29.6254 53.182 30.5634 52.72 31.2214 51.796ZM25.9574 48.1C25.9574 45.65 26.8534 44.278 28.4354 44.278C30.0174 44.278 30.9274 45.678 30.9274 48.1C30.9274 50.522 30.0174 51.908 28.4354 51.908C26.8534 51.908 25.9574 50.522 25.9574 48.1ZM34.8905 46C35.5345 46 36.0665 45.79 36.4725 45.37C36.8925 44.95 37.1025 44.432 37.1025 43.83C37.1025 43.228 36.8925 42.71 36.4725 42.29C36.0525 41.87 35.5205 41.66 34.8905 41.66C34.2605 41.66 33.7285 41.87 33.3085 42.29C32.8885 42.71 32.6785 43.228 32.6785 43.83C32.6785 44.432 32.8885 44.95 33.3085 45.37C33.7285 45.79 34.2605 46 34.8905 46ZM34.0925 44.628C33.6865 44.194 33.6865 43.466 34.0925 43.032C34.4985 42.598 35.2825 42.598 35.6885 43.032C36.0945 43.466 36.0945 44.194 35.6885 44.628C35.2825 45.062 34.4985 45.062 34.0925 44.628ZM13.214 70.182C14.222 70.182 15.034 69.93 15.664 69.426C16.294 68.908 16.602 68.222 16.602 67.368C16.602 66.752 16.462 66.248 16.112 65.898C15.874 65.618 15.748 65.464 15.356 65.254C14.978 65.044 14.866 64.974 14.376 64.792C14.138 64.694 13.97 64.638 13.858 64.596L13.284 64.414C12.528 64.176 11.996 63.938 11.688 63.714C11.38 63.49 11.226 63.168 11.226 62.734C11.226 61.838 11.94 61.278 13.004 61.278C14.068 61.278 14.81 61.782 15.23 62.79L16.322 62.16C15.748 60.872 14.558 60.018 13.004 60.018C12.15 60.018 11.422 60.27 10.82 60.774C10.218 61.264 9.924 61.936 9.924 62.79C9.924 63.504 10.218 64.078 10.54 64.428C10.694 64.596 10.932 64.764 11.254 64.932C11.576 65.086 11.856 65.212 12.066 65.296L13.004 65.604C13.83 65.87 14.432 66.108 14.782 66.346C15.132 66.584 15.314 66.934 15.314 67.396C15.314 68.306 14.586 68.908 13.242 68.908C11.884 68.908 11.002 68.32 10.624 67.13L9.504 67.774C10.022 69.272 11.38 70.182 13.214 70.182ZM24.9018 67.06C24.9298 66.878 24.9438 66.696 24.9438 66.514C24.9438 65.492 24.6218 64.624 23.9638 63.91C23.3198 63.182 22.4798 62.818 21.4578 62.818C20.3798 62.818 19.4978 63.168 18.8118 63.868C18.1258 64.568 17.7898 65.45 17.7898 66.5C17.7898 67.564 18.1398 68.446 18.8258 69.146C19.5258 69.832 20.4358 70.182 21.5418 70.182C22.9138 70.182 23.9358 69.65 24.6218 68.6L23.5858 68.012C23.1658 68.698 22.4938 69.034 21.5698 69.034C20.2398 69.034 19.2738 68.306 19.0358 67.06H24.9018ZM21.4578 63.966C22.5778 63.966 23.5018 64.666 23.7118 65.996H19.0358C19.2458 64.764 20.1558 63.966 21.4578 63.966ZM27.5619 63H26.3439V70H27.5619V66.29C27.5619 65.52 27.7719 64.974 28.2059 64.624C28.6399 64.274 29.1439 64.12 29.7459 64.148V62.874C28.6959 62.874 27.9679 63.308 27.5619 64.176V63ZM36.3649 64.204C35.7629 63.28 34.8809 62.818 33.7329 62.818C32.7389 62.818 31.8849 63.168 31.1989 63.882C30.5129 64.582 30.1629 65.436 30.1629 66.458C30.1629 67.48 30.5129 68.334 31.1989 69.048C31.8849 69.762 32.7389 70.112 33.7329 70.112C34.8669 70.112 35.7489 69.65 36.3649 68.712V69.706C36.3649 71.036 35.4829 71.848 34.0269 71.848C32.8929 71.848 32.1229 71.456 31.7449 70.672L30.6809 71.274C31.2549 72.38 32.4309 72.982 33.9989 72.982C34.9789 72.982 35.8189 72.688 36.5189 72.114C37.2189 71.54 37.5689 70.742 37.5689 69.706V63H36.3649V64.204ZM36.3649 66.458C36.3649 67.172 36.1269 67.76 35.6509 68.236C35.1749 68.712 34.5869 68.95 33.8729 68.95C33.1589 68.95 32.5709 68.712 32.0949 68.236C31.6189 67.76 31.3809 67.172 31.3809 66.458C31.3809 65.758 31.6189 65.17 32.0949 64.694C32.5709 64.218 33.1589 63.98 33.8729 63.98C34.5869 63.98 35.1749 64.218 35.6509 64.694C36.1269 65.17 36.3649 65.758 36.3649 66.458ZM40.0302 61.726C40.4782 61.726 40.8422 61.362 40.8422 60.914C40.8422 60.466 40.4782 60.088 40.0302 60.088C39.5682 60.088 39.2042 60.466 39.2042 60.914C39.2042 61.362 39.5682 61.726 40.0302 61.726ZM40.6322 70V63H39.4142V70H40.6322ZM48.4264 58.8H47.6984L42.0984 71.4H42.8264L48.4264 58.8ZM55.6549 60.2H50.0129V70H51.3149V65.842H55.4729V64.61H51.3149V61.432H55.6549V60.2ZM61.9356 66.71C61.9356 68.278 61.1236 69.02 59.9056 69.02C58.8276 69.02 58.1696 68.362 58.1696 67.228V63H56.9516V67.298C56.9516 69.076 58.0296 70.182 59.6676 70.182C60.6896 70.182 61.4456 69.79 61.9356 68.992V70H63.1536V63H61.9356V66.71ZM70.804 64.204C70.202 63.28 69.32 62.818 68.158 62.818C67.178 62.818 66.338 63.182 65.652 63.896C64.966 64.61 64.616 65.478 64.616 66.5C64.616 67.522 64.966 68.404 65.652 69.118C66.338 69.832 67.178 70.182 68.158 70.182C69.32 70.182 70.202 69.72 70.804 68.796V70H72.022V63H70.804V64.204ZM68.312 69.006C67.612 69.006 67.024 68.768 66.548 68.292C66.072 67.802 65.834 67.214 65.834 66.5C65.834 65.786 66.072 65.198 66.548 64.722C67.024 64.232 67.612 63.994 68.312 63.994C69.026 63.994 69.614 64.232 70.09 64.722C70.566 65.198 70.804 65.786 70.804 66.5C70.804 67.214 70.566 67.802 70.09 68.292C69.614 68.768 69.026 69.006 68.312 69.006ZM75.0854 63H73.8674V70H75.0854V66.29C75.0854 65.52 75.2954 64.974 75.7294 64.624C76.1634 64.274 76.6674 64.12 77.2694 64.148V62.874C76.2194 62.874 75.4914 63.308 75.0854 64.176V63ZM89.9271 70L86.2731 60.2H84.8031L81.1491 70H82.5351L83.3331 67.802H87.7431L88.5411 70H89.9271ZM85.5311 61.754L87.2951 66.584H83.7811L85.5311 61.754ZM92.1752 70V59.78H90.9572V70H92.1752ZM99.8294 64.204C99.2274 63.28 98.3454 62.818 97.1834 62.818C96.2034 62.818 95.3634 63.182 94.6774 63.896C93.9914 64.61 93.6414 65.478 93.6414 66.5C93.6414 67.522 93.9914 68.404 94.6774 69.118C95.3634 69.832 96.2034 70.182 97.1834 70.182C98.3454 70.182 99.2274 69.72 99.8294 68.796V70H101.047V63H99.8294V64.204ZM97.3374 69.006C96.6374 69.006 96.0494 68.768 95.5734 68.292C95.0974 67.802 94.8594 67.214 94.8594 66.5C94.8594 65.786 95.0974 65.198 95.5734 64.722C96.0494 64.232 96.6374 63.994 97.3374 63.994C98.0514 63.994 98.6394 64.232 99.1154 64.722C99.5914 65.198 99.8294 65.786 99.8294 66.5C99.8294 67.214 99.5914 67.802 99.1154 68.292C98.6394 68.768 98.0514 69.006 97.3374 69.006ZM106.379 62.818C105.357 62.818 104.601 63.21 104.111 64.008V63H102.893V70H104.111V66.29C104.111 64.722 104.923 63.98 106.141 63.98C107.219 63.98 107.877 64.638 107.877 65.772V70H109.095V65.702C109.095 63.924 108.017 62.818 106.379 62.818ZM112.013 70V63H110.795V70H112.013Z" fill="#7952CA"/>
<path d="M91.5409 31.671C87.7349 30.474 85.2119 28.185 85.2119 25.5C85.2119 23.127 87.1829 21.063 90.2679 19.789C90.1499 20.235 90.0429 20.689 89.9539 21.168C87.7229 22.268 86.2989 23.816 86.2989 25.501C86.2989 27.481 88.2559 29.268 91.1829 30.364C90.8202 28.7683 90.6404 27.1364 90.6469 25.5C90.6469 18.489 93.7499 13 97.7119 13C100.397 13 102.685 15.523 103.883 19.329C107.69 20.527 110.212 22.815 110.212 25.5C110.212 29.462 104.723 32.565 97.7119 32.565C96.0758 32.5714 94.4443 32.3916 92.8489 32.029C93.9429 34.957 95.7319 36.913 97.7119 36.913C99.3969 36.913 100.946 35.488 102.045 33.26C102.518 33.171 102.977 33.06 103.424 32.946C102.149 36.029 100.085 38 97.7119 38C95.0269 38 92.7389 35.478 91.5409 31.671Z" fill="#7952CA"/>
<path d="M97.7117 28.761C98.3566 28.761 98.9871 28.5697 99.5234 28.2114C100.06 27.8531 100.478 27.3438 100.724 26.7479C100.971 26.1521 101.036 25.4964 100.91 24.8638C100.784 24.2312 100.474 23.6502 100.018 23.1941C99.5615 22.7381 98.9804 22.4275 98.3479 22.3017C97.7153 22.1758 97.0596 22.2404 96.4638 22.4872C95.8679 22.734 95.3586 23.152 95.0003 23.6883C94.6419 24.2246 94.4507 24.855 94.4507 25.5C94.4507 26.3649 94.7943 27.1943 95.4058 27.8059C96.0174 28.4174 96.8468 28.761 97.7117 28.761Z" fill="#7952CA"/>
<path d="M143.606 140.188H37.7119C32.1891 140.188 27.7119 144.665 27.7119 150.188V217.188C27.7119 222.711 32.1891 227.188 37.7119 227.188H143.606C149.129 227.188 153.606 222.711 153.606 217.188V150.188C153.606 144.665 149.129 140.188 143.606 140.188Z" fill="#FFF9EE"/>
<path d="M118.866 169.493C119.01 169.493 119.148 169.436 119.25 169.334C119.352 169.232 119.409 169.094 119.409 168.95V166.232H127.562V168.949C127.562 169.093 127.619 169.231 127.721 169.333C127.823 169.435 127.961 169.492 128.105 169.492C128.249 169.492 128.388 169.435 128.49 169.333C128.591 169.231 128.649 169.093 128.649 168.949V166.232H136.801V168.949C136.801 169.093 136.858 169.231 136.96 169.333C137.062 169.435 137.2 169.492 137.344 169.492C137.488 169.492 137.627 169.435 137.729 169.333C137.83 169.231 137.888 169.093 137.888 168.949V165.684C137.888 165.613 137.874 165.542 137.846 165.476C137.819 165.41 137.779 165.35 137.729 165.3C137.678 165.25 137.618 165.21 137.553 165.182C137.487 165.155 137.416 165.141 137.345 165.141H128.645V162.427C128.645 162.283 128.587 162.145 128.486 162.043C128.384 161.941 128.245 161.883 128.101 161.883C127.957 161.883 127.819 161.941 127.717 162.043C127.615 162.145 127.558 162.283 127.558 162.427V165.145H118.866C118.722 165.145 118.585 165.202 118.483 165.303C118.381 165.404 118.324 165.541 118.323 165.684V168.949C118.323 169.02 118.337 169.091 118.364 169.157C118.391 169.223 118.431 169.283 118.481 169.334C118.532 169.384 118.592 169.424 118.658 169.452C118.724 169.479 118.794 169.493 118.866 169.493Z" fill="#02A4BA"/>
<path d="M128.106 159.71C128.751 159.71 129.381 159.519 129.917 159.16C130.454 158.802 130.872 158.293 131.118 157.697C131.365 157.101 131.43 156.445 131.304 155.813C131.178 155.18 130.868 154.599 130.412 154.143C129.956 153.687 129.374 153.376 128.742 153.251C128.109 153.125 127.454 153.189 126.858 153.436C126.262 153.683 125.753 154.101 125.394 154.637C125.036 155.174 124.845 155.804 124.845 156.449C124.845 157.314 125.188 158.143 125.8 158.755C126.411 159.366 127.241 159.71 128.106 159.71Z" fill="#02A4BA"/>
<path d="M118.867 178.188C119.512 178.188 120.142 177.997 120.679 177.638C121.215 177.28 121.633 176.771 121.88 176.175C122.127 175.579 122.191 174.923 122.065 174.291C121.939 173.658 121.629 173.077 121.173 172.621C120.717 172.165 120.136 171.854 119.503 171.729C118.871 171.603 118.215 171.667 117.619 171.914C117.023 172.161 116.514 172.579 116.156 173.115C115.797 173.652 115.606 174.282 115.606 174.927C115.606 175.792 115.95 176.621 116.561 177.233C117.173 177.844 118.002 178.188 118.867 178.188V178.188Z" fill="#02A4BA"/>
<path d="M128.106 178.188C128.751 178.188 129.381 177.997 129.917 177.638C130.454 177.28 130.872 176.771 131.118 176.175C131.365 175.579 131.43 174.923 131.304 174.291C131.178 173.658 130.868 173.077 130.412 172.621C129.956 172.165 129.374 171.854 128.742 171.729C128.109 171.603 127.454 171.667 126.858 171.914C126.262 172.161 125.753 172.579 125.394 173.115C125.036 173.652 124.845 174.282 124.845 174.927C124.845 175.792 125.188 176.621 125.8 177.233C126.411 177.844 127.241 178.188 128.106 178.188Z" fill="#02A4BA"/>
<path d="M137.345 178.188C137.99 178.188 138.62 177.997 139.157 177.638C139.693 177.28 140.111 176.771 140.358 176.175C140.605 175.579 140.669 174.923 140.543 174.291C140.417 173.658 140.107 173.077 139.651 172.621C139.195 172.165 138.614 171.854 137.981 171.729C137.349 171.603 136.693 171.667 136.097 171.914C135.501 172.161 134.992 172.579 134.634 173.115C134.275 173.652 134.084 174.282 134.084 174.927C134.084 175.792 134.428 176.621 135.039 177.233C135.651 177.844 136.48 178.188 137.345 178.188Z" fill="#02A4BA"/>
<path d="M46.8519 192.82L41.8119 185.512H40.7619V195.312H42.0639V187.99L47.1039 195.312H48.1539V185.512H46.8519V192.82ZM56.8442 192.372C56.8722 192.19 56.8862 192.008 56.8862 191.826C56.8862 190.804 56.5642 189.936 55.9062 189.222C55.2622 188.494 54.4222 188.13 53.4002 188.13C52.3222 188.13 51.4402 188.48 50.7542 189.18C50.0682 189.88 49.7322 190.762 49.7322 191.812C49.7322 192.876 50.0822 193.758 50.7682 194.458C51.4682 195.144 52.3782 195.494 53.4842 195.494C54.8562 195.494 55.8782 194.962 56.5642 193.912L55.5282 193.324C55.1082 194.01 54.4362 194.346 53.5122 194.346C52.1822 194.346 51.2162 193.618 50.9782 192.372H56.8442ZM53.4002 189.278C54.5202 189.278 55.4442 189.978 55.6542 191.308H50.9782C51.1882 190.076 52.0982 189.278 53.4002 189.278ZM61.8892 188.312H60.0272V186.352L58.8092 186.716V188.312H57.4232V189.488H58.8092V193.282C58.8092 195.018 59.7612 195.592 61.8892 195.312V194.22C60.6432 194.276 60.0272 194.36 60.0272 193.282V189.488H61.8892V188.312ZM70.0782 193.646L68.4262 188.312H67.2502L65.5982 193.632L64.0582 188.312H62.7842L64.9542 195.312H66.2002L67.8382 190.132L69.4762 195.312H70.7222L72.8922 188.312H71.6182L70.0782 193.646ZM79.7802 194.43C80.4942 193.716 80.8582 192.848 80.8582 191.812C80.8582 190.776 80.4942 189.908 79.7802 189.194C79.0662 188.48 78.1842 188.13 77.1622 188.13C76.1402 188.13 75.2582 188.48 74.5442 189.194C73.8302 189.908 73.4802 190.776 73.4802 191.812C73.4802 192.848 73.8302 193.716 74.5442 194.43C75.2582 195.144 76.1402 195.494 77.1622 195.494C78.1842 195.494 79.0662 195.144 79.7802 194.43ZM77.1622 194.304C76.4762 194.304 75.8882 194.066 75.4122 193.59C74.9362 193.114 74.6982 192.526 74.6982 191.812C74.6982 191.098 74.9362 190.51 75.4122 190.034C75.8882 189.558 76.4762 189.32 77.1622 189.32C77.8622 189.32 78.4502 189.558 78.9262 190.034C79.4022 190.51 79.6402 191.098 79.6402 191.812C79.6402 192.526 79.4022 193.114 78.9262 193.59C78.4502 194.066 77.8622 194.304 77.1622 194.304ZM83.5121 188.312H82.2941V195.312H83.5121V191.602C83.5121 190.832 83.7221 190.286 84.1561 189.936C84.5901 189.586 85.0941 189.432 85.6961 189.46V188.186C84.6461 188.186 83.9181 188.62 83.5121 189.488V188.312ZM89.3519 191.7L92.6979 188.312H91.1299L88.1059 191.406V185.512H86.8879V195.312H88.1059V191.994L91.2979 195.312H92.8099L89.3519 191.7ZM94.5586 187.038C95.0066 187.038 95.3706 186.674 95.3706 186.226C95.3706 185.778 95.0066 185.4 94.5586 185.4C94.0966 185.4 93.7326 185.778 93.7326 186.226C93.7326 186.674 94.0966 187.038 94.5586 187.038ZM95.1606 195.312V188.312H93.9426V195.312H95.1606ZM100.505 188.13C99.4827 188.13 98.7267 188.522 98.2367 189.32V188.312H97.0187V195.312H98.2367V191.602C98.2367 190.034 99.0487 189.292 100.267 189.292C101.345 189.292 102.003 189.95 102.003 191.084V195.312H103.221V191.014C103.221 189.236 102.143 188.13 100.505 188.13ZM110.731 189.516C110.129 188.592 109.247 188.13 108.099 188.13C107.105 188.13 106.251 188.48 105.565 189.194C104.879 189.894 104.529 190.748 104.529 191.77C104.529 192.792 104.879 193.646 105.565 194.36C106.251 195.074 107.105 195.424 108.099 195.424C109.233 195.424 110.115 194.962 110.731 194.024V195.018C110.731 196.348 109.849 197.16 108.393 197.16C107.259 197.16 106.489 196.768 106.111 195.984L105.047 196.586C105.621 197.692 106.797 198.294 108.365 198.294C109.345 198.294 110.185 198 110.885 197.426C111.585 196.852 111.935 196.054 111.935 195.018V188.312H110.731V189.516ZM110.731 191.77C110.731 192.484 110.493 193.072 110.017 193.548C109.541 194.024 108.953 194.262 108.239 194.262C107.525 194.262 106.937 194.024 106.461 193.548C105.985 193.072 105.747 192.484 105.747 191.77C105.747 191.07 105.985 190.482 106.461 190.006C106.937 189.53 107.525 189.292 108.239 189.292C108.953 189.292 109.541 189.53 110.017 190.006C110.493 190.482 110.731 191.07 110.731 191.77ZM41.4059 201.616C41.8679 201.616 42.2739 201.238 42.2739 200.748C42.2739 200.258 41.8959 199.866 41.4059 199.866C40.9159 199.866 40.5239 200.258 40.5239 200.748C40.5239 201.238 40.9159 201.616 41.4059 201.616ZM40.7619 212.312H42.0639V202.512H40.7619V212.312ZM51.6002 205.13C50.6202 205.13 49.8922 205.522 49.4022 206.32C48.9682 205.522 48.2822 205.13 47.3442 205.13C46.4342 205.13 45.7342 205.508 45.2582 206.25V205.312H44.0402V212.312H45.2582V208.42C45.2582 207.006 46.0282 206.292 47.0502 206.292C47.9602 206.292 48.5342 206.922 48.5342 208V212.312H49.7522V208.42C49.7522 206.978 50.4242 206.292 51.4742 206.292C52.4122 206.292 53.0142 206.922 53.0142 208V212.312H54.2322V207.958C54.2322 206.222 53.1682 205.13 51.6002 205.13ZM58.3851 208.7L61.7311 205.312H60.1631L57.1391 208.406V202.512H55.9211V212.312H57.1391V208.994L60.3311 212.312H61.8431L58.3851 208.7ZM68.1292 206.516C67.5272 205.592 66.6452 205.13 65.4832 205.13C64.5032 205.13 63.6632 205.494 62.9772 206.208C62.2912 206.922 61.9412 207.79 61.9412 208.812C61.9412 209.834 62.2912 210.716 62.9772 211.43C63.6632 212.144 64.5032 212.494 65.4832 212.494C66.6452 212.494 67.5272 212.032 68.1292 211.108V212.312H69.3472V205.312H68.1292V206.516ZM65.6372 211.318C64.9372 211.318 64.3492 211.08 63.8732 210.604C63.3972 210.114 63.1592 209.526 63.1592 208.812C63.1592 208.098 63.3972 207.51 63.8732 207.034C64.3492 206.544 64.9372 206.306 65.6372 206.306C66.3512 206.306 66.9392 206.544 67.4152 207.034C67.8912 207.51 68.1292 208.098 68.1292 208.812C68.1292 209.526 67.8912 210.114 67.4152 210.604C66.9392 211.08 66.3512 211.318 65.6372 211.318ZM74.6786 205.13C73.6566 205.13 72.9006 205.522 72.4106 206.32V205.312H71.1926V212.312H72.4106V208.602C72.4106 207.034 73.2226 206.292 74.4406 206.292C75.5186 206.292 76.1766 206.95 76.1766 208.084V212.312H77.3946V208.014C77.3946 206.236 76.3166 205.13 74.6786 205.13ZM80.3129 212.312V202.092H79.0949V212.312H80.3129ZM87.9671 206.516C87.3651 205.592 86.4831 205.13 85.3211 205.13C84.3411 205.13 83.5011 205.494 82.8151 206.208C82.1291 206.922 81.7791 207.79 81.7791 208.812C81.7791 209.834 82.1291 210.716 82.8151 211.43C83.5011 212.144 84.3411 212.494 85.3211 212.494C86.4831 212.494 87.3651 212.032 87.9671 211.108V212.312H89.1851V205.312H87.9671V206.516ZM85.4751 211.318C84.7751 211.318 84.1871 211.08 83.7111 210.604C83.2351 210.114 82.9971 209.526 82.9971 208.812C82.9971 208.098 83.2351 207.51 83.7111 207.034C84.1871 206.544 84.7751 206.306 85.4751 206.306C86.1891 206.306 86.7771 206.544 87.2531 207.034C87.7291 207.51 87.9671 208.098 87.9671 208.812C87.9671 209.526 87.7291 210.114 87.2531 210.604C86.7771 211.08 86.1891 211.318 85.4751 211.318ZM92.2484 205.312H91.0304V212.312H92.2484V208.602C92.2484 207.832 92.4584 207.286 92.8924 206.936C93.3264 206.586 93.8304 206.432 94.4324 206.46V205.186C93.3824 205.186 92.6544 205.62 92.2484 206.488V205.312ZM96.8422 212.312V205.312H95.6242V212.312H96.8422Z" fill="#02A4BA"/>
<path d="M335.212 34H232.212C226.689 34 222.212 38.4772 222.212 44V109C222.212 114.523 226.689 119 232.212 119H335.212C340.735 119 345.212 114.523 345.212 109V44C345.212 38.4772 340.735 34 335.212 34Z" fill="#FFF9EE"/>
<path d="M238.362 81.918C239.076 81.428 239.426 80.742 239.426 79.874C239.426 79.118 239.16 78.488 238.628 77.97C238.096 77.452 237.452 77.2 236.682 77.2H232.762V87H236.99C237.788 87 238.46 86.734 239.006 86.202C239.552 85.67 239.832 85.012 239.832 84.228C239.832 83.178 239.258 82.352 238.362 81.918ZM236.682 78.418C237.088 78.418 237.424 78.572 237.704 78.866C237.998 79.16 238.138 79.51 238.138 79.916C238.138 80.756 237.508 81.414 236.682 81.414H234.064V78.418H236.682ZM234.064 85.782V82.604H236.99C237.424 82.604 237.788 82.758 238.082 83.066C238.39 83.374 238.544 83.752 238.544 84.186C238.544 85.082 237.872 85.782 236.99 85.782H234.064ZM242.467 80H241.249V87H242.467V83.29C242.467 82.52 242.677 81.974 243.111 81.624C243.545 81.274 244.049 81.12 244.651 81.148V79.874C243.601 79.874 242.873 80.308 242.467 81.176V80ZM251.368 86.118C252.082 85.404 252.446 84.536 252.446 83.5C252.446 82.464 252.082 81.596 251.368 80.882C250.654 80.168 249.772 79.818 248.75 79.818C247.728 79.818 246.846 80.168 246.132 80.882C245.418 81.596 245.068 82.464 245.068 83.5C245.068 84.536 245.418 85.404 246.132 86.118C246.846 86.832 247.728 87.182 248.75 87.182C249.772 87.182 250.654 86.832 251.368 86.118ZM248.75 85.992C248.064 85.992 247.476 85.754 247 85.278C246.524 84.802 246.286 84.214 246.286 83.5C246.286 82.786 246.524 82.198 247 81.722C247.476 81.246 248.064 81.008 248.75 81.008C249.45 81.008 250.038 81.246 250.514 81.722C250.99 82.198 251.228 82.786 251.228 83.5C251.228 84.214 250.99 84.802 250.514 85.278C250.038 85.754 249.45 85.992 248.75 85.992ZM260.315 85.334L258.663 80H257.487L255.835 85.32L254.295 80H253.021L255.191 87H256.437L258.075 81.82L259.713 87H260.959L263.129 80H261.855L260.315 85.334ZM264.995 81.89C264.995 81.288 265.555 80.952 266.241 80.952C266.983 80.952 267.487 81.246 267.739 81.848L268.761 81.274C268.313 80.364 267.375 79.818 266.241 79.818C265.527 79.818 264.939 80.014 264.463 80.406C264.001 80.798 263.763 81.302 263.763 81.904C263.763 83.388 265.191 83.752 266.297 84.046C267.067 84.228 267.683 84.536 267.683 85.082C267.683 85.74 267.095 86.034 266.297 86.034C265.443 86.034 264.785 85.614 264.561 84.942L263.511 85.544C263.917 86.538 264.939 87.182 266.297 87.182C267.067 87.182 267.683 86.986 268.173 86.608C268.663 86.23 268.915 85.712 268.915 85.082C268.929 83.584 267.473 83.178 266.381 82.94C265.611 82.73 264.995 82.436 264.995 81.89ZM276.885 84.06C276.913 83.878 276.927 83.696 276.927 83.514C276.927 82.492 276.605 81.624 275.947 80.91C275.303 80.182 274.463 79.818 273.441 79.818C272.363 79.818 271.481 80.168 270.795 80.868C270.109 81.568 269.773 82.45 269.773 83.5C269.773 84.564 270.123 85.446 270.809 86.146C271.509 86.832 272.419 87.182 273.525 87.182C274.897 87.182 275.919 86.65 276.605 85.6L275.569 85.012C275.149 85.698 274.477 86.034 273.553 86.034C272.223 86.034 271.257 85.306 271.019 84.06H276.885ZM273.441 80.966C274.561 80.966 275.485 81.666 275.695 82.996H271.019C271.229 81.764 272.139 80.966 273.441 80.966ZM279.545 80H278.327V87H279.545V83.29C279.545 82.52 279.755 81.974 280.189 81.624C280.623 81.274 281.127 81.12 281.729 81.148V79.874C280.679 79.874 279.951 80.308 279.545 81.176V80ZM285.749 77.2V78.432H288.633V87H289.921V78.432H292.819V77.2H285.749ZM298.506 81.204C297.904 80.28 297.022 79.818 295.86 79.818C294.88 79.818 294.04 80.182 293.354 80.896C292.668 81.61 292.318 82.478 292.318 83.5C292.318 84.522 292.668 85.404 293.354 86.118C294.04 86.832 294.88 87.182 295.86 87.182C297.022 87.182 297.904 86.72 298.506 85.796V87H299.724V80H298.506V81.204ZM296.014 86.006C295.314 86.006 294.726 85.768 294.25 85.292C293.774 84.802 293.536 84.214 293.536 83.5C293.536 82.786 293.774 82.198 294.25 81.722C294.726 81.232 295.314 80.994 296.014 80.994C296.728 80.994 297.316 81.232 297.792 81.722C298.268 82.198 298.506 82.786 298.506 83.5C298.506 84.214 298.268 84.802 297.792 85.292C297.316 85.768 296.728 86.006 296.014 86.006ZM305.434 79.818C304.272 79.818 303.39 80.28 302.788 81.204V77.2H301.57V87H302.788V85.796C303.39 86.72 304.272 87.182 305.434 87.182C306.414 87.182 307.254 86.832 307.94 86.118C308.626 85.404 308.976 84.522 308.976 83.5C308.976 82.478 308.626 81.61 307.94 80.896C307.254 80.182 306.414 79.818 305.434 79.818ZM305.28 86.006C304.566 86.006 303.978 85.768 303.502 85.292C303.026 84.802 302.788 84.214 302.788 83.5C302.788 82.786 303.026 82.198 303.502 81.722C303.978 81.232 304.566 80.994 305.28 80.994C305.98 80.994 306.568 81.232 307.044 81.722C307.52 82.198 307.758 82.786 307.758 83.5C307.758 84.214 307.52 84.802 307.044 85.292C306.568 85.768 305.98 86.006 305.28 86.006ZM316.225 81.204C315.623 80.28 314.741 79.818 313.579 79.818C312.599 79.818 311.759 80.182 311.073 80.896C310.387 81.61 310.037 82.478 310.037 83.5C310.037 84.522 310.387 85.404 311.073 86.118C311.759 86.832 312.599 87.182 313.579 87.182C314.741 87.182 315.623 86.72 316.225 85.796V87H317.443V80H316.225V81.204ZM313.733 86.006C313.033 86.006 312.445 85.768 311.969 85.292C311.493 84.802 311.255 84.214 311.255 83.5C311.255 82.786 311.493 82.198 311.969 81.722C312.445 81.232 313.033 80.994 313.733 80.994C314.447 80.994 315.035 81.232 315.511 81.722C315.987 82.198 316.225 82.786 316.225 83.5C316.225 84.214 315.987 84.802 315.511 85.292C315.035 85.768 314.447 86.006 313.733 86.006ZM322.774 79.818C321.752 79.818 320.996 80.21 320.506 81.008V80H319.288V87H320.506V83.29C320.506 81.722 321.318 80.98 322.536 80.98C323.614 80.98 324.272 81.638 324.272 82.772V87H325.49V82.702C325.49 80.924 324.412 79.818 322.774 79.818ZM328.409 87V76.78H327.191V87H328.409ZM331.485 87V80H330.267V87H331.485ZM237.368 102.908C236.234 102.908 235.31 102.544 234.596 101.816C233.882 101.088 233.532 100.178 233.532 99.1C233.532 98.008 233.882 97.098 234.596 96.37C235.31 95.642 236.234 95.278 237.368 95.278C238.712 95.278 239.902 95.978 240.462 97.056L241.596 96.398C240.756 94.942 239.16 94.018 237.368 94.018C235.884 94.018 234.652 94.508 233.686 95.488C232.72 96.468 232.244 97.672 232.244 99.1C232.244 100.43 232.678 101.578 233.532 102.544C234.4 103.496 235.506 104.028 236.85 104.154V105.162C237.62 105.204 238.012 105.372 238.012 105.666C238.012 106.044 237.382 106.198 236.136 106.1V107.024C238.096 107.136 239.076 106.716 239.076 105.75C239.076 105.19 238.6 104.784 237.886 104.63V104.154C239.468 104 240.868 103.09 241.596 101.788L240.462 101.144C239.902 102.208 238.712 102.908 237.368 102.908ZM248.713 98.204C248.111 97.28 247.229 96.818 246.067 96.818C245.087 96.818 244.247 97.182 243.561 97.896C242.875 98.61 242.525 99.478 242.525 100.5C242.525 101.522 242.875 102.404 243.561 103.118C244.247 103.832 245.087 104.182 246.067 104.182C247.229 104.182 248.111 103.72 248.713 102.796V104H249.931V97H248.713V98.204ZM246.221 103.006C245.521 103.006 244.933 102.768 244.457 102.292C243.981 101.802 243.743 101.214 243.743 100.5C243.743 99.786 243.981 99.198 244.457 98.722C244.933 98.232 245.521 97.994 246.221 97.994C246.935 97.994 247.523 98.232 247.999 98.722C248.475 99.198 248.713 99.786 248.713 100.5C248.713 101.214 248.475 101.802 247.999 102.292C247.523 102.768 246.935 103.006 246.221 103.006ZM252.995 104V93.78H251.777V104H252.995ZM256.071 104V97H254.853V104H256.071ZM262.885 102.082C262.899 100.584 261.443 100.178 260.351 99.94C259.581 99.73 258.965 99.436 258.965 98.89C258.965 98.288 259.525 97.952 260.211 97.952C260.953 97.952 261.457 98.246 261.709 98.848L262.731 98.274C262.283 97.364 261.345 96.818 260.211 96.818C259.497 96.818 258.909 97.014 258.433 97.406C257.971 97.798 257.733 98.302 257.733 98.904C257.733 100.388 259.161 100.752 260.267 101.046C261.037 101.228 261.653 101.536 261.653 102.082C261.653 102.74 261.065 103.034 260.267 103.034C259.413 103.034 258.755 102.614 258.531 101.942L257.481 102.544C257.859 103.454 258.615 104 259.749 104.154V105.162C260.519 105.204 260.911 105.372 260.911 105.666C260.911 106.044 260.281 106.198 259.035 106.1V107.024C260.995 107.136 261.975 106.716 261.975 105.75C261.975 105.19 261.499 104.784 260.785 104.63V104.154C262.059 103.986 262.885 103.202 262.885 102.082ZM265.477 104V97H264.259V104H265.477ZM268.553 97H267.335V104H268.553V100.29C268.553 99.52 268.763 98.974 269.197 98.624C269.631 98.274 270.135 98.12 270.737 98.148V96.874C269.687 96.874 268.959 97.308 268.553 98.176V97Z" fill="#F29F05"/>
<path d="M307.712 53.818V70.863C307.705 71.1578 307.816 71.443 308.02 71.6561C308.224 71.8691 308.504 71.9924 308.799 71.999H331.625C331.919 71.9924 332.2 71.8691 332.403 71.6561C332.607 71.443 332.718 71.1578 332.712 70.863V53.818H307.712Z" fill="#F29F05"/>
<path d="M307.712 52.682V48.137C307.708 47.991 307.734 47.8457 307.787 47.7095C307.84 47.5733 307.919 47.4489 308.02 47.3433C308.121 47.2377 308.241 47.153 308.375 47.0941C308.509 47.0352 308.653 47.0032 308.799 47H331.625C331.92 47.0068 332.2 47.1304 332.403 47.3436C332.607 47.5568 332.718 47.8421 332.712 48.137V52.682H307.712Z" fill="#F29F05"/>
<path d="M326.613 57.434L321.983 62.993L320.447 61.393L318.913 62.993L314.283 57.434V67.303H326.613V57.434Z" fill="#FFF9EE"/>
<path d="M307.712 173.812H204.712C199.189 173.812 194.712 178.289 194.712 183.812V248.812C194.712 254.335 199.189 258.812 204.712 258.812H307.712C313.235 258.812 317.712 254.335 317.712 248.812V183.812C317.712 178.289 313.235 173.812 307.712 173.812Z" fill="#FFEDE9"/>
<path d="M211.426 226.494C212.434 226.494 213.246 226.242 213.876 225.738C214.506 225.22 214.814 224.534 214.814 223.68C214.814 223.064 214.674 222.56 214.324 222.21C214.086 221.93 213.96 221.776 213.568 221.566C213.19 221.356 213.078 221.286 212.588 221.104C212.35 221.006 212.182 220.95 212.07 220.908L211.496 220.726C210.74 220.488 210.208 220.25 209.9 220.026C209.592 219.802 209.438 219.48 209.438 219.046C209.438 218.15 210.152 217.59 211.216 217.59C212.28 217.59 213.022 218.094 213.442 219.102L214.534 218.472C213.96 217.184 212.77 216.33 211.216 216.33C210.362 216.33 209.634 216.582 209.032 217.086C208.43 217.576 208.136 218.248 208.136 219.102C208.136 219.816 208.43 220.39 208.752 220.74C208.906 220.908 209.144 221.076 209.466 221.244C209.788 221.398 210.068 221.524 210.278 221.608L211.216 221.916C212.042 222.182 212.644 222.42 212.994 222.658C213.344 222.896 213.526 223.246 213.526 223.708C213.526 224.618 212.798 225.22 211.454 225.22C210.096 225.22 209.214 224.632 208.836 223.442L207.716 224.086C208.234 225.584 209.592 226.494 211.426 226.494ZM216.846 218.038C217.294 218.038 217.658 217.674 217.658 217.226C217.658 216.778 217.294 216.4 216.846 216.4C216.384 216.4 216.02 216.778 216.02 217.226C216.02 217.674 216.384 218.038 216.846 218.038ZM217.448 226.312V219.312H216.23V226.312H217.448ZM226.866 219.13C225.886 219.13 225.158 219.522 224.668 220.32C224.234 219.522 223.548 219.13 222.61 219.13C221.7 219.13 221 219.508 220.524 220.25V219.312H219.306V226.312H220.524V222.42C220.524 221.006 221.294 220.292 222.316 220.292C223.226 220.292 223.8 220.922 223.8 222V226.312H225.018V222.42C225.018 220.978 225.69 220.292 226.74 220.292C227.678 220.292 228.28 220.922 228.28 222V226.312H229.498V221.958C229.498 220.222 228.434 219.13 226.866 219.13ZM236.017 223.022C236.017 224.59 235.205 225.332 233.987 225.332C232.909 225.332 232.251 224.674 232.251 223.54V219.312H231.033V223.61C231.033 225.388 232.111 226.494 233.749 226.494C234.771 226.494 235.527 226.102 236.017 225.304V226.312H237.235V219.312H236.017V223.022ZM240.307 226.312V216.092H239.089V226.312H240.307ZM245.973 219.312H244.111V217.352L242.893 217.716V219.312H241.507V220.488H242.893V224.282C242.893 226.018 243.845 226.592 245.973 226.312V225.22C244.727 225.276 244.111 225.36 244.111 224.282V220.488H245.973V219.312ZM252.856 220.516C252.254 219.592 251.372 219.13 250.21 219.13C249.23 219.13 248.39 219.494 247.704 220.208C247.018 220.922 246.668 221.79 246.668 222.812C246.668 223.834 247.018 224.716 247.704 225.43C248.39 226.144 249.23 226.494 250.21 226.494C251.372 226.494 252.254 226.032 252.856 225.108V226.312H254.074V219.312H252.856V220.516ZM250.364 225.318C249.664 225.318 249.076 225.08 248.6 224.604C248.124 224.114 247.886 223.526 247.886 222.812C247.886 222.098 248.124 221.51 248.6 221.034C249.076 220.544 249.664 220.306 250.364 220.306C251.078 220.306 251.666 220.544 252.142 221.034C252.618 221.51 252.856 222.098 252.856 222.812C252.856 223.526 252.618 224.114 252.142 224.604C251.666 225.08 251.078 225.318 250.364 225.318ZM259.405 219.13C258.383 219.13 257.627 219.522 257.137 220.32V219.312H255.919V226.312H257.137V222.602C257.137 221.034 257.949 220.292 259.167 220.292C260.245 220.292 260.903 220.95 260.903 222.084V226.312H262.121V222.014C262.121 220.236 261.043 219.13 259.405 219.13ZM270.541 223.372C270.569 223.19 270.583 223.008 270.583 222.826C270.583 221.804 270.261 220.936 269.603 220.222C268.959 219.494 268.119 219.13 267.097 219.13C266.019 219.13 265.137 219.48 264.451 220.18C263.765 220.88 263.429 221.762 263.429 222.812C263.429 223.876 263.779 224.758 264.465 225.458C265.165 226.144 266.075 226.494 267.181 226.494C268.553 226.494 269.575 225.962 270.261 224.912L269.225 224.324C268.805 225.01 268.133 225.346 267.209 225.346C265.879 225.346 264.913 224.618 264.675 223.372H270.541ZM267.097 220.278C268.217 220.278 269.141 220.978 269.351 222.308H264.675C264.885 221.076 265.795 220.278 267.097 220.278ZM212.868 242.22C211.734 242.22 210.81 241.856 210.096 241.128C209.382 240.4 209.032 239.49 209.032 238.412C209.032 237.32 209.382 236.41 210.096 235.682C210.81 234.954 211.734 234.59 212.868 234.59C214.212 234.59 215.402 235.29 215.962 236.368L217.096 235.71C216.256 234.254 214.66 233.33 212.868 233.33C211.384 233.33 210.152 233.82 209.186 234.8C208.22 235.78 207.744 236.984 207.744 238.412C207.744 239.742 208.178 240.89 209.032 241.856C209.9 242.808 211.006 243.34 212.35 243.466V244.474C213.12 244.516 213.512 244.684 213.512 244.978C213.512 245.356 212.882 245.51 211.636 245.412V246.336C213.596 246.448 214.576 246.028 214.576 245.062C214.576 244.502 214.1 244.096 213.386 243.942V243.466C214.968 243.312 216.368 242.402 217.096 241.1L215.962 240.456C215.402 241.52 214.212 242.22 212.868 242.22ZM225.137 240.372C225.165 240.19 225.179 240.008 225.179 239.826C225.179 238.804 224.857 237.936 224.199 237.222C223.555 236.494 222.715 236.13 221.693 236.13C220.615 236.13 219.733 236.48 219.047 237.18C218.361 237.88 218.025 238.762 218.025 239.812C218.025 240.876 218.375 241.758 219.061 242.458C219.761 243.144 220.671 243.494 221.777 243.494C223.149 243.494 224.171 242.962 224.857 241.912L223.821 241.324C223.401 242.01 222.729 242.346 221.805 242.346C220.475 242.346 219.509 241.618 219.271 240.372H225.137ZM221.693 237.278C222.813 237.278 223.737 237.978 223.947 239.308H219.271C219.481 238.076 220.391 237.278 221.693 237.278ZM229.008 242.01L226.81 236.312H225.494L228.294 243.312H229.722L232.522 236.312H231.206L229.008 242.01ZM234.168 235.038C234.616 235.038 234.98 234.674 234.98 234.226C234.98 233.778 234.616 233.4 234.168 233.4C233.706 233.4 233.342 233.778 233.342 234.226C233.342 234.674 233.706 235.038 234.168 235.038ZM234.77 243.312V236.312H233.552V243.312H234.77ZM237.846 236.312H236.628V243.312H237.846V239.602C237.846 238.832 238.056 238.286 238.49 237.936C238.924 237.586 239.428 237.432 240.03 237.46V236.186C238.98 236.186 238.252 236.62 237.846 237.488V236.312ZM241.838 235.038C242.286 235.038 242.65 234.674 242.65 234.226C242.65 233.778 242.286 233.4 241.838 233.4C241.376 233.4 241.012 233.778 241.012 234.226C241.012 234.674 241.376 235.038 241.838 235.038ZM242.44 243.312V236.312H241.222V243.312H242.44Z" fill="#EC6C51"/>
<path d="M297.647 200.381C297.55 200.776 297.27 201.754 296.809 203.313H298.5C298.065 201.852 297.821 201.026 297.767 200.835C297.709 200.644 297.673 200.492 297.647 200.381Z" fill="#EC6C51"/>
<path d="M301.39 211.809C301.288 211.796 301.191 211.754 301.112 211.687L298.543 209.539H292.756C292.468 209.538 292.184 209.478 291.919 209.364C291.655 209.25 291.417 209.083 291.219 208.874C290.808 208.44 290.58 207.864 290.582 207.266V198.176C290.579 197.578 290.807 197.003 291.218 196.569C291.416 196.36 291.654 196.193 291.919 196.078C292.183 195.964 292.468 195.904 292.756 195.903H302.539C302.827 195.904 303.112 195.964 303.376 196.078C303.64 196.193 303.878 196.36 304.076 196.569C304.487 197.003 304.715 197.578 304.712 198.176V207.267C304.714 207.864 304.486 208.44 304.076 208.874C303.878 209.083 303.64 209.25 303.376 209.364C303.112 209.478 302.827 209.538 302.539 209.539H301.995V211.239C301.994 211.345 301.966 211.448 301.912 211.539C301.858 211.628 301.78 211.701 301.687 211.749C301.594 211.795 301.49 211.813 301.387 211.801L301.39 211.809Z" fill="#EC6C51"/>
<path d="M285.653 191.959C285.768 192.407 285.94 192.839 286.163 193.245C286.34 193.586 286.554 193.906 286.803 194.199C287.04 193.909 287.241 193.592 287.403 193.254C287.612 192.844 287.766 192.409 287.861 191.959H285.653Z" fill="#EC6C51"/>
<path d="M289.495 198.176C289.494 197.833 289.544 197.492 289.641 197.163C288.617 196.847 287.664 196.338 286.832 195.663C285.926 196.377 284.889 196.907 283.78 197.222C283.633 196.792 283.417 196.39 283.141 196.029C284.155 195.826 285.117 195.417 285.967 194.829C285.595 194.405 285.274 193.938 285.012 193.439C284.761 192.969 284.565 192.473 284.426 191.959H284.269C283.931 191.958 283.593 191.974 283.257 192.007V190.773C283.603 190.815 283.951 190.834 284.3 190.83H286.112V190.318C286.113 190.137 286.098 189.956 286.067 189.777H287.38C287.348 189.953 287.333 190.131 287.334 190.31V190.827H289.261C289.612 190.831 289.963 190.812 290.312 190.77V192.004C289.98 191.97 289.646 191.954 289.312 191.956H289.132C289.015 192.496 288.831 193.019 288.583 193.512C288.348 193.985 288.055 194.428 287.712 194.83C288.489 195.38 289.376 195.755 290.312 195.93C290.613 195.569 290.988 195.277 291.412 195.074C291.832 194.876 292.291 194.773 292.755 194.774H293.842V189.085C293.844 188.488 293.616 187.912 293.206 187.478C293.008 187.269 292.77 187.102 292.506 186.987C292.242 186.873 291.957 186.813 291.669 186.812H281.886C281.598 186.813 281.313 186.873 281.049 186.987C280.785 187.102 280.547 187.269 280.349 187.478C279.938 187.912 279.71 188.487 279.712 189.085V198.176C279.71 198.774 279.938 199.349 280.349 199.783C280.547 199.992 280.785 200.159 281.049 200.274C281.313 200.388 281.598 200.448 281.886 200.449H282.429V202.149C282.429 202.255 282.458 202.358 282.512 202.449C282.566 202.539 282.644 202.612 282.737 202.659C282.83 202.706 282.934 202.724 283.037 202.711C283.139 202.699 283.236 202.657 283.315 202.59L285.883 200.442H289.495V198.176Z" fill="#EC6C51"/>
</svg>
