<svg width="604" height="452" viewBox="0 0 604 452" fill="none" xmlns="http://www.w3.org/2000/svg">
<g filter="url(#filter0_d)">
<path d="M339 330C339 324.477 343.477 320 349 320H498C503.523 320 508 324.477 508 330V418C508 423.523 503.523 428 498 428H349C343.477 428 339 423.523 339 418V330Z" fill="#FFEDE9"/>
<path d="M355.816 387.708C358.104 387.708 359.688 386.46 359.688 384.492C359.688 382.332 357.848 381.756 355.896 381.116C354.328 380.62 353.544 380.236 353.544 379.196C353.544 378.172 354.376 377.532 355.576 377.532C356.936 377.532 357.72 378.3 358.12 379.26L359.368 378.54C358.744 377.132 357.416 376.092 355.576 376.092C353.704 376.092 352.056 377.244 352.056 379.26C352.056 381.34 353.784 381.9 355.576 382.476C357.224 382.988 358.216 383.372 358.216 384.524C358.216 385.532 357.432 386.252 355.848 386.252C354.216 386.252 353.256 385.452 352.856 384.22L351.576 384.956C352.168 386.636 353.688 387.708 355.816 387.708ZM362.01 378.044C362.522 378.044 362.938 377.628 362.938 377.116C362.938 376.604 362.522 376.172 362.01 376.172C361.482 376.172 361.066 376.604 361.066 377.116C361.066 377.628 361.482 378.044 362.01 378.044ZM361.306 387.5H362.698V379.5H361.306V387.5ZM373.462 379.292C372.422 379.292 371.51 379.74 370.95 380.652C370.486 379.788 369.686 379.292 368.598 379.292C367.622 379.292 366.79 379.676 366.214 380.572V379.5H364.822V387.5H366.214V383.052C366.214 381.324 367.19 380.62 368.262 380.62C369.302 380.62 369.958 381.308 369.958 382.572V387.5H371.35V383.052C371.35 381.324 372.198 380.62 373.318 380.62C374.374 380.62 375.078 381.308 375.078 382.572V387.5H376.47V382.524C376.47 380.524 375.238 379.292 373.462 379.292ZM383.92 379.5V383.74C383.92 385.628 382.88 386.38 381.6 386.38C380.368 386.38 379.616 385.644 379.616 384.332V379.5H378.224V384.412C378.224 386.46 379.456 387.708 381.328 387.708C382.448 387.708 383.328 387.292 383.92 386.348V387.5H385.312V379.5H383.92ZM387.431 387.5H388.823V375.82H387.431V387.5ZM395.299 380.844V379.5H393.171V377.26L391.779 377.676V379.5H390.195V380.844H391.779V385.18C391.779 387.18 392.899 387.82 395.299 387.5V386.252C393.875 386.316 393.171 386.396 393.171 385.18V380.844H395.299ZM403.164 379.5V380.876C402.524 379.9 401.5 379.292 400.14 379.292C397.916 379.292 396.092 381.132 396.092 383.5C396.092 385.868 397.916 387.708 400.14 387.708C401.5 387.708 402.524 387.1 403.164 386.124V387.5H404.556V379.5H403.164ZM400.316 386.364C398.716 386.364 397.484 385.132 397.484 383.5C397.484 381.868 398.716 380.636 400.316 380.636C401.932 380.636 403.164 381.868 403.164 383.5C403.164 385.132 401.932 386.364 400.316 386.364ZM410.649 379.292C409.529 379.292 408.649 379.708 408.057 380.652V379.5H406.665V387.5H408.057V383.26C408.057 381.372 409.097 380.62 410.377 380.62C411.609 380.62 412.361 381.356 412.361 382.668V387.5H413.753V382.588C413.753 380.54 412.521 379.292 410.649 379.292ZM416.673 384.14H423.377C423.409 383.932 423.425 383.724 423.425 383.516C423.425 381.276 421.857 379.292 419.441 379.292C416.945 379.292 415.249 381.132 415.249 383.5C415.249 385.9 416.961 387.708 419.537 387.708C421.137 387.708 422.353 386.988 423.057 385.9L421.873 385.228C421.473 385.884 420.673 386.396 419.569 386.396C418.081 386.396 416.945 385.58 416.673 384.14ZM419.441 380.604C420.641 380.604 421.777 381.34 422.017 382.924H416.673C416.897 381.532 417.937 380.604 419.441 380.604ZM357.464 407.252C354.84 407.252 353.08 405.348 353.08 402.9C353.08 400.436 354.84 398.532 357.464 398.532C359 398.532 360.36 399.332 361 400.564L362.296 399.812C361.352 398.164 359.528 397.092 357.464 397.092C354.04 397.092 351.608 399.668 351.608 402.9C351.608 405.924 353.768 408.404 356.872 408.676V409.828C357.704 409.876 358.2 410.02 358.2 410.404C358.2 410.804 357.496 411.012 356.056 410.9V411.956C358.744 412.116 359.416 411.364 359.416 410.5C359.416 409.828 358.84 409.38 358.056 409.22V408.676C359.88 408.5 361.464 407.46 362.296 405.972L361 405.236C360.36 406.452 359 407.252 357.464 407.252ZM364.782 405.14H371.486C371.518 404.932 371.534 404.724 371.534 404.516C371.534 402.276 369.966 400.292 367.55 400.292C365.054 400.292 363.358 402.132 363.358 404.5C363.358 406.9 365.07 408.708 367.646 408.708C369.246 408.708 370.462 407.988 371.166 406.9L369.982 406.228C369.582 406.884 368.782 407.396 367.678 407.396C366.19 407.396 365.054 406.58 364.782 405.14ZM367.55 401.604C368.75 401.604 369.886 402.34 370.126 403.924H364.782C365.006 402.532 366.046 401.604 367.55 401.604ZM378.422 400.5L375.91 407.012L373.398 400.5H371.894L375.094 408.5H376.726L379.926 400.5H378.422ZM381.807 399.044C382.319 399.044 382.735 398.628 382.735 398.116C382.735 397.604 382.319 397.172 381.807 397.172C381.279 397.172 380.863 397.604 380.863 398.116C380.863 398.628 381.279 399.044 381.807 399.044ZM381.103 408.5H382.495V400.5H381.103V408.5ZM386.011 401.844V400.5H384.618V408.5H386.011V404.26C386.011 402.372 387.307 401.764 388.507 401.812V400.356C387.499 400.356 386.523 400.724 386.011 401.844ZM390.573 399.044C391.085 399.044 391.501 398.628 391.501 398.116C391.501 397.604 391.085 397.172 390.573 397.172C390.045 397.172 389.629 397.604 389.629 398.116C389.629 398.628 390.045 399.044 390.573 399.044ZM389.868 408.5H391.261V400.5H389.868V408.5Z" fill="#EC6C51"/>
</g>
<g filter="url(#filter1_d)">
<path d="M63 242C63 236.477 67.4772 232 73 232H222C227.523 232 232 236.477 232 242V330C232 335.523 227.523 340 222 340H73C67.4772 340 63 335.523 63 330V242Z" fill="#FFF9EE"/>
<path d="M83.16 288.3V296.652L77.4 288.3H76.2V299.5H77.688V291.132L83.448 299.5H84.648V288.3H83.16ZM87.8758 296.14H94.5798C94.6118 295.932 94.6278 295.724 94.6278 295.516C94.6278 293.276 93.0598 291.292 90.6438 291.292C88.1478 291.292 86.4518 293.132 86.4518 295.5C86.4518 297.9 88.1638 299.708 90.7398 299.708C92.3398 299.708 93.5558 298.988 94.2598 297.9L93.0758 297.228C92.6758 297.884 91.8758 298.396 90.7718 298.396C89.2838 298.396 88.1478 297.58 87.8758 296.14ZM90.6438 292.604C91.8438 292.604 92.9798 293.34 93.2198 294.924H87.8758C88.0998 293.532 89.1398 292.604 90.6438 292.604ZM100.346 292.844V291.5H98.2175V289.26L96.8255 289.676V291.5H95.2415V292.844H96.8255V297.18C96.8255 299.18 97.9455 299.82 100.346 299.5V298.252C98.9215 298.316 98.2175 298.396 98.2175 297.18V292.844H100.346ZM111.464 291.5L109.704 297.596L107.816 291.5H106.472L104.584 297.58L102.824 291.5H101.368L103.848 299.5H105.272L107.144 293.58L109.016 299.5H110.44L112.92 291.5H111.464ZM117.8 299.708C120.136 299.708 122.024 297.868 122.024 295.5C122.024 293.132 120.136 291.292 117.8 291.292C115.464 291.292 113.592 293.132 113.592 295.5C113.592 297.868 115.464 299.708 117.8 299.708ZM117.8 298.348C116.216 298.348 114.984 297.116 114.984 295.5C114.984 293.884 116.216 292.652 117.8 292.652C119.4 292.652 120.632 293.884 120.632 295.5C120.632 297.116 119.4 298.348 117.8 298.348ZM125.057 292.844V291.5H123.665V299.5H125.057V295.26C125.057 293.372 126.353 292.764 127.553 292.812V291.356C126.545 291.356 125.569 291.724 125.057 292.844ZM135.683 299.5L131.731 295.372L135.555 291.5H133.763L130.307 295.036V288.3H128.915V299.5H130.307V295.708L133.955 299.5H135.683ZM137.682 290.044C138.194 290.044 138.61 289.628 138.61 289.116C138.61 288.604 138.194 288.172 137.682 288.172C137.154 288.172 136.738 288.604 136.738 289.116C136.738 289.628 137.154 290.044 137.682 290.044ZM136.978 299.5H138.37V291.5H136.978V299.5ZM144.478 291.292C143.358 291.292 142.478 291.708 141.886 292.652V291.5H140.493V299.5H141.886V295.26C141.886 293.372 142.926 292.62 144.206 292.62C145.438 292.62 146.19 293.356 146.19 294.668V299.5H147.582V294.588C147.582 292.54 146.35 291.292 144.478 291.292ZM156.165 291.5V292.876C155.525 291.9 154.501 291.292 153.157 291.292C150.885 291.292 149.077 293.132 149.077 295.452C149.077 297.788 150.885 299.628 153.157 299.628C154.501 299.628 155.525 299.004 156.165 298.028V299.164C156.165 300.668 155.157 301.612 153.493 301.612C151.925 301.612 151.253 301.02 150.885 300.268L149.669 300.956C150.325 302.22 151.669 302.908 153.461 302.908C155.541 302.908 157.541 301.66 157.541 299.164V291.5H156.165ZM153.317 298.3C151.701 298.3 150.469 297.068 150.469 295.452C150.469 293.852 151.701 292.62 153.317 292.62C154.933 292.62 156.165 293.852 156.165 295.452C156.165 297.068 154.933 298.3 153.317 298.3ZM76.936 308.276C77.48 308.276 77.928 307.828 77.928 307.284C77.928 306.724 77.48 306.276 76.936 306.276C76.376 306.276 75.928 306.724 75.928 307.284C75.928 307.828 76.376 308.276 76.936 308.276ZM76.2 309.3V320.5H77.688V309.3H76.2ZM88.5866 312.292C87.5466 312.292 86.6346 312.74 86.0746 313.652C85.6106 312.788 84.8106 312.292 83.7226 312.292C82.7466 312.292 81.9146 312.676 81.3386 313.572V312.5H79.9466V320.5H81.3386V316.052C81.3386 314.324 82.3146 313.62 83.3866 313.62C84.4266 313.62 85.0826 314.308 85.0826 315.572V320.5H86.4746V316.052C86.4746 314.324 87.3226 313.62 88.4426 313.62C89.4986 313.62 90.2026 314.308 90.2026 315.572V320.5H91.5946V315.524C91.5946 313.524 90.3626 312.292 88.5866 312.292ZM100.293 320.5L96.3408 316.372L100.165 312.5H98.3728L94.9168 316.036V309.3H93.5247V320.5H94.9168V316.708L98.5648 320.5H100.293ZM107.477 312.5V313.876C106.837 312.9 105.813 312.292 104.453 312.292C102.229 312.292 100.405 314.132 100.405 316.5C100.405 318.868 102.229 320.708 104.453 320.708C105.813 320.708 106.837 320.1 107.477 319.124V320.5H108.869V312.5H107.477ZM104.629 319.364C103.029 319.364 101.797 318.132 101.797 316.5C101.797 314.868 103.029 313.636 104.629 313.636C106.245 313.636 107.477 314.868 107.477 316.5C107.477 318.132 106.245 319.364 104.629 319.364ZM114.962 312.292C113.842 312.292 112.962 312.708 112.37 313.652V312.5H110.978V320.5H112.37V316.26C112.37 314.372 113.41 313.62 114.69 313.62C115.922 313.62 116.674 314.356 116.674 315.668V320.5H118.066V315.588C118.066 313.54 116.834 312.292 114.962 312.292ZM120.009 320.5H121.401V308.82H120.009V320.5ZM130.149 312.5V313.876C129.509 312.9 128.485 312.292 127.125 312.292C124.901 312.292 123.077 314.132 123.077 316.5C123.077 318.868 124.901 320.708 127.125 320.708C128.485 320.708 129.509 320.1 130.149 319.124V320.5H131.541V312.5H130.149ZM127.301 319.364C125.701 319.364 124.469 318.132 124.469 316.5C124.469 314.868 125.701 313.636 127.301 313.636C128.917 313.636 130.149 314.868 130.149 316.5C130.149 318.132 128.917 319.364 127.301 319.364ZM135.042 313.844V312.5H133.65V320.5H135.042V316.26C135.042 314.372 136.338 313.764 137.538 313.812V312.356C136.53 312.356 135.554 312.724 135.042 313.844ZM138.9 320.5H140.292V312.5H138.9V320.5Z" fill="#02A4BA"/>
</g>
<g filter="url(#filter2_d)">
<path d="M20 26C20 20.4772 24.4772 16 30 16H179C184.523 16 189 20.4772 189 26V114C189 119.523 184.523 124 179 124H30C24.4772 124 20 119.523 20 114V26Z" fill="#FAF8FF"/>
<path d="M37.056 76.892L39.488 73.612V72.3H32.768V73.692H37.744L35.152 77.196L35.744 78.108H36.128C37.472 78.108 38.48 78.844 38.48 80.188C38.48 81.516 37.472 82.252 36.128 82.252C34.912 82.252 34.032 81.74 33.696 80.7L32.448 81.436C33.024 82.94 34.48 83.708 36.128 83.708C38.144 83.708 39.968 82.46 39.968 80.188C39.968 78.332 38.672 77.196 37.056 76.892ZM44.8665 76.172C44.6905 76.172 44.5145 76.188 44.3385 76.204L46.9785 72.3H45.2825L41.6825 77.692C41.2505 78.3 41.0105 79.068 41.0105 79.932C41.0105 82.156 42.6105 83.708 44.8665 83.708C47.1065 83.708 48.7225 82.156 48.7225 79.932C48.7225 77.708 47.1065 76.172 44.8665 76.172ZM44.8665 82.284C43.4585 82.284 42.4825 81.356 42.4825 79.932C42.4825 78.508 43.4585 77.596 44.8665 77.596C46.2585 77.596 47.2505 78.524 47.2505 79.932C47.2505 81.356 46.2585 82.284 44.8665 82.284ZM54.2119 83.708C56.9959 83.708 58.5319 81.356 58.5319 77.9C58.5319 74.444 56.9959 72.092 54.2119 72.092C51.4439 72.092 49.8919 74.444 49.8919 77.9C49.8919 81.356 51.4439 83.708 54.2119 83.708ZM54.2119 82.252C52.4039 82.252 51.3799 80.684 51.3799 77.9C51.3799 75.116 52.4039 73.532 54.2119 73.532C56.0199 73.532 57.0599 75.116 57.0599 77.9C57.0599 80.684 56.0199 82.252 54.2119 82.252ZM62.53 76.348C64.306 76.348 65.362 74.988 65.362 72.94C65.362 70.892 64.306 69.532 62.53 69.532C60.754 69.532 59.698 70.892 59.698 72.94C59.698 74.988 60.754 76.348 62.53 76.348ZM62.53 75.132C61.538 75.132 60.946 74.38 60.946 72.94C60.946 71.5 61.538 70.748 62.53 70.748C63.522 70.748 64.114 71.5 64.114 72.94C64.114 74.38 63.522 75.132 62.53 75.132ZM36.816 104.708C39.104 104.708 40.688 103.46 40.688 101.492C40.688 99.332 38.848 98.756 36.896 98.116C35.328 97.62 34.544 97.236 34.544 96.196C34.544 95.172 35.376 94.532 36.576 94.532C37.936 94.532 38.72 95.3 39.12 96.26L40.368 95.54C39.744 94.132 38.416 93.092 36.576 93.092C34.704 93.092 33.056 94.244 33.056 96.26C33.056 98.34 34.784 98.9 36.576 99.476C38.224 99.988 39.216 100.372 39.216 101.524C39.216 102.532 38.432 103.252 36.848 103.252C35.216 103.252 34.256 102.452 33.856 101.22L32.576 101.956C33.168 103.636 34.688 104.708 36.816 104.708ZM43.4695 101.14H50.1735C50.2055 100.932 50.2215 100.724 50.2215 100.516C50.2215 98.276 48.6535 96.292 46.2375 96.292C43.7415 96.292 42.0455 98.132 42.0455 100.5C42.0455 102.9 43.7575 104.708 46.3335 104.708C47.9335 104.708 49.1495 103.988 49.8535 102.9L48.6695 102.228C48.2695 102.884 47.4695 103.396 46.3655 103.396C44.8775 103.396 43.7415 102.58 43.4695 101.14ZM46.2375 97.604C47.4375 97.604 48.5735 98.34 48.8135 99.924H43.4695C43.6935 98.532 44.7335 97.604 46.2375 97.604ZM53.2136 97.844V96.5H51.8216V104.5H53.2136V100.26C53.2136 98.372 54.5096 97.764 55.7096 97.812V96.356C54.7016 96.356 53.7256 96.724 53.2136 97.844ZM63.2741 96.5V97.876C62.6341 96.9 61.6101 96.292 60.2661 96.292C57.9941 96.292 56.1861 98.132 56.1861 100.452C56.1861 102.788 57.9941 104.628 60.2661 104.628C61.6101 104.628 62.6341 104.004 63.2741 103.028V104.164C63.2741 105.668 62.2661 106.612 60.6021 106.612C59.0341 106.612 58.3621 106.02 57.9941 105.268L56.7781 105.956C57.4341 107.22 58.7781 107.908 60.5701 107.908C62.6501 107.908 64.6501 106.66 64.6501 104.164V96.5H63.2741ZM60.4261 103.3C58.8101 103.3 57.5781 102.068 57.5781 100.452C57.5781 98.852 58.8101 97.62 60.4261 97.62C62.0421 97.62 63.2741 98.852 63.2741 100.452C63.2741 102.068 62.0421 103.3 60.4261 103.3ZM67.4631 95.044C67.9751 95.044 68.3911 94.628 68.3911 94.116C68.3911 93.604 67.9751 93.172 67.4631 93.172C66.9351 93.172 66.5191 93.604 66.5191 94.116C66.5191 94.628 66.9351 95.044 67.4631 95.044ZM66.7591 104.5H68.1511V96.5H66.7591V104.5ZM70.6588 106.1L77.0588 91.7H76.2268L69.8268 106.1H70.6588ZM85.3199 94.708V93.3H78.8719V104.5H80.3599V99.748H85.1119V98.34H80.3599V94.708H85.3199ZM92.4979 96.5V100.74C92.4979 102.628 91.4579 103.38 90.1779 103.38C88.9459 103.38 88.1939 102.644 88.1939 101.332V96.5H86.8019V101.412C86.8019 103.46 88.0339 104.708 89.9059 104.708C91.0259 104.708 91.9059 104.292 92.4979 103.348V104.5H93.8899V96.5H92.4979ZM102.633 96.5V97.876C101.993 96.9 100.969 96.292 99.6091 96.292C97.3851 96.292 95.5611 98.132 95.5611 100.5C95.5611 102.868 97.3851 104.708 99.6091 104.708C100.969 104.708 101.993 104.1 102.633 103.124V104.5H104.025V96.5H102.633ZM99.7851 103.364C98.1851 103.364 96.9531 102.132 96.9531 100.5C96.9531 98.868 98.1851 97.636 99.7851 97.636C101.401 97.636 102.633 98.868 102.633 100.5C102.633 102.132 101.401 103.364 99.7851 103.364ZM107.526 97.844V96.5H106.134V104.5H107.526V100.26C107.526 98.372 108.822 97.764 110.022 97.812V96.356C109.014 96.356 108.038 96.724 107.526 97.844ZM122.904 104.5H124.488L120.312 93.3H118.632L114.456 104.5H116.04L116.952 101.988H121.992L122.904 104.5ZM117.464 100.596L119.464 95.076L121.48 100.596H117.464ZM125.665 104.5H127.057V92.82H125.665V104.5ZM135.805 96.5V97.876C135.165 96.9 134.141 96.292 132.781 96.292C130.557 96.292 128.733 98.132 128.733 100.5C128.733 102.868 130.557 104.708 132.781 104.708C134.141 104.708 135.165 104.1 135.805 103.124V104.5H137.197V96.5H135.805ZM132.957 103.364C131.357 103.364 130.125 102.132 130.125 100.5C130.125 98.868 131.357 97.636 132.957 97.636C134.573 97.636 135.805 98.868 135.805 100.5C135.805 102.132 134.573 103.364 132.957 103.364ZM143.29 96.292C142.17 96.292 141.29 96.708 140.698 97.652V96.5H139.306V104.5H140.698V100.26C140.698 98.372 141.738 97.62 143.018 97.62C144.25 97.62 145.002 98.356 145.002 99.668V104.5H146.394V99.588C146.394 97.54 145.162 96.292 143.29 96.292ZM148.337 104.5H149.729V96.5H148.337V104.5Z" fill="#7952CA"/>
</g>
<g filter="url(#filter3_d)">
<path d="M415 64C415 58.4772 419.477 54 425 54H574C579.523 54 584 58.4772 584 64V152C584 157.523 579.523 162 574 162H425C419.477 162 415 157.523 415 152V64Z" fill="#FFF9EE"/>
<path d="M434.6 115.692C435.336 115.18 435.816 114.364 435.816 113.356C435.816 111.628 434.424 110.3 432.68 110.3H428.2V121.5H433.032C434.84 121.5 436.28 120.124 436.28 118.332C436.28 117.116 435.608 116.172 434.6 115.692ZM432.68 111.692C433.608 111.692 434.344 112.46 434.344 113.404C434.344 114.364 433.608 115.116 432.68 115.116H429.688V111.692H432.68ZM433.032 120.108H429.688V116.476H433.032C434.024 116.476 434.808 117.276 434.808 118.284C434.808 119.308 434.024 120.108 433.032 120.108ZM439.292 114.844V113.5H437.9V121.5H439.292V117.26C439.292 115.372 440.588 114.764 441.788 114.812V113.356C440.78 113.356 439.804 113.724 439.292 114.844ZM446.472 121.708C448.808 121.708 450.696 119.868 450.696 117.5C450.696 115.132 448.808 113.292 446.472 113.292C444.136 113.292 442.264 115.132 442.264 117.5C442.264 119.868 444.136 121.708 446.472 121.708ZM446.472 120.348C444.888 120.348 443.656 119.116 443.656 117.5C443.656 115.884 444.888 114.652 446.472 114.652C448.072 114.652 449.304 115.884 449.304 117.5C449.304 119.116 448.072 120.348 446.472 120.348ZM461.449 113.5L459.689 119.596L457.801 113.5H456.457L454.569 119.58L452.809 113.5H451.353L453.833 121.5H455.257L457.129 115.58L459.001 121.5H460.425L462.905 113.5H461.449ZM465.037 115.66C465.037 114.94 465.741 114.588 466.461 114.588C467.165 114.588 467.869 114.892 468.173 115.612L469.341 114.956C468.829 113.916 467.773 113.292 466.461 113.292C464.845 113.292 463.629 114.268 463.629 115.676C463.629 118.572 468.109 117.596 468.109 119.308C468.109 120.092 467.373 120.396 466.525 120.396C465.533 120.396 464.797 119.916 464.541 119.148L463.341 119.836C463.805 120.94 464.925 121.708 466.525 121.708C468.237 121.708 469.517 120.796 469.517 119.308C469.517 116.364 465.037 117.372 465.037 115.66ZM471.923 118.14H478.627C478.659 117.932 478.675 117.724 478.675 117.516C478.675 115.276 477.107 113.292 474.691 113.292C472.195 113.292 470.499 115.132 470.499 117.5C470.499 119.9 472.211 121.708 474.787 121.708C476.387 121.708 477.603 120.988 478.307 119.9L477.123 119.228C476.723 119.884 475.923 120.396 474.819 120.396C473.331 120.396 472.195 119.58 471.923 118.14ZM474.691 114.604C475.891 114.604 477.027 115.34 477.267 116.924H471.923C472.147 115.532 473.187 114.604 474.691 114.604ZM481.667 114.844V113.5H480.275V121.5H481.667V117.26C481.667 115.372 482.963 114.764 484.163 114.812V113.356C483.155 113.356 482.179 113.724 481.667 114.844ZM496.837 110.3H488.757V111.708H492.053V121.5H493.525V111.708H496.837V110.3ZM503.336 113.5V114.876C502.696 113.9 501.672 113.292 500.312 113.292C498.088 113.292 496.264 115.132 496.264 117.5C496.264 119.868 498.088 121.708 500.312 121.708C501.672 121.708 502.696 121.1 503.336 120.124V121.5H504.728V113.5H503.336ZM500.488 120.364C498.888 120.364 497.656 119.132 497.656 117.5C497.656 115.868 498.888 114.636 500.488 114.636C502.104 114.636 503.336 115.868 503.336 117.5C503.336 119.132 502.104 120.364 500.488 120.364ZM511.253 113.292C509.893 113.292 508.869 113.9 508.229 114.876V110.3H506.837V121.5H508.229V120.124C508.869 121.1 509.893 121.708 511.253 121.708C513.477 121.708 515.301 119.868 515.301 117.5C515.301 115.132 513.477 113.292 511.253 113.292ZM511.077 120.364C509.461 120.364 508.229 119.132 508.229 117.5C508.229 115.868 509.461 114.636 511.077 114.636C512.677 114.636 513.909 115.868 513.909 117.5C513.909 119.132 512.677 120.364 511.077 120.364ZM523.586 113.5V114.876C522.946 113.9 521.922 113.292 520.562 113.292C518.338 113.292 516.514 115.132 516.514 117.5C516.514 119.868 518.338 121.708 520.562 121.708C521.922 121.708 522.946 121.1 523.586 120.124V121.5H524.978V113.5H523.586ZM520.738 120.364C519.138 120.364 517.906 119.132 517.906 117.5C517.906 115.868 519.138 114.636 520.738 114.636C522.354 114.636 523.586 115.868 523.586 117.5C523.586 119.132 522.354 120.364 520.738 120.364ZM531.071 113.292C529.951 113.292 529.071 113.708 528.479 114.652V113.5H527.087V121.5H528.479V117.26C528.479 115.372 529.519 114.62 530.799 114.62C532.031 114.62 532.783 115.356 532.783 116.668V121.5H534.175V116.588C534.175 114.54 532.943 113.292 531.071 113.292ZM536.118 121.5H537.511V109.82H536.118V121.5ZM539.634 121.5H541.026V113.5H539.634V121.5ZM433.464 141.252C430.84 141.252 429.08 139.348 429.08 136.9C429.08 134.436 430.84 132.532 433.464 132.532C435 132.532 436.36 133.332 437 134.564L438.296 133.812C437.352 132.164 435.528 131.092 433.464 131.092C430.04 131.092 427.608 133.668 427.608 136.9C427.608 139.924 429.768 142.404 432.872 142.676V143.828C433.704 143.876 434.2 144.02 434.2 144.404C434.2 144.804 433.496 145.012 432.056 144.9V145.956C434.744 146.116 435.416 145.364 435.416 144.5C435.416 143.828 434.84 143.38 434.056 143.22V142.676C435.88 142.5 437.464 141.46 438.296 139.972L437 139.236C436.36 140.452 435 141.252 433.464 141.252ZM446.43 134.5V135.876C445.79 134.9 444.766 134.292 443.406 134.292C441.182 134.292 439.358 136.132 439.358 138.5C439.358 140.868 441.182 142.708 443.406 142.708C444.766 142.708 445.79 142.1 446.43 141.124V142.5H447.822V134.5H446.43ZM443.582 141.364C441.982 141.364 440.75 140.132 440.75 138.5C440.75 136.868 441.982 135.636 443.582 135.636C445.198 135.636 446.43 136.868 446.43 138.5C446.43 140.132 445.198 141.364 443.582 141.364ZM449.931 142.5H451.323V130.82H449.931V142.5ZM453.447 142.5H454.839V134.5H453.447V142.5ZM462.627 140.308C462.627 137.364 458.147 138.372 458.147 136.66C458.147 135.94 458.851 135.588 459.571 135.588C460.275 135.588 460.979 135.892 461.283 136.612L462.451 135.956C461.939 134.916 460.883 134.292 459.571 134.292C457.955 134.292 456.739 135.268 456.739 136.676C456.739 139.572 461.219 138.596 461.219 140.308C461.219 141.092 460.483 141.396 459.635 141.396C458.643 141.396 457.907 140.916 457.651 140.148L456.451 140.836C456.851 141.796 457.763 142.5 459.043 142.676V143.828C459.875 143.876 460.371 144.02 460.371 144.404C460.371 144.804 459.667 145.012 458.227 144.9V145.956C460.915 146.116 461.587 145.364 461.587 144.5C461.587 143.828 461.011 143.38 460.227 143.22V142.676C461.635 142.484 462.627 141.62 462.627 140.308ZM464.197 142.5H465.589V134.5H464.197V142.5ZM469.104 135.844V134.5H467.712V142.5H469.104V138.26C469.104 136.372 470.4 135.764 471.6 135.812V134.356C470.592 134.356 469.616 134.724 469.104 135.844Z" fill="#F29F05"/>
</g>
<path d="M531.688 80.625V101.25C531.688 102.01 532.303 102.625 533.062 102.625H561.937C562.697 102.625 563.312 102.01 563.312 101.25V80.625H531.688Z" fill="#F29F05"/>
<path d="M561.937 72.375H533.062C532.303 72.375 531.688 72.9903 531.688 73.75V79.25H563.312V73.75C563.312 72.9903 562.697 72.375 561.937 72.375ZM535.125 77.1875C534.365 77.1875 533.75 76.5722 533.75 75.8125C533.75 75.0528 534.365 74.4375 535.125 74.4375C535.885 74.4375 536.5 75.0528 536.5 75.8125C536.5 76.5722 535.885 77.1875 535.125 77.1875ZM539.937 77.1875C539.178 77.1875 538.562 76.5722 538.562 75.8125C538.562 75.0528 539.178 74.4375 539.937 74.4375C540.697 74.4375 541.312 75.0528 541.312 75.8125C541.312 76.5722 540.697 77.1875 539.937 77.1875ZM544.75 77.1875C543.99 77.1875 543.375 76.5722 543.375 75.8125C543.375 75.0528 543.99 74.4375 544.75 74.4375C545.51 74.4375 546.125 75.0528 546.125 75.8125C546.125 76.5722 545.51 77.1875 544.75 77.1875Z" fill="#F29F05"/>
<path d="M555.598 85L549.74 91.7261L547.797 89.7933L545.857 91.7261L540 85V96.9416H540.612H554.983H555.598V85Z" fill="#FFF9EE"/>
<path d="M476.625 358.028C476.48 358.593 476.063 359.991 475.373 362.222H477.901C477.251 360.132 476.885 358.951 476.805 358.678C476.723 358.404 476.664 358.187 476.625 358.028Z" fill="#EC6C51"/>
<path d="M483.938 351.625H469.312C468.451 351.625 467.624 351.967 467.014 352.577C466.405 353.186 466.062 354.013 466.062 354.875V367.875C466.062 368.737 466.405 369.564 467.014 370.173C467.624 370.783 468.451 371.125 469.312 371.125H477.965L481.805 374.197C481.924 374.293 482.068 374.353 482.22 374.37C482.373 374.387 482.526 374.361 482.664 374.295C482.802 374.229 482.919 374.125 483 373.995C483.082 373.866 483.125 373.716 483.125 373.562V371.125H483.938C484.799 371.125 485.626 370.783 486.236 370.173C486.845 369.564 487.188 368.737 487.188 367.875V354.875C487.188 354.013 486.845 353.186 486.236 352.577C485.626 351.967 484.799 351.625 483.938 351.625ZM479.093 366.25L478.391 363.944H474.859L474.157 366.25H471.944L475.363 356.524H477.874L481.307 366.25H479.093Z" fill="#EC6C51"/>
<path d="M458.694 345.985C458.867 346.628 459.124 347.246 459.456 347.823C459.722 348.313 460.042 348.771 460.412 349.187C460.766 348.775 461.067 348.322 461.311 347.836C461.622 347.253 461.852 346.63 461.994 345.985H458.694Z" fill="#EC6C51"/>
<path d="M464.438 354.875C464.437 354.384 464.511 353.896 464.656 353.427C463.135 352.982 461.711 352.257 460.456 351.289C459.091 352.315 457.542 353.072 455.893 353.518C455.672 352.9 455.349 352.324 454.939 351.812C456.447 351.524 457.883 350.94 459.164 350.093C458.607 349.49 458.126 348.821 457.73 348.102C457.355 347.433 457.061 346.723 456.853 345.985H456.625C456.079 345.985 455.569 346.008 455.112 346.054V344.289C455.63 344.349 456.151 344.376 456.672 344.37H459.38V343.639C459.381 343.38 459.359 343.121 459.312 342.865H461.277C461.23 343.117 461.207 343.372 461.209 343.628V344.367H464.088C464.613 344.373 465.137 344.346 465.659 344.286V346.05C465.159 346.001 464.658 345.978 464.156 345.981H463.895C463.72 346.758 463.445 347.508 463.075 348.213C462.718 348.89 462.279 349.521 461.767 350.09C462.94 350.878 464.265 351.412 465.656 351.658C466.112 351.137 466.675 350.719 467.305 350.433C467.936 350.148 468.62 350 469.312 350H470.938V341.875C470.938 341.013 470.595 340.186 469.986 339.577C469.376 338.967 468.549 338.625 467.688 338.625H453.062C452.201 338.625 451.374 338.967 450.764 339.577C450.155 340.186 449.812 341.013 449.812 341.875V354.875C449.812 355.737 450.155 356.564 450.764 357.173C451.374 357.783 452.201 358.125 453.062 358.125H453.875V360.563C453.875 360.716 453.918 360.866 454 360.995C454.081 361.125 454.198 361.229 454.336 361.295C454.474 361.361 454.627 361.387 454.78 361.37C454.932 361.353 455.076 361.293 455.195 361.197L459.035 358.125H464.438V354.875Z" fill="#EC6C51"/>
<path d="M168.312 49.5C168.312 46.1038 165.121 43.2087 160.307 41.6934C158.791 36.8789 155.896 33.6875 152.5 33.6875C147.488 33.6875 143.562 40.6313 143.562 49.5C143.555 51.5694 143.782 53.6331 144.241 55.6511C140.538 54.2664 138.062 52.0046 138.062 49.5C138.062 47.3687 139.864 45.4094 142.687 44.0192C142.799 43.4198 142.935 42.8402 143.084 42.2751C139.18 43.8872 136.688 46.4984 136.688 49.5C136.688 52.8962 139.879 55.7913 144.693 57.3066C146.209 62.1211 149.104 65.3125 152.5 65.3125C155.502 65.3125 158.113 62.8196 159.725 58.9188C159.16 59.0679 158.58 59.2034 157.981 59.3161C156.591 62.1356 154.631 63.9375 152.5 63.9375C149.995 63.9375 147.734 61.4625 146.349 57.7589C148.367 58.2176 150.431 58.4452 152.5 58.4375C161.369 58.4375 168.312 54.5119 168.312 49.5ZM144.938 49.5C144.938 41.6742 148.4 35.0625 152.5 35.0625C155.005 35.0625 157.266 37.5375 158.651 41.2411C156.633 40.7824 154.569 40.5548 152.5 40.5625C150.983 40.5606 149.468 40.681 147.971 40.9227C147.76 41.404 147.564 41.9134 147.387 42.4552C149.07 42.1107 150.783 41.9373 152.5 41.9375C154.753 41.9314 156.997 42.2321 159.169 42.8313C159.768 45.0033 160.069 47.2468 160.062 49.5C160.063 51.2174 159.889 52.9304 159.545 54.6129C160.087 54.4356 160.597 54.2396 161.077 54.0292C161.319 52.5316 161.439 51.017 161.438 49.5C161.445 47.4306 161.218 45.3669 160.759 43.3489C164.462 44.7336 166.938 46.9954 166.938 49.5C166.938 53.5996 160.326 57.0625 152.5 57.0625C150.247 57.0686 148.003 56.7679 145.831 56.1688C145.232 53.9967 144.931 51.7532 144.938 49.5Z" fill="#7952CA"/>
<path d="M152.5 53.625C154.778 53.625 156.625 51.7782 156.625 49.5C156.625 47.2218 154.778 45.375 152.5 45.375C150.222 45.375 148.375 47.2218 148.375 49.5C148.375 51.7782 150.222 53.625 152.5 53.625Z" fill="#7952CA"/>
<g clip-path="url(#clip0)">
<path d="M184.581 269.625C184.96 269.625 185.268 269.318 185.268 268.938V265.5H195.581V268.938C195.581 269.318 195.889 269.625 196.268 269.625C196.648 269.625 196.956 269.318 196.956 268.938V265.5H207.268V268.938C207.268 269.318 207.576 269.625 207.956 269.625C208.335 269.625 208.643 269.318 208.643 268.938V264.813C208.643 264.432 208.335 264.125 207.956 264.125H196.956V260.688C196.956 260.307 196.648 260 196.268 260C195.889 260 195.581 260.307 195.581 260.688V264.125H184.581C184.201 264.125 183.893 264.432 183.893 264.813V268.938C183.893 269.318 184.201 269.625 184.581 269.625Z" fill="#02A4BA"/>
<path d="M196.268 257.25C198.546 257.25 200.393 255.403 200.393 253.125C200.393 250.847 198.546 249 196.268 249C193.99 249 192.143 250.847 192.143 253.125C192.143 255.403 193.99 257.25 196.268 257.25Z" fill="#02A4BA"/>
<path d="M184.581 280.625C186.859 280.625 188.706 278.778 188.706 276.5C188.706 274.222 186.859 272.375 184.581 272.375C182.303 272.375 180.456 274.222 180.456 276.5C180.456 278.778 182.303 280.625 184.581 280.625Z" fill="#02A4BA"/>
<path d="M196.268 280.625C198.546 280.625 200.393 278.778 200.393 276.5C200.393 274.222 198.546 272.375 196.268 272.375C193.99 272.375 192.143 274.222 192.143 276.5C192.143 278.778 193.99 280.625 196.268 280.625Z" fill="#02A4BA"/>
<path d="M207.956 280.625C210.234 280.625 212.081 278.778 212.081 276.5C212.081 274.222 210.234 272.375 207.956 272.375C205.678 272.375 203.831 274.222 203.831 276.5C203.831 278.778 205.678 280.625 207.956 280.625Z" fill="#02A4BA"/>
</g>
<defs>
<filter id="filter0_d" x="319" y="304" width="209" height="148" filterUnits="userSpaceOnUse" color-interpolation-filters="sRGB">
<feFlood flood-opacity="0" result="BackgroundImageFix"/>
<feColorMatrix in="SourceAlpha" type="matrix" values="0 0 0 0 0 0 0 0 0 0 0 0 0 0 0 0 0 0 127 0"/>
<feOffset dy="4"/>
<feGaussianBlur stdDeviation="10"/>
<feColorMatrix type="matrix" values="0 0 0 0 0.92549 0 0 0 0 0.423529 0 0 0 0 0.317647 0 0 0 0.1 0"/>
<feBlend mode="normal" in2="BackgroundImageFix" result="effect1_dropShadow"/>
<feBlend mode="normal" in="SourceGraphic" in2="effect1_dropShadow" result="shape"/>
</filter>
<filter id="filter1_d" x="43" y="216" width="209" height="148" filterUnits="userSpaceOnUse" color-interpolation-filters="sRGB">
<feFlood flood-opacity="0" result="BackgroundImageFix"/>
<feColorMatrix in="SourceAlpha" type="matrix" values="0 0 0 0 0 0 0 0 0 0 0 0 0 0 0 0 0 0 127 0"/>
<feOffset dy="4"/>
<feGaussianBlur stdDeviation="10"/>
<feColorMatrix type="matrix" values="0 0 0 0 0.0392157 0 0 0 0 0.831373 0 0 0 0 0.937255 0 0 0 0.1 0"/>
<feBlend mode="normal" in2="BackgroundImageFix" result="effect1_dropShadow"/>
<feBlend mode="normal" in="SourceGraphic" in2="effect1_dropShadow" result="shape"/>
</filter>
<filter id="filter2_d" x="0" y="0" width="209" height="148" filterUnits="userSpaceOnUse" color-interpolation-filters="sRGB">
<feFlood flood-opacity="0" result="BackgroundImageFix"/>
<feColorMatrix in="SourceAlpha" type="matrix" values="0 0 0 0 0 0 0 0 0 0 0 0 0 0 0 0 0 0 127 0"/>
<feOffset dy="4"/>
<feGaussianBlur stdDeviation="10"/>
<feColorMatrix type="matrix" values="0 0 0 0 0.47451 0 0 0 0 0.321569 0 0 0 0 0.792157 0 0 0 0.1 0"/>
<feBlend mode="normal" in2="BackgroundImageFix" result="effect1_dropShadow"/>
<feBlend mode="normal" in="SourceGraphic" in2="effect1_dropShadow" result="shape"/>
</filter>
<filter id="filter3_d" x="395" y="38" width="209" height="148" filterUnits="userSpaceOnUse" color-interpolation-filters="sRGB">
<feFlood flood-opacity="0" result="BackgroundImageFix"/>
<feColorMatrix in="SourceAlpha" type="matrix" values="0 0 0 0 0 0 0 0 0 0 0 0 0 0 0 0 0 0 127 0"/>
<feOffset dy="4"/>
<feGaussianBlur stdDeviation="10"/>
<feColorMatrix type="matrix" values="0 0 0 0 0.94902 0 0 0 0 0.623529 0 0 0 0 0.0196078 0 0 0 0.1 0"/>
<feBlend mode="normal" in2="BackgroundImageFix" result="effect1_dropShadow"/>
<feBlend mode="normal" in="SourceGraphic" in2="effect1_dropShadow" result="shape"/>
</filter>
<clipPath id="clip0">
<rect width="33" height="33" fill="white" transform="translate(179 249)"/>
</clipPath>
</defs>
</svg>
