<svg width="106" height="345" viewBox="0 0 106 345" fill="none" xmlns="http://www.w3.org/2000/svg">
<g clip-path="url(#clip0)">
<path d="M1.67924 3.34804C2.60667 3.34804 3.35849 2.59855 3.35849 1.67402C3.35849 0.749484 2.60667 0 1.67924 0C0.751823 0 0 0.749484 0 1.67402C0 2.59855 0.751823 3.34804 1.67924 3.34804Z" fill="white"/>
<path d="M52.2398 78.9711C53.1672 78.9711 53.919 78.2216 53.919 77.2971C53.919 76.3725 53.1672 75.623 52.2398 75.623C51.3124 75.623 50.5605 76.3725 50.5605 77.2971C50.5605 78.2216 51.3124 78.9711 52.2398 78.9711Z" fill="white"/>
<path d="M9.16557 83.2809C10.093 83.2809 10.8448 82.5314 10.8448 81.6069C10.8448 80.6823 10.093 79.9329 9.16557 79.9329C8.23815 79.9329 7.48633 80.6823 7.48633 81.6069C7.48633 82.5314 8.23815 83.2809 9.16557 83.2809Z" fill="white"/>
<path d="M9.16557 109.7C10.093 109.7 10.8448 108.95 10.8448 108.026C10.8448 107.101 10.093 106.352 9.16557 106.352C8.23815 106.352 7.48633 107.101 7.48633 108.026C7.48633 108.95 8.23815 109.7 9.16557 109.7Z" fill="white"/>
<path d="M27.0572 109.7C27.9846 109.7 28.7364 108.95 28.7364 108.026C28.7364 107.101 27.9846 106.352 27.0572 106.352C26.1298 106.352 25.3779 107.101 25.3779 108.026C25.3779 108.95 26.1298 109.7 27.0572 109.7Z" fill="white"/>
<path d="M51.678 109.7C52.6054 109.7 53.3573 108.95 53.3573 108.026C53.3573 107.101 52.6054 106.352 51.678 106.352C50.7506 106.352 49.9988 107.101 49.9988 108.026C49.9988 108.95 50.7506 109.7 51.678 109.7Z" fill="white"/>
<path d="M60.3306 109.7C61.258 109.7 62.0099 108.95 62.0099 108.026C62.0099 107.101 61.258 106.352 60.3306 106.352C59.4032 106.352 58.6514 107.101 58.6514 108.026C58.6514 108.95 59.4032 109.7 60.3306 109.7Z" fill="white"/>
<path d="M104.321 109.7C105.248 109.7 106 108.95 106 108.026C106 107.101 105.248 106.352 104.321 106.352C103.393 106.352 102.642 107.101 102.642 108.026C102.642 108.95 103.393 109.7 104.321 109.7Z" fill="white"/>
<path d="M72.3785 127.938C73.3059 127.938 74.0577 127.188 74.0577 126.264C74.0577 125.339 73.3059 124.59 72.3785 124.59C71.451 124.59 70.6992 125.339 70.6992 126.264C70.6992 127.188 71.451 127.938 72.3785 127.938Z" fill="white"/>
<path d="M60.3306 127.938C61.258 127.938 62.0099 127.188 62.0099 126.264C62.0099 125.339 61.258 124.59 60.3306 124.59C59.4032 124.59 58.6514 125.339 58.6514 126.264C58.6514 127.188 59.4032 127.938 60.3306 127.938Z" fill="white"/>
<path d="M51.678 121.546C52.6054 121.546 53.3573 120.796 53.3573 119.872C53.3573 118.947 52.6054 118.198 51.678 118.198C50.7506 118.198 49.9988 118.947 49.9988 119.872C49.9988 120.796 50.7506 121.546 51.678 121.546Z" fill="white"/>
<path d="M33.7498 127.938C34.6772 127.938 35.429 127.188 35.429 126.264C35.429 125.339 34.6772 124.59 33.7498 124.59C32.8224 124.59 32.0706 125.339 32.0706 126.264C32.0706 127.188 32.8224 127.938 33.7498 127.938Z" fill="white"/>
<path d="M9.16557 126.27C10.093 126.27 10.8448 125.52 10.8448 124.596C10.8448 123.671 10.093 122.922 9.16557 122.922C8.23815 122.922 7.48633 123.671 7.48633 124.596C7.48633 125.52 8.23815 126.27 9.16557 126.27Z" fill="white"/>
<path d="M9.16557 152.604C10.093 152.604 10.8448 151.854 10.8448 150.93C10.8448 150.005 10.093 149.255 9.16557 149.255C8.23815 149.255 7.48633 150.005 7.48633 150.93C7.48633 151.854 8.23815 152.604 9.16557 152.604Z" fill="white"/>
<path d="M27.0572 152.604C27.9846 152.604 28.7364 151.854 28.7364 150.93C28.7364 150.005 27.9846 149.255 27.0572 149.255C26.1298 149.255 25.3779 150.005 25.3779 150.93C25.3779 151.854 26.1298 152.604 27.0572 152.604Z" fill="white"/>
<path d="M51.678 152.604C52.6054 152.604 53.3573 151.854 53.3573 150.93C53.3573 150.005 52.6054 149.255 51.678 149.255C50.7506 149.255 49.9988 150.005 49.9988 150.93C49.9988 151.854 50.7506 152.604 51.678 152.604Z" fill="white"/>
<path d="M60.3306 152.604C61.258 152.604 62.0099 151.854 62.0099 150.93C62.0099 150.005 61.258 149.255 60.3306 149.255C59.4032 149.255 58.6514 150.005 58.6514 150.93C58.6514 151.854 59.4032 152.604 60.3306 152.604Z" fill="white"/>
<path d="M104.321 152.604C105.248 152.604 106 151.854 106 150.93C106 150.005 105.248 149.255 104.321 149.255C103.393 149.255 102.642 150.005 102.642 150.93C102.642 151.854 103.393 152.604 104.321 152.604Z" fill="white"/>
<path d="M72.3785 170.348C73.3059 170.348 74.0577 169.599 74.0577 168.674C74.0577 167.75 73.3059 167 72.3785 167C71.451 167 70.6992 167.75 70.6992 168.674C70.6992 169.599 71.451 170.348 72.3785 170.348Z" fill="white"/>
<path d="M60.3306 170.348C61.258 170.348 62.0099 169.599 62.0099 168.674C62.0099 167.75 61.258 167 60.3306 167C59.4032 167 58.6514 167.75 58.6514 168.674C58.6514 169.599 59.4032 170.348 60.3306 170.348Z" fill="white"/>
<path d="M33.7498 170.348C34.6772 170.348 35.429 169.599 35.429 168.674C35.429 167.75 34.6772 167 33.7498 167C32.8224 167 32.0706 167.75 32.0706 168.674C32.0706 169.599 32.8224 170.348 33.7498 170.348Z" fill="white"/>
<path d="M9.16557 199.202C10.093 199.202 10.8448 198.453 10.8448 197.528C10.8448 196.604 10.093 195.854 9.16557 195.854C8.23815 195.854 7.48633 196.604 7.48633 197.528C7.48633 198.453 8.23815 199.202 9.16557 199.202Z" fill="white"/>
<path d="M27.0572 199.202C27.9846 199.202 28.7364 198.453 28.7364 197.528C28.7364 196.604 27.9846 195.854 27.0572 195.854C26.1298 195.854 25.3779 196.604 25.3779 197.528C25.3779 198.453 26.1298 199.202 27.0572 199.202Z" fill="white"/>
<path d="M51.678 199.202C52.6054 199.202 53.3573 198.453 53.3573 197.528C53.3573 196.604 52.6054 195.854 51.678 195.854C50.7506 195.854 49.9988 196.604 49.9988 197.528C49.9988 198.453 50.7506 199.202 51.678 199.202Z" fill="white"/>
<path d="M60.3306 199.202C61.258 199.202 62.0099 198.453 62.0099 197.528C62.0099 196.604 61.258 195.854 60.3306 195.854C59.4032 195.854 58.6514 196.604 58.6514 197.528C58.6514 198.453 59.4032 199.202 60.3306 199.202Z" fill="white"/>
<path d="M104.321 199.202C105.248 199.202 106 198.453 106 197.528C106 196.604 105.248 195.854 104.321 195.854C103.393 195.854 102.642 196.604 102.642 197.528C102.642 198.453 103.393 199.202 104.321 199.202Z" fill="white"/>
<path d="M72.3785 217.282C73.3059 217.282 74.0577 216.532 74.0577 215.607C74.0577 214.683 73.3059 213.933 72.3785 213.933C71.451 213.933 70.6992 214.683 70.6992 215.607C70.6992 216.532 71.451 217.282 72.3785 217.282Z" fill="white"/>
<path d="M33.7498 217.282C34.6772 217.282 35.429 216.532 35.429 215.607C35.429 214.683 34.6772 213.933 33.7498 213.933C32.8224 213.933 32.0706 214.683 32.0706 215.607C32.0706 216.532 32.8224 217.282 33.7498 217.282Z" fill="white"/>
<path d="M9.16557 214.889C10.093 214.889 10.8448 214.14 10.8448 213.215C10.8448 212.291 10.093 211.541 9.16557 211.541C8.23815 211.541 7.48633 212.291 7.48633 213.215C7.48633 214.14 8.23815 214.889 9.16557 214.889Z" fill="white"/>
<path d="M9.16557 241.801C10.093 241.801 10.8448 241.052 10.8448 240.127C10.8448 239.203 10.093 238.453 9.16557 238.453C8.23815 238.453 7.48633 239.203 7.48633 240.127C7.48633 241.052 8.23815 241.801 9.16557 241.801Z" fill="white"/>
<path d="M27.0999 241.801C28.0273 241.801 28.7791 241.052 28.7791 240.127C28.7791 239.203 28.0273 238.453 27.0999 238.453C26.1725 238.453 25.4207 239.203 25.4207 240.127C25.4207 241.052 26.1725 241.801 27.0999 241.801Z" fill="white"/>
<path d="M51.678 241.801C52.6054 241.801 53.3573 241.052 53.3573 240.127C53.3573 239.203 52.6054 238.453 51.678 238.453C50.7506 238.453 49.9988 239.203 49.9988 240.127C49.9988 241.052 50.7506 241.801 51.678 241.801Z" fill="white"/>
<path d="M60.3306 241.801C61.258 241.801 62.0099 241.052 62.0099 240.127C62.0099 239.203 61.258 238.453 60.3306 238.453C59.4032 238.453 58.6514 239.203 58.6514 240.127C58.6514 241.052 59.4032 241.801 60.3306 241.801Z" fill="white"/>
<path d="M33.7498 260.094C34.6772 260.094 35.429 259.344 35.429 258.42C35.429 257.495 34.6772 256.746 33.7498 256.746C32.8224 256.746 32.0706 257.495 32.0706 258.42C32.0706 259.344 32.8224 260.094 33.7498 260.094Z" fill="white"/>
<path d="M60.3306 260.094C61.258 260.094 62.0099 259.344 62.0099 258.42C62.0099 257.495 61.258 256.746 60.3306 256.746C59.4032 256.746 58.6514 257.495 58.6514 258.42C58.6514 259.344 59.4032 260.094 60.3306 260.094Z" fill="white"/>
<path d="M72.3785 260.094C73.3059 260.094 74.0577 259.344 74.0577 258.42C74.0577 257.495 73.3059 256.746 72.3785 256.746C71.451 256.746 70.6992 257.495 70.6992 258.42C70.6992 259.344 71.451 260.094 72.3785 260.094Z" fill="white"/>
<path d="M9.16557 284.394C10.093 284.394 10.8448 283.645 10.8448 282.72C10.8448 281.796 10.093 281.046 9.16557 281.046C8.23815 281.046 7.48633 281.796 7.48633 282.72C7.48633 283.645 8.23815 284.394 9.16557 284.394Z" fill="white"/>
<path d="M27.0999 284.394C28.0273 284.394 28.7791 283.645 28.7791 282.72C28.7791 281.796 28.0273 281.046 27.0999 281.046C26.1725 281.046 25.4207 281.796 25.4207 282.72C25.4207 283.645 26.1725 284.394 27.0999 284.394Z" fill="white"/>
<path d="M51.678 284.394C52.6054 284.394 53.3573 283.645 53.3573 282.72C53.3573 281.796 52.6054 281.046 51.678 281.046C50.7506 281.046 49.9988 281.796 49.9988 282.72C49.9988 283.645 50.7506 284.394 51.678 284.394Z" fill="white"/>
<path d="M60.3306 284.394C61.258 284.394 62.0099 283.645 62.0099 282.72C62.0099 281.796 61.258 281.046 60.3306 281.046C59.4032 281.046 58.6514 281.796 58.6514 282.72C58.6514 283.645 59.4032 284.394 60.3306 284.394Z" fill="white"/>
<path d="M9.16557 300.404C10.093 300.404 10.8448 299.655 10.8448 298.73C10.8448 297.806 10.093 297.056 9.16557 297.056C8.23815 297.056 7.48633 297.806 7.48633 298.73C7.48633 299.655 8.23815 300.404 9.16557 300.404Z" fill="white"/>
<path d="M33.7498 302.078C34.6772 302.078 35.429 301.329 35.429 300.404C35.429 299.48 34.6772 298.73 33.7498 298.73C32.8224 298.73 32.0706 299.48 32.0706 300.404C32.0706 301.329 32.8224 302.078 33.7498 302.078Z" fill="white"/>
<path d="M51.678 296.113C52.6054 296.113 53.3573 295.363 53.3573 294.439C53.3573 293.514 52.6054 292.765 51.678 292.765C50.7506 292.765 49.9988 293.514 49.9988 294.439C49.9988 295.363 50.7506 296.113 51.678 296.113Z" fill="white"/>
<path d="M72.3785 303.04C73.3059 303.04 74.0577 302.29 74.0577 301.366C74.0577 300.441 73.3059 299.692 72.3785 299.692C71.451 299.692 70.6992 300.441 70.6992 301.366C70.6992 302.29 71.451 303.04 72.3785 303.04Z" fill="white"/>
<path d="M9.16557 326.988C10.093 326.988 10.8448 326.238 10.8448 325.314C10.8448 324.389 10.093 323.64 9.16557 323.64C8.23815 323.64 7.48633 324.389 7.48633 325.314C7.48633 326.238 8.23815 326.988 9.16557 326.988Z" fill="white"/>
<path d="M27.0999 326.988C28.0273 326.988 28.7791 326.238 28.7791 325.314C28.7791 324.389 28.0273 323.64 27.0999 323.64C26.1725 323.64 25.4207 324.389 25.4207 325.314C25.4207 326.238 26.1725 326.988 27.0999 326.988Z" fill="white"/>
<path d="M51.678 326.988C52.6054 326.988 53.3573 326.238 53.3573 325.314C53.3573 324.389 52.6054 323.64 51.678 323.64C50.7506 323.64 49.9988 324.389 49.9988 325.314C49.9988 326.238 50.7506 326.988 51.678 326.988Z" fill="white"/>
<path d="M60.3306 326.988C61.258 326.988 62.0099 326.238 62.0099 325.314C62.0099 324.389 61.258 323.64 60.3306 323.64C59.4032 323.64 58.6514 324.389 58.6514 325.314C58.6514 326.238 59.4032 326.988 60.3306 326.988Z" fill="white"/>
<path d="M33.7498 345.006C34.6772 345.006 35.429 344.257 35.429 343.332C35.429 342.407 34.6772 341.658 33.7498 341.658C32.8224 341.658 32.0706 342.407 32.0706 343.332C32.0706 344.257 32.8224 345.006 33.7498 345.006Z" fill="white"/>
<path d="M60.3306 345.006C61.258 345.006 62.0099 344.257 62.0099 343.332C62.0099 342.407 61.258 341.658 60.3306 341.658C59.4032 341.658 58.6514 342.407 58.6514 343.332C58.6514 344.257 59.4032 345.006 60.3306 345.006Z" fill="white"/>
<path d="M72.3785 345.006C73.3059 345.006 74.0577 344.257 74.0577 343.332C74.0577 342.407 73.3059 341.658 72.3785 341.658C71.451 341.658 70.6992 342.407 70.6992 343.332C70.6992 344.257 71.451 345.006 72.3785 345.006Z" fill="white"/>
<path d="M104.321 326.988C105.248 326.988 106 326.238 106 325.314C106 324.389 105.248 323.64 104.321 323.64C103.393 323.64 102.642 324.389 102.642 325.314C102.642 326.238 103.393 326.988 104.321 326.988Z" fill="white"/>
<path d="M104.321 284.394C105.248 284.394 106 283.645 106 282.72C106 281.796 105.248 281.046 104.321 281.046C103.393 281.046 102.642 281.796 102.642 282.72C102.642 283.645 103.393 284.394 104.321 284.394Z" fill="white"/>
<path d="M104.321 241.801C105.248 241.801 106 241.052 106 240.127C106 239.203 105.248 238.453 104.321 238.453C103.393 238.453 102.642 239.203 102.642 240.127C102.642 241.052 103.393 241.801 104.321 241.801Z" fill="white"/>
</g>
<defs>
<clipPath id="clip0">
<rect width="106" height="345" fill="white"/>
</clipPath>
</defs>
</svg>
