<svg width="345" height="106" viewBox="0 0 345 106" fill="none" xmlns="http://www.w3.org/2000/svg">
<g clip-path="url(#clip0)">
<path d="M341.652 104.321C341.652 103.393 342.401 102.642 343.326 102.642C344.251 102.642 345 103.393 345 104.321C345 105.248 344.251 106 343.326 106C342.401 106 341.652 105.248 341.652 104.321Z" fill="#C1272D"/>
<path d="M266.029 53.7602C266.029 52.8328 266.778 52.081 267.703 52.081C268.627 52.081 269.377 52.8328 269.377 53.7602C269.377 54.6876 268.627 55.4395 267.703 55.4395C266.778 55.4395 266.029 54.6876 266.029 53.7602Z" fill="#C1272D"/>
<path d="M261.719 96.8344C261.719 95.907 262.469 95.1552 263.393 95.1552C264.318 95.1552 265.067 95.907 265.067 96.8344C265.067 97.7618 264.318 98.5137 263.393 98.5137C262.469 98.5137 261.719 97.7618 261.719 96.8344Z" fill="#C1272D"/>
<path d="M235.3 96.8344C235.3 95.907 236.05 95.1552 236.974 95.1552C237.899 95.1552 238.648 95.907 238.648 96.8344C238.648 97.7618 237.899 98.5137 236.974 98.5137C236.05 98.5137 235.3 97.7618 235.3 96.8344Z" fill="#C1272D"/>
<path d="M235.3 78.9428C235.3 78.0154 236.05 77.2636 236.974 77.2636C237.899 77.2636 238.648 78.0154 238.648 78.9428C238.648 79.8702 237.899 80.6221 236.974 80.6221C236.05 80.6221 235.3 79.8702 235.3 78.9428Z" fill="#C1272D"/>
<path d="M235.3 54.322C235.3 53.3946 236.05 52.6427 236.974 52.6427C237.899 52.6427 238.648 53.3946 238.648 54.322C238.648 55.2494 237.899 56.0012 236.974 56.0012C236.05 56.0012 235.3 55.2494 235.3 54.322Z" fill="#C1272D"/>
<path d="M235.3 45.6694C235.3 44.742 236.05 43.9901 236.974 43.9901C237.899 43.9901 238.648 44.742 238.648 45.6694C238.648 46.5968 237.899 47.3486 236.974 47.3486C236.05 47.3486 235.3 46.5968 235.3 45.6694Z" fill="#C1272D"/>
<path d="M235.3 1.67928C235.3 0.751854 236.05 3.05176e-05 236.974 3.05176e-05C237.899 3.05176e-05 238.648 0.751854 238.648 1.67928C238.648 2.6067 237.899 3.35852 236.974 3.35852C236.05 3.35852 235.3 2.6067 235.3 1.67928Z" fill="#C1272D"/>
<path d="M217.062 33.6215C217.062 32.6941 217.812 31.9423 218.736 31.9423C219.661 31.9423 220.41 32.6941 220.41 33.6215C220.41 34.549 219.661 35.3008 218.736 35.3008C217.812 35.3008 217.062 34.549 217.062 33.6215Z" fill="#C1272D"/>
<path d="M217.062 45.6694C217.062 44.742 217.812 43.9901 218.736 43.9901C219.661 43.9901 220.41 44.742 220.41 45.6694C220.41 46.5968 219.661 47.3486 218.736 47.3486C217.812 47.3486 217.062 46.5968 217.062 45.6694Z" fill="#C1272D"/>
<path d="M223.454 54.322C223.454 53.3946 224.203 52.6427 225.128 52.6427C226.053 52.6427 226.802 53.3946 226.802 54.322C226.802 55.2494 226.053 56.0012 225.128 56.0012C224.203 56.0012 223.454 55.2494 223.454 54.322Z" fill="#C1272D"/>
<path d="M217.062 72.2502C217.062 71.3228 217.812 70.571 218.736 70.571C219.661 70.571 220.41 71.3228 220.41 72.2502C220.41 73.1776 219.661 73.9294 218.736 73.9294C217.812 73.9294 217.062 73.1776 217.062 72.2502Z" fill="#C1272D"/>
<path d="M218.73 96.8344C218.73 95.907 219.48 95.1552 220.404 95.1552C221.329 95.1552 222.078 95.907 222.078 96.8344C222.078 97.7618 221.329 98.5137 220.404 98.5137C219.48 98.5137 218.73 97.7618 218.73 96.8344Z" fill="#C1272D"/>
<path d="M192.397 96.8344C192.397 95.907 193.146 95.1552 194.071 95.1552C194.995 95.1552 195.745 95.907 195.745 96.8344C195.745 97.7618 194.995 98.5137 194.071 98.5137C193.146 98.5137 192.397 97.7618 192.397 96.8344Z" fill="#C1272D"/>
<path d="M192.397 78.9428C192.397 78.0154 193.146 77.2636 194.071 77.2636C194.995 77.2636 195.745 78.0154 195.745 78.9428C195.745 79.8702 194.995 80.6221 194.071 80.6221C193.146 80.6221 192.397 79.8702 192.397 78.9428Z" fill="#C1272D"/>
<path d="M192.397 54.322C192.397 53.3946 193.146 52.6427 194.071 52.6427C194.995 52.6427 195.745 53.3946 195.745 54.322C195.745 55.2494 194.995 56.0012 194.071 56.0012C193.146 56.0012 192.397 55.2494 192.397 54.322Z" fill="#C1272D"/>
<path d="M192.397 45.6694C192.397 44.742 193.146 43.9901 194.071 43.9901C194.995 43.9901 195.745 44.742 195.745 45.6694C195.745 46.5968 194.995 47.3486 194.071 47.3486C193.146 47.3486 192.397 46.5968 192.397 45.6694Z" fill="#C1272D"/>
<path d="M192.397 1.67928C192.397 0.751854 193.146 3.05176e-05 194.071 3.05176e-05C194.995 3.05176e-05 195.745 0.751854 195.745 1.67928C195.745 2.6067 194.995 3.35852 194.071 3.35852C193.146 3.35852 192.397 2.6067 192.397 1.67928Z" fill="#C1272D"/>
<path d="M174.652 33.6215C174.652 32.6941 175.401 31.9423 176.326 31.9423C177.251 31.9423 178 32.6941 178 33.6215C178 34.549 177.251 35.3008 176.326 35.3008C175.401 35.3008 174.652 34.549 174.652 33.6215Z" fill="#C1272D"/>
<path d="M174.652 45.6694C174.652 44.742 175.401 43.9901 176.326 43.9901C177.251 43.9901 178 44.742 178 45.6694C178 46.5968 177.251 47.3486 176.326 47.3486C175.401 47.3486 174.652 46.5968 174.652 45.6694Z" fill="#C1272D"/>
<path d="M174.652 72.2502C174.652 71.3228 175.401 70.571 176.326 70.571C177.251 70.571 178 71.3228 178 72.2502C178 73.1776 177.251 73.9294 176.326 73.9294C175.401 73.9294 174.652 73.1776 174.652 72.2502Z" fill="#C1272D"/>
<path d="M145.798 96.8344C145.798 95.907 146.547 95.1552 147.472 95.1552C148.397 95.1552 149.146 95.907 149.146 96.8344C149.146 97.7618 148.397 98.5137 147.472 98.5137C146.547 98.5137 145.798 97.7618 145.798 96.8344Z" fill="#C1272D"/>
<path d="M145.798 78.9428C145.798 78.0154 146.547 77.2636 147.472 77.2636C148.397 77.2636 149.146 78.0154 149.146 78.9428C149.146 79.8702 148.397 80.6221 147.472 80.6221C146.547 80.6221 145.798 79.8702 145.798 78.9428Z" fill="#C1272D"/>
<path d="M145.798 54.322C145.798 53.3946 146.547 52.6427 147.472 52.6427C148.397 52.6427 149.146 53.3946 149.146 54.322C149.146 55.2494 148.397 56.0012 147.472 56.0012C146.547 56.0012 145.798 55.2494 145.798 54.322Z" fill="#C1272D"/>
<path d="M145.798 45.6694C145.798 44.742 146.547 43.9901 147.472 43.9901C148.397 43.9901 149.146 44.742 149.146 45.6694C149.146 46.5968 148.397 47.3486 147.472 47.3486C146.547 47.3486 145.798 46.5968 145.798 45.6694Z" fill="#C1272D"/>
<path d="M145.798 1.67928C145.798 0.751854 146.547 3.05176e-05 147.472 3.05176e-05C148.397 3.05176e-05 149.146 0.751854 149.146 1.67928C149.146 2.6067 148.397 3.35852 147.472 3.35852C146.547 3.35852 145.798 2.6067 145.798 1.67928Z" fill="#C1272D"/>
<path d="M127.718 33.6215C127.718 32.6941 128.468 31.9423 129.392 31.9423C130.317 31.9423 131.066 32.6941 131.066 33.6215C131.066 34.549 130.317 35.3008 129.392 35.3008C128.468 35.3008 127.718 34.549 127.718 33.6215Z" fill="#C1272D"/>
<path d="M127.718 72.2502C127.718 71.3228 128.468 70.571 129.392 70.571C130.317 70.571 131.066 71.3228 131.066 72.2502C131.066 73.1776 130.317 73.9294 129.392 73.9294C128.468 73.9294 127.718 73.1776 127.718 72.2502Z" fill="#C1272D"/>
<path d="M130.111 96.8344C130.111 95.907 130.86 95.1552 131.785 95.1552C132.709 95.1552 133.459 95.907 133.459 96.8344C133.459 97.7618 132.709 98.5137 131.785 98.5137C130.86 98.5137 130.111 97.7618 130.111 96.8344Z" fill="#C1272D"/>
<path d="M103.199 96.8344C103.199 95.907 103.948 95.1552 104.873 95.1552C105.797 95.1552 106.547 95.907 106.547 96.8344C106.547 97.7618 105.797 98.5137 104.873 98.5137C103.948 98.5137 103.199 97.7618 103.199 96.8344Z" fill="#C1272D"/>
<path d="M103.199 78.9001C103.199 77.9727 103.948 77.2209 104.873 77.2209C105.797 77.2209 106.547 77.9727 106.547 78.9001C106.547 79.8275 105.797 80.5793 104.873 80.5793C103.948 80.5793 103.199 79.8275 103.199 78.9001Z" fill="#C1272D"/>
<path d="M103.199 54.322C103.199 53.3946 103.948 52.6427 104.873 52.6427C105.797 52.6427 106.547 53.3946 106.547 54.322C106.547 55.2494 105.797 56.0012 104.873 56.0012C103.948 56.0012 103.199 55.2494 103.199 54.322Z" fill="#C1272D"/>
<path d="M103.199 45.6694C103.199 44.742 103.948 43.9901 104.873 43.9901C105.797 43.9901 106.547 44.742 106.547 45.6694C106.547 46.5968 105.797 47.3486 104.873 47.3486C103.948 47.3486 103.199 46.5968 103.199 45.6694Z" fill="#C1272D"/>
<path d="M84.9063 72.2502C84.9063 71.3228 85.6558 70.571 86.5804 70.571C87.5049 70.571 88.2544 71.3228 88.2544 72.2502C88.2544 73.1776 87.5049 73.9294 86.5804 73.9294C85.6558 73.9294 84.9063 73.1776 84.9063 72.2502Z" fill="#C1272D"/>
<path d="M84.9063 45.6694C84.9063 44.742 85.6558 43.9901 86.5804 43.9901C87.5049 43.9901 88.2544 44.742 88.2544 45.6694C88.2544 46.5968 87.5049 47.3486 86.5804 47.3486C85.6558 47.3486 84.9063 46.5968 84.9063 45.6694Z" fill="#C1272D"/>
<path d="M84.9063 33.6215C84.9063 32.6941 85.6558 31.9423 86.5804 31.9423C87.5049 31.9423 88.2544 32.6941 88.2544 33.6215C88.2544 34.549 87.5049 35.3008 86.5804 35.3008C85.6558 35.3008 84.9063 34.549 84.9063 33.6215Z" fill="#C1272D"/>
<path d="M60.6056 96.8344C60.6056 95.907 61.3551 95.1552 62.2796 95.1552C63.2041 95.1552 63.9536 95.907 63.9536 96.8344C63.9536 97.7618 63.2041 98.5137 62.2796 98.5137C61.3551 98.5137 60.6056 97.7618 60.6056 96.8344Z" fill="#C1272D"/>
<path d="M60.6056 78.9001C60.6056 77.9727 61.3551 77.2209 62.2796 77.2209C63.2041 77.2209 63.9536 77.9727 63.9536 78.9001C63.9536 79.8275 63.2041 80.5793 62.2796 80.5793C61.3551 80.5793 60.6056 79.8275 60.6056 78.9001Z" fill="#C1272D"/>
<path d="M60.6056 54.322C60.6056 53.3946 61.3551 52.6427 62.2796 52.6427C63.2041 52.6427 63.9536 53.3946 63.9536 54.322C63.9536 55.2494 63.2041 56.0012 62.2796 56.0012C61.3551 56.0012 60.6056 55.2494 60.6056 54.322Z" fill="#C1272D"/>
<path d="M60.6056 45.6694C60.6056 44.742 61.3551 43.9901 62.2796 43.9901C63.2041 43.9901 63.9536 44.742 63.9536 45.6694C63.9536 46.5968 63.2041 47.3486 62.2796 47.3486C61.3551 47.3486 60.6056 46.5968 60.6056 45.6694Z" fill="#C1272D"/>
<path d="M44.5958 96.8344C44.5958 95.907 45.3453 95.1552 46.2698 95.1552C47.1944 95.1552 47.9438 95.907 47.9438 96.8344C47.9438 97.7618 47.1944 98.5137 46.2698 98.5137C45.3453 98.5137 44.5958 97.7618 44.5958 96.8344Z" fill="#C1272D"/>
<path d="M42.9218 72.2502C42.9218 71.3228 43.6713 70.571 44.5958 70.571C45.5203 70.571 46.2698 71.3228 46.2698 72.2502C46.2698 73.1776 45.5203 73.9294 44.5958 73.9294C43.6713 73.9294 42.9218 73.1776 42.9218 72.2502Z" fill="#C1272D"/>
<path d="M48.8873 54.322C48.8873 53.3946 49.6368 52.6427 50.5613 52.6427C51.4859 52.6427 52.2354 53.3946 52.2354 54.322C52.2354 55.2494 51.4859 56.0012 50.5613 56.0012C49.6368 56.0012 48.8873 55.2494 48.8873 54.322Z" fill="#C1272D"/>
<path d="M41.9601 33.6215C41.9601 32.6941 42.7095 31.9423 43.6341 31.9423C44.5586 31.9423 45.3081 32.6941 45.3081 33.6215C45.3081 34.549 44.5586 35.3008 43.6341 35.3008C42.7095 35.3008 41.9601 34.549 41.9601 33.6215Z" fill="#C1272D"/>
<path d="M18.0123 96.8344C18.0123 95.907 18.7618 95.1552 19.6863 95.1552C20.6109 95.1552 21.3604 95.907 21.3604 96.8344C21.3604 97.7618 20.6109 98.5137 19.6863 98.5137C18.7618 98.5137 18.0123 97.7618 18.0123 96.8344Z" fill="#C1272D"/>
<path d="M18.0123 78.9001C18.0123 77.9727 18.7618 77.2209 19.6863 77.2209C20.6109 77.2209 21.3604 77.9727 21.3604 78.9001C21.3604 79.8275 20.6109 80.5793 19.6863 80.5793C18.7618 80.5793 18.0123 79.8275 18.0123 78.9001Z" fill="#C1272D"/>
<path d="M18.0123 54.322C18.0123 53.3946 18.7618 52.6427 19.6863 52.6427C20.6109 52.6427 21.3604 53.3946 21.3604 54.322C21.3604 55.2494 20.6109 56.0012 19.6863 56.0012C18.7618 56.0012 18.0123 55.2494 18.0123 54.322Z" fill="#C1272D"/>
<path d="M18.0123 45.6694C18.0123 44.742 18.7618 43.9901 19.6863 43.9901C20.6109 43.9901 21.3604 44.742 21.3604 45.6694C21.3604 46.5968 20.6109 47.3486 19.6863 47.3486C18.7618 47.3486 18.0123 46.5968 18.0123 45.6694Z" fill="#C1272D"/>
<path d="M-0.00598121 72.2502C-0.00598121 71.3228 0.743499 70.571 1.66803 70.571C2.59256 70.571 3.34204 71.3228 3.34204 72.2502C3.34204 73.1776 2.59256 73.9294 1.66803 73.9294C0.743499 73.9294 -0.00598121 73.1776 -0.00598121 72.2502Z" fill="#C1272D"/>
<path d="M-0.00598121 45.6694C-0.00598121 44.742 0.743499 43.9901 1.66803 43.9901C2.59256 43.9901 3.34204 44.742 3.34204 45.6694C3.34204 46.5968 2.59256 47.3486 1.66803 47.3486C0.743499 47.3486 -0.00598121 46.5968 -0.00598121 45.6694Z" fill="#C1272D"/>
<path d="M-0.00598121 33.6215C-0.00598121 32.6941 0.743499 31.9423 1.66803 31.9423C2.59256 31.9423 3.34204 32.6941 3.34204 33.6215C3.34204 34.549 2.59256 35.3008 1.66803 35.3008C0.743499 35.3008 -0.00598121 34.549 -0.00598121 33.6215Z" fill="#C1272D"/>
<path d="M18.0123 1.67928C18.0123 0.751854 18.7618 3.05176e-05 19.6863 3.05176e-05C20.6109 3.05176e-05 21.3604 0.751854 21.3604 1.67928C21.3604 2.6067 20.6109 3.35852 19.6863 3.35852C18.7618 3.35852 18.0123 2.6067 18.0123 1.67928Z" fill="#C1272D"/>
<path d="M60.6056 1.67928C60.6056 0.751854 61.3551 3.05176e-05 62.2796 3.05176e-05C63.2041 3.05176e-05 63.9536 0.751854 63.9536 1.67928C63.9536 2.6067 63.2041 3.35852 62.2796 3.35852C61.3551 3.35852 60.6056 2.6067 60.6056 1.67928Z" fill="#C1272D"/>
<path d="M103.199 1.67928C103.199 0.751854 103.948 3.05176e-05 104.873 3.05176e-05C105.797 3.05176e-05 106.547 0.751854 106.547 1.67928C106.547 2.6067 105.797 3.35852 104.873 3.35852C103.948 3.35852 103.199 2.6067 103.199 1.67928Z" fill="#C1272D"/>
</g>
<defs>
<clipPath id="clip0">
<rect width="106" height="345" fill="white" transform="matrix(0 -1 -1 0 345 106)"/>
</clipPath>
</defs>
</svg>
