<svg width="100" height="100" viewBox="0 0 100 100" fill="none" xmlns="http://www.w3.org/2000/svg">
<path fill-rule="evenodd" clip-rule="evenodd" d="M72.1981 70.1114L79.6059 77.5191C80.6322 78.5455 80.6322 80.2045 79.6059 81.2309C79.094 81.7427 78.422 82 77.75 82C77.078 82 76.406 81.7427 75.8941 81.2309L68.4864 73.8231C65.9112 75.658 62.7717 76.75 59.375 76.75C50.6889 76.75 43.625 69.6861 43.625 61C43.625 52.3139 50.6889 45.25 59.375 45.25C68.0611 45.25 75.125 52.3139 75.125 61C75.125 64.3967 74.033 67.5362 72.1981 70.1114ZM59.375 50.5C53.5842 50.5 48.875 55.2093 48.875 61C48.875 66.7908 53.5842 71.5 59.375 71.5C65.1657 71.5 69.875 66.7908 69.875 61C69.875 55.2093 65.1657 50.5 59.375 50.5Z" fill="#52596B"/>
<path fill-rule="evenodd" clip-rule="evenodd" d="M53.3559 19.7691L66.4809 32.8941C66.9744 33.385 67.25 34.0518 67.25 34.75V41.5461C64.8166 40.5565 62.1601 40 59.375 40C53.0382 40 47.3604 42.835 43.5069 47.287C43.2339 46.1294 42.2416 45.25 41 45.25H33.125C31.676 45.25 30.5 46.4234 30.5 47.875C30.5 49.3266 31.676 50.5 33.125 50.5H41C41.0474 50.5 41.0908 50.4874 41.1347 50.4748C41.171 50.4643 41.2075 50.4537 41.2467 50.4501C39.4329 53.5555 38.375 57.1517 38.375 61C38.375 67.2738 41.1549 72.8991 45.5308 76.75H27.875C23.5332 76.75 20 73.2168 20 68.875V26.875C20 22.5332 23.5332 19 27.875 19H51.5C52.1956 19 52.865 19.2756 53.3559 19.7691ZM33.125 37.375H48.875C50.324 37.375 51.5 36.2016 51.5 34.75C51.5 33.2984 50.324 32.125 48.875 32.125H33.125C31.676 32.125 30.5 33.2984 30.5 34.75C30.5 36.2016 31.676 37.375 33.125 37.375Z" fill="#52596B"/>
</svg>
