<svg width="65" height="65" viewBox="0 0 65 65" fill="none" xmlns="http://www.w3.org/2000/svg">
<path d="M10.8333 14.8959C14.5728 14.8959 17.6042 11.8645 17.6042 8.12508C17.6042 4.38565 14.5728 1.35425 10.8333 1.35425C7.09391 1.35425 4.0625 4.38565 4.0625 8.12508C4.0625 11.8645 7.09391 14.8959 10.8333 14.8959Z" fill="#C1272D"/>
<path d="M60.9375 6.77091H36.5625V2.70841C36.5625 2.34927 36.4198 2.00483 36.1659 1.75087C35.9119 1.49692 35.5675 1.35425 35.2083 1.35425C34.8492 1.35425 34.5048 1.49692 34.2508 1.75087C33.9968 2.00483 33.8542 2.34927 33.8542 2.70841V6.77091H20.2042C20.4316 8.24653 20.3004 9.75521 19.8217 11.1694C19.343 12.5836 18.5308 13.8618 17.4539 14.8959H36.5625C37.9991 14.8959 39.3768 15.4666 40.3927 16.4824C41.4085 17.4982 41.9792 18.876 41.9792 20.3126C41.9792 21.7492 41.4085 23.1269 40.3927 24.1427C39.3768 25.1586 37.9991 25.7292 36.5625 25.7292H21.6667V46.0417H60.9375C61.2967 46.0417 61.6411 45.8991 61.895 45.6451C62.149 45.3912 62.2917 45.0467 62.2917 44.6876V8.12508C62.2917 7.76593 62.149 7.4215 61.895 7.16754C61.6411 6.91359 61.2967 6.77091 60.9375 6.77091Z" fill="#C1272D"/>
<path d="M39.2708 20.3126C39.2708 19.5943 38.9854 18.9054 38.4775 18.3975C37.9696 17.8896 37.2807 17.6042 36.5624 17.6042H9.47909C7.68401 17.6064 5.96307 18.3204 4.69376 19.5898C3.42445 20.8591 2.7104 22.58 2.70825 24.3751V60.2605C2.70825 61.1584 3.06493 62.0195 3.69982 62.6544C4.33471 63.2892 5.1958 63.6459 6.09367 63.6459C6.99154 63.6459 7.85263 63.2892 8.48752 62.6544C9.12241 62.0195 9.47909 61.1584 9.47909 60.2605V43.3334H12.1874V60.2605C12.1874 61.1584 12.5441 62.0195 13.179 62.6544C13.8139 63.2892 14.675 63.6459 15.5728 63.6459C16.4707 63.6459 17.3318 63.2892 17.9667 62.6544C18.6016 62.0195 18.9583 61.1584 18.9583 60.2605V23.0209H36.5624C37.2807 23.0209 37.9696 22.7356 38.4775 22.2277C38.9854 21.7198 39.2708 21.0309 39.2708 20.3126Z" fill="#C1272D"/>
<path d="M45.7707 48.75H42.8281L48.8596 62.8252C48.964 63.0687 49.1375 63.2763 49.3587 63.4222C49.58 63.568 49.8391 63.6458 50.1041 63.6458C50.2876 63.6466 50.4693 63.6092 50.6376 63.5361C50.9676 63.3946 51.2279 63.1278 51.3613 62.7944C51.4946 62.4609 51.49 62.0882 51.3485 61.7581L45.7707 48.75Z" fill="#C1272D"/>
</svg>
