<svg width="65" height="65" viewBox="0 0 65 65" fill="none" xmlns="http://www.w3.org/2000/svg">
<path d="M41.979 2.14771V14.8958C41.979 15.6141 42.2643 16.303 42.7723 16.8109C43.2802 17.3188 43.969 17.6042 44.6873 17.6042H57.4355L41.979 2.14771Z" fill="#C1272D"/>
<path d="M62.8521 59.0227L54.998 51.1685C56.6004 48.6239 57.2091 45.5781 56.7077 42.6131C56.2062 39.6481 54.6298 36.9719 52.2797 35.0958C49.9296 33.2197 46.9706 32.2753 43.9682 32.4431C40.9658 32.611 38.1305 33.8793 36.0042 36.0056C33.8778 38.132 32.6095 40.9673 32.4417 43.9697C32.2738 46.9721 33.2182 49.9311 35.0943 52.2812C36.9704 54.6313 39.6467 56.2077 42.6117 56.7091C45.5767 57.2106 48.6225 56.6019 51.167 54.9994L59.0212 62.8536C59.532 63.347 60.2161 63.6199 60.9262 63.6138C61.6364 63.6076 62.3156 63.3228 62.8178 62.8206C63.3199 62.3185 63.6048 61.6392 63.6109 60.9291C63.6171 60.2189 63.3441 59.5348 62.8508 59.024L62.8521 59.0227ZM35.2082 44.6875C35.2082 42.8127 35.7641 40.98 36.8057 39.4211C37.8473 37.8623 39.3277 36.6473 41.0598 35.9298C42.7919 35.2124 44.6979 35.0247 46.5366 35.3904C48.3754 35.7562 50.0644 36.659 51.3901 37.9847C52.7158 39.3104 53.6186 40.9994 53.9844 42.8382C54.3501 44.6769 54.1624 46.5829 53.445 48.315C52.7275 50.0471 51.5125 51.5275 49.9537 52.5691C48.3948 53.6107 46.5621 54.1666 44.6873 54.1666C42.1743 54.1634 39.7651 53.1637 37.9881 51.3867C36.2111 49.6097 35.2114 47.2005 35.2082 44.6875Z" fill="#C1272D"/>
<path d="M50.6458 58.3037C48.7706 59.1411 46.741 59.577 44.6874 59.5834C41.6921 59.5786 38.7678 58.6717 36.2953 56.9809C33.8229 55.2901 31.9171 52.8938 30.8262 50.1043H18.9583C18.5991 50.1043 18.2547 49.9616 18.0007 49.7076C17.7468 49.4537 17.6041 49.1092 17.6041 48.7501C17.6041 48.3909 17.7468 48.0465 18.0007 47.7925C18.2547 47.5386 18.5991 47.3959 18.9583 47.3959H30.0502C29.3356 43.6404 30.1128 39.7543 32.2169 36.5626H18.9583C18.5991 36.5626 18.2547 36.4199 18.0007 36.166C17.7468 35.912 17.6041 35.5676 17.6041 35.2084C17.6041 34.8493 17.7468 34.5048 18.0007 34.2509C18.2547 33.9969 18.5991 33.8542 18.9583 33.8542H34.496C36.215 32.2277 38.298 31.0355 40.5712 30.3772C42.8445 29.719 45.2422 29.6136 47.5644 30.0699C49.8866 30.5263 52.0661 31.5311 53.9213 33.0006C55.7764 34.4702 57.2534 36.3619 58.2291 38.518V20.3126H43.3333C42.2558 20.3126 41.2225 19.8846 40.4606 19.1227C39.6988 18.3608 39.2708 17.3275 39.2708 16.2501V1.35425H9.47909C8.76079 1.35425 8.07192 1.63959 7.564 2.1475C7.05609 2.65541 6.77075 3.34429 6.77075 4.06258V60.9376C6.77075 61.6559 7.05609 62.3448 7.564 62.8527C8.07192 63.3606 8.76079 63.6459 9.47909 63.6459H55.5208C55.6642 63.645 55.8073 63.6323 55.9487 63.608L50.6458 58.3037ZM18.9583 20.3126H29.7916C30.1507 20.3126 30.4952 20.4553 30.7491 20.7092C31.0031 20.9632 31.1458 21.3076 31.1458 21.6667C31.1458 22.0259 31.0031 22.3703 30.7491 22.6243C30.4952 22.8782 30.1507 23.0209 29.7916 23.0209H18.9583C18.5991 23.0209 18.2547 22.8782 18.0007 22.6243C17.7468 22.3703 17.6041 22.0259 17.6041 21.6667C17.6041 21.3076 17.7468 20.9632 18.0007 20.7092C18.2547 20.4553 18.5991 20.3126 18.9583 20.3126Z" fill="#C1272D"/>
</svg>
