<svg width="100" height="100" viewBox="0 0 100 100" fill="none" xmlns="http://www.w3.org/2000/svg">
<path d="M49.5 18C32.1304 18 18 32.1304 18 49.5C18 50.9516 19.1734 52.125 20.625 52.125C22.0766 52.125 23.25 50.9516 23.25 49.5C23.25 47.3291 25.3106 45.5625 27.8438 45.5625C30.3769 45.5625 32.4375 47.3291 32.4375 49.5C32.4375 50.9516 33.6109 52.125 35.0625 52.125C36.5141 52.125 37.6875 50.9516 37.6875 49.5C37.6875 47.3291 39.7481 45.5625 42.2812 45.5625C44.8144 45.5625 46.875 47.3291 46.875 49.5V73.125C46.875 74.574 45.699 75.75 44.25 75.75C42.801 75.75 41.625 74.574 41.625 73.125C41.625 71.6734 40.4516 70.5 39 70.5C37.5484 70.5 36.375 71.6734 36.375 73.125C36.375 77.4668 39.9082 81 44.25 81C48.5918 81 52.125 77.4668 52.125 73.125V49.5C52.125 47.3291 54.1856 45.5625 56.7188 45.5625C59.2519 45.5625 61.3125 47.3291 61.3125 49.5C61.3125 50.9516 62.4859 52.125 63.9375 52.125C65.3891 52.125 66.5625 50.9516 66.5625 49.5C66.5625 47.3291 68.6231 45.5625 71.1562 45.5625C73.6894 45.5625 75.75 47.3291 75.75 49.5C75.75 50.9516 76.9234 52.125 78.375 52.125C79.8266 52.125 81 50.9516 81 49.5C81 32.1304 66.8696 18 49.5 18Z" fill="#C1272D"/>
</svg>
