<svg width="65" height="65" viewBox="0 0 65 65" fill="none" xmlns="http://www.w3.org/2000/svg">
<g clip-path="url(#clip0)">
<path d="M15.2642 8.84739L17.179 10.7622C19.1909 8.75012 21.5795 7.15407 24.2083 6.06515C26.8371 4.97623 29.6546 4.41576 32.5 4.41576C35.3454 4.41576 38.1629 4.97623 40.7917 6.06515C43.4205 7.15407 45.8091 8.75012 47.821 10.7622L49.7358 8.84739C47.4724 6.58393 44.7853 4.78845 41.828 3.56347C38.8706 2.3385 35.701 1.70801 32.5 1.70801C29.299 1.70801 26.1293 2.3385 23.172 3.56347C20.2147 4.78845 17.5276 6.58393 15.2642 8.84739Z" fill="#52596B"/>
<path d="M32.5001 12.5415C30.7215 12.5392 28.9599 12.8884 27.3166 13.5691C25.6734 14.2497 24.1808 15.2485 22.9248 16.5079L24.8396 18.4227C25.8456 17.4166 27.0399 16.6186 28.3542 16.0741C29.6686 15.5297 31.0774 15.2495 32.5001 15.2495C33.9228 15.2495 35.3316 15.5297 36.646 16.0741C37.9604 16.6186 39.1547 17.4166 40.1606 18.4227L42.0754 16.5079C40.8194 15.2485 39.3269 14.2497 37.6836 13.5691C36.0404 12.8884 34.2788 12.5392 32.5001 12.5415Z" fill="#52596B"/>
<path d="M41.9794 50.4582V46.0179L38.8431 44.9711C38.6654 44.9115 38.5019 44.8157 38.3632 44.6896C38.2244 44.5636 38.1133 44.4101 38.0369 44.2389C37.9605 44.0677 37.9205 43.8825 37.9195 43.695C37.9184 43.5075 37.9562 43.3218 38.0306 43.1498L41.9794 34.0362V31.4999C41.9707 28.8403 42.5668 26.2136 43.7224 23.8182C44.878 21.4228 46.5631 19.3214 48.6501 17.6729C50.7372 16.0244 53.1716 14.8719 55.7695 14.3024C58.3674 13.733 61.0608 13.7615 63.6461 14.3859V62.6457H52.8127V55.8749H47.3961C45.9595 55.8749 44.5817 55.3042 43.5659 54.2884C42.5501 53.2725 41.9794 51.8948 41.9794 50.4582Z" fill="#52596B"/>
<path d="M23.0209 50.4583V46.0179L26.1572 44.9712C26.3349 44.9116 26.4984 44.8157 26.6371 44.6897C26.7759 44.5636 26.887 44.4101 26.9634 44.2389C27.0398 44.0677 27.0798 43.8825 27.0809 43.695C27.0819 43.5076 27.0441 43.3219 26.9697 43.1498L23.0209 34.0363V31.4999C23.0209 26.831 21.1662 22.3533 17.8648 19.0519C14.5634 15.7505 10.0857 13.8958 5.41675 13.8958C4.04814 13.9009 2.68479 14.0654 1.35425 14.386V62.6458H12.1876V55.8749H17.6042C19.0408 55.8749 20.4186 55.3042 21.4344 54.2884C22.4502 53.2726 23.0209 51.8948 23.0209 50.4583Z" fill="#52596B"/>
<path d="M32.5001 28.7917C33.9959 28.7917 35.2084 27.5791 35.2084 26.0833C35.2084 24.5876 33.9959 23.375 32.5001 23.375C31.0043 23.375 29.7917 24.5876 29.7917 26.0833C29.7917 27.5791 31.0043 28.7917 32.5001 28.7917Z" fill="#52596B"/>
</g>
<defs>
<clipPath id="clip0">
<rect width="65" height="65" fill="white"/>
</clipPath>
</defs>
</svg>
