<svg width="63" height="63" viewBox="0 0 63 63" fill="none" xmlns="http://www.w3.org/2000/svg">
<path d="M31.5 0C14.1304 0 0 14.1304 0 31.5C0 32.9516 1.17338 34.125 2.625 34.125C4.07662 34.125 5.25 32.9516 5.25 31.5C5.25 29.3291 7.31063 27.5625 9.84375 27.5625C12.3769 27.5625 14.4375 29.3291 14.4375 31.5C14.4375 32.9516 15.6109 34.125 17.0625 34.125C18.5141 34.125 19.6875 32.9516 19.6875 31.5C19.6875 29.3291 21.7481 27.5625 24.2812 27.5625C26.8144 27.5625 28.875 29.3291 28.875 31.5V55.125C28.875 56.574 27.699 57.75 26.25 57.75C24.801 57.75 23.625 56.574 23.625 55.125C23.625 53.6734 22.4516 52.5 21 52.5C19.5484 52.5 18.375 53.6734 18.375 55.125C18.375 59.4668 21.9083 63 26.25 63C30.5917 63 34.125 59.4668 34.125 55.125V31.5C34.125 29.3291 36.1856 27.5625 38.7188 27.5625C41.2519 27.5625 43.3125 29.3291 43.3125 31.5C43.3125 32.9516 44.4859 34.125 45.9375 34.125C47.3891 34.125 48.5625 32.9516 48.5625 31.5C48.5625 29.3291 50.6231 27.5625 53.1562 27.5625C55.6894 27.5625 57.75 29.3291 57.75 31.5C57.75 32.9516 58.9234 34.125 60.375 34.125C61.8266 34.125 63 32.9516 63 31.5C63 14.1304 48.8696 0 31.5 0Z" fill="#52596B"/>
</svg>
