<svg width="66" height="65" viewBox="0 0 66 65" fill="none" xmlns="http://www.w3.org/2000/svg">
<path d="M7.08333 61.3364H5.66667V41.6571C5.66667 41.2556 5.51741 40.8706 5.25173 40.5867C4.98606 40.3028 4.62572 40.1433 4.25 40.1433C3.87428 40.1433 3.51394 40.3028 3.24827 40.5867C2.98259 40.8706 2.83333 41.2556 2.83333 41.6571V61.3364H1.41667C1.04094 61.3364 0.680609 61.4959 0.414932 61.7798C0.149255 62.0637 0 62.4487 0 62.8502C0 63.2517 0.149255 63.6367 0.414932 63.9206C0.680609 64.2045 1.04094 64.364 1.41667 64.364H7.08333C7.45906 64.364 7.81939 64.2045 8.08507 63.9206C8.35074 63.6367 8.5 63.2517 8.5 62.8502C8.5 62.4487 8.35074 62.0637 8.08507 61.7798C7.81939 61.4959 7.45906 61.3364 7.08333 61.3364Z" fill="white"/>
<path d="M35.4166 61.3364H34V41.6571C34 41.2556 33.8507 40.8706 33.5851 40.5867C33.3194 40.3028 32.959 40.1433 32.5833 40.1433C32.2076 40.1433 31.8473 40.3028 31.5816 40.5867C31.3159 40.8706 31.1667 41.2556 31.1667 41.6571V44.0565C28.1107 46.9805 24.2501 48.7675 20.1636 49.1496C16.0771 49.5317 11.9848 48.4883 8.5 46.1758V49.6409C12.0588 51.6124 16.0573 52.4974 20.0562 52.1985C24.055 51.8997 27.8994 50.4286 31.1667 47.9469V61.3364H29.75C29.3743 61.3364 29.0139 61.4959 28.7483 61.7798C28.4826 62.0637 28.3333 62.4487 28.3333 62.8502C28.3333 63.2517 28.4826 63.6367 28.7483 63.9206C29.0139 64.2045 29.3743 64.364 29.75 64.364H35.4166C35.7924 64.364 36.1527 64.2045 36.4184 63.9206C36.6841 63.6367 36.8333 63.2517 36.8333 62.8502C36.8333 62.4487 36.6841 62.0637 36.4184 61.7798C36.1527 61.4959 35.7924 61.3364 35.4166 61.3364Z" fill="white"/>
<path d="M63.7499 61.3364H62.3332V41.6571C62.3332 41.2556 62.184 40.8706 61.9183 40.5867C61.6526 40.3028 61.2923 40.1433 60.9166 40.1433C60.5408 40.1433 60.1805 40.3028 59.9148 40.5867C59.6492 40.8706 59.4999 41.2556 59.4999 41.6571V44.0565C56.4439 46.9805 52.5834 48.7675 48.4969 49.1496C44.4104 49.5317 40.318 48.4883 36.8333 46.1758V49.6575C40.395 51.6262 44.3963 52.5054 48.396 52.1983C52.3957 51.8911 56.2383 50.4094 59.4999 47.9166V61.3364H58.0832C57.7075 61.3364 57.3472 61.4959 57.0815 61.7798C56.8158 62.0637 56.6666 62.4487 56.6666 62.8502C56.6666 63.2517 56.8158 63.6367 57.0815 63.9206C57.3472 64.2045 57.7075 64.364 58.0832 64.364H63.7499C64.1256 64.364 64.486 64.2045 64.7516 63.9206C65.0173 63.6367 65.1666 63.2517 65.1666 62.8502C65.1666 62.4487 65.0173 62.0637 64.7516 61.7798C64.486 61.4959 64.1256 61.3364 63.7499 61.3364Z" fill="white"/>
<path d="M48.1667 6.83936H17V28.0325H48.1667V6.83936Z" fill="white"/>
<path d="M52.4166 0.784668H12.7499C12.3742 0.784668 12.0139 0.944159 11.7482 1.22805C11.4825 1.51195 11.3333 1.897 11.3333 2.29848V32.5748C11.3333 32.9763 11.4825 33.3613 11.7482 33.6452C12.0139 33.9291 12.3742 34.0886 12.7499 34.0886H52.4166C52.7924 34.0886 53.1527 33.9291 53.4184 33.6452C53.6841 33.3613 53.8333 32.9763 53.8333 32.5748V2.29848C53.8333 1.897 53.6841 1.51195 53.4184 1.22805C53.1527 0.944159 52.7924 0.784668 52.4166 0.784668ZM51 31.061H14.1666V3.8123H51V31.061Z" fill="white"/>
</svg>
