<svg width="68" height="68" viewBox="0 0 68 68" fill="none" xmlns="http://www.w3.org/2000/svg">
<g clip-path="url(#clip0)">
<path d="M28.5 11.25H10.0833C9.33189 11.25 8.61122 11.5485 8.07986 12.0799C7.54851 12.6112 7.25 13.3319 7.25 14.0833V32.5C7.25 33.2514 7.54851 33.9721 8.07986 34.5035C8.61122 35.0348 9.33189 35.3333 10.0833 35.3333H28.5C29.2514 35.3333 29.9721 35.0348 30.5035 34.5035C31.0348 33.9721 31.3333 33.2514 31.3333 32.5V14.0833C31.3333 13.3319 31.0348 12.6112 30.5035 12.0799C29.9721 11.5485 29.2514 11.25 28.5 11.25Z" fill="white"/>
<path d="M45.5 70.7503H63.9166C64.6681 70.7503 65.3887 70.4518 65.9201 69.9205C66.4515 69.3891 66.75 68.6684 66.75 67.917V49.5003C66.75 48.7489 66.4515 48.0282 65.9201 47.4969C65.3887 46.9655 64.6681 46.667 63.9166 46.667H45.5C44.7485 46.667 44.0278 46.9655 43.4965 47.4969C42.9651 48.0282 42.6666 48.7489 42.6666 49.5003V67.917C42.6666 68.6684 42.9651 69.3891 43.4965 69.9205C44.0278 70.4518 44.7485 70.7503 45.5 70.7503Z" fill="white"/>
<path d="M28.5 46.667H10.0833C9.33189 46.667 8.61122 46.9655 8.07986 47.4969C7.54851 48.0282 7.25 48.7489 7.25 49.5003V67.917C7.25 68.6684 7.54851 69.3891 8.07986 69.9205C8.61122 70.4518 9.33189 70.7503 10.0833 70.7503H28.5C29.2514 70.7503 29.9721 70.4518 30.5035 69.9205C31.0348 69.3891 31.3333 68.6684 31.3333 67.917V49.5003C31.3333 48.7489 31.0348 48.0282 30.5035 47.4969C29.9721 46.9655 29.2514 46.667 28.5 46.667Z" fill="white"/>
<path d="M50.328 28.6554L43.375 21.7038L40.3702 24.7085L48.9552 33.295C49.1527 33.4923 49.387 33.6487 49.6449 33.7554C49.9028 33.8621 50.1792 33.917 50.4583 33.9169H50.5462C50.84 33.9042 51.1281 33.8309 51.3924 33.7017C51.6566 33.5725 51.8913 33.3902 52.0818 33.166L69.0365 13.1259L65.7923 10.3804L50.328 28.6554Z" fill="white"/>
</g>
<defs>
<clipPath id="clip0">
<rect width="68" height="68" fill="white"/>
</clipPath>
</defs>
</svg>
