<svg width="68" height="68" viewBox="0 0 68 68" fill="none" xmlns="http://www.w3.org/2000/svg">
<g clip-path="url(#clip0)">
<path d="M26.9167 32.9998H41.0834C49.5834 32.9998 57.0917 37.6748 60.9167 44.7582V30.1665C60.9167 20.5332 53.4084 12.5998 43.9167 11.8915V10.3332C43.9167 4.80817 39.525 0.416504 34 0.416504C28.475 0.416504 24.0834 4.80817 24.0834 10.3332V11.8915C14.5917 12.5998 7.08337 20.5332 7.08337 30.1665V44.7582C10.9084 37.6748 18.4167 32.9998 26.9167 32.9998ZM26.9167 10.3332C26.9167 6.3665 30.0334 3.24984 34 3.24984C37.9667 3.24984 41.0834 6.3665 41.0834 10.3332V11.7498H26.9167V10.3332Z" fill="white"/>
<path d="M41.0834 35.833H26.9167C16.0084 35.833 7.08337 44.758 7.08337 55.6663V64.1663C7.08337 65.0163 7.65004 65.583 8.50004 65.583H59.5C60.35 65.583 60.9167 65.0163 60.9167 64.1663V55.6663C60.9167 44.758 51.9917 35.833 41.0834 35.833ZM43.9167 55.6663C43.9167 56.5163 43.35 57.083 42.5 57.083H25.5C24.65 57.083 24.0834 56.5163 24.0834 55.6663V47.1663C24.0834 46.3163 24.65 45.7497 25.5 45.7497H42.5C43.35 45.7497 43.9167 46.3163 43.9167 47.1663V55.6663Z" fill="white"/>
</g>
<defs>
<clipPath id="clip0">
<rect width="68" height="68" fill="white"/>
</clipPath>
</defs>
</svg>
