<svg width="74" height="82" viewBox="0 0 74 82" fill="none" xmlns="http://www.w3.org/2000/svg">
<path d="M62 59C60.22 59 58.4799 59.5278 56.9999 60.5168C55.5198 61.5057 54.3663 62.9113 53.6851 64.5558C53.0039 66.2004 52.8257 68.01 53.1729 69.7558C53.5202 71.5016 54.3774 73.1053 55.636 74.364C56.8947 75.6226 58.4984 76.4798 60.2442 76.8271C61.99 77.1743 63.7996 76.9961 65.4442 76.3149C67.0887 75.6337 68.4943 74.4802 69.4832 73.0001C70.4722 71.5201 71 69.78 71 68C71 65.6131 70.0518 63.3239 68.364 61.636C66.6761 59.9482 64.387 59 62 59ZM66 69H63V72C63 72.2652 62.8946 72.5196 62.7071 72.7071C62.5196 72.8946 62.2652 73 62 73C61.7348 73 61.4804 72.8946 61.2929 72.7071C61.1054 72.5196 61 72.2652 61 72V69H58C57.7348 69 57.4804 68.8946 57.2929 68.7071C57.1054 68.5196 57 68.2652 57 68C57 67.7348 57.1054 67.4804 57.2929 67.2929C57.4804 67.1054 57.7348 67 58 67H61V64C61 63.7348 61.1054 63.4804 61.2929 63.2929C61.4804 63.1054 61.7348 63 62 63C62.2652 63 62.5196 63.1054 62.7071 63.2929C62.8946 63.4804 63 63.7348 63 64V67H66C66.2652 67 66.5196 67.1054 66.7071 67.2929C66.8946 67.4804 67 67.7348 67 68C67 68.2652 66.8946 68.5196 66.7071 68.7071C66.5196 68.8946 66.2652 69 66 69Z" fill="white"/>
<path d="M58.0834 1.41675H9.91671C9.16526 1.41675 8.44459 1.71526 7.91324 2.24661C7.38188 2.77797 7.08337 3.49863 7.08337 4.25008V63.7501C7.08337 64.5015 7.38188 65.2222 7.91324 65.7536C8.44459 66.2849 9.16526 66.5834 9.91671 66.5834H58.0834C58.8348 66.5834 59.5555 66.2849 60.0868 65.7536C60.6182 65.2222 60.9167 64.5015 60.9167 63.7501V4.25008C60.9167 3.49863 60.6182 2.77797 60.0868 2.24661C59.5555 1.71526 58.8348 1.41675 58.0834 1.41675ZM22.7404 33.5524C22.8102 33.344 22.927 33.1545 23.0818 32.9985L38.6651 17.4152C38.9308 17.1496 39.2911 17.0004 39.6667 17.0004C40.0424 17.0004 40.4026 17.1496 40.6683 17.4152L46.335 23.0818C46.6005 23.3475 46.7497 23.7078 46.7497 24.0834C46.7497 24.4591 46.6005 24.8193 46.335 25.085L30.7516 40.6683C30.5961 40.8241 30.4065 40.9415 30.1977 41.0112L19.8334 43.9168L22.7404 33.5524ZM48.1667 51.0001H19.8334C19.4577 51.0001 19.0973 50.8508 18.8316 50.5852C18.566 50.3195 18.4167 49.9591 18.4167 49.5834C18.4167 49.2077 18.566 48.8474 18.8316 48.5817C19.0973 48.316 19.4577 48.1668 19.8334 48.1668H48.1667C48.5424 48.1668 48.9028 48.316 49.1684 48.5817C49.4341 48.8474 49.5834 49.2077 49.5834 49.5834C49.5834 49.9591 49.4341 50.3195 49.1684 50.5852C48.9028 50.8508 48.5424 51.0001 48.1667 51.0001Z" fill="white"/>
</svg>
