<svg width="68" height="68" viewBox="0 0 68 68" fill="none" xmlns="http://www.w3.org/2000/svg">
<path d="M7.79175 22.6665C6.5309 22.6665 5.29835 22.2926 4.24999 21.5921C3.20163 20.8916 2.38453 19.896 1.90202 18.7311C1.41951 17.5662 1.29326 16.2844 1.53924 15.0478C1.78523 13.8112 2.39239 12.6753 3.28395 11.7837C4.1755 10.8921 5.31142 10.285 6.54805 10.039C7.78468 9.79302 9.06648 9.91927 10.2314 10.4018C11.3962 10.8843 12.3919 11.7014 13.0924 12.7497C13.7929 13.7981 14.1668 15.0307 14.1668 16.2915C14.1668 17.1287 14.0019 17.9577 13.6815 18.7311C13.3611 19.5046 12.8915 20.2073 12.2996 20.7993C11.7076 21.3913 11.0048 21.8609 10.2314 22.1812C9.45791 22.5016 8.62893 22.6665 7.79175 22.6665Z" fill="white"/>
<path d="M7.79175 40.375C6.5309 40.375 5.29835 40.0011 4.24999 39.3006C3.20163 38.6001 2.38453 37.6045 1.90202 36.4396C1.41951 35.2747 1.29326 33.9929 1.53924 32.7563C1.78523 31.5197 2.39239 30.3838 3.28395 29.4922C4.1755 28.6006 5.31142 27.9935 6.54805 27.7475C7.78468 27.5015 9.06648 27.6278 10.2314 28.1103C11.3962 28.5928 12.3919 29.4099 13.0924 30.4582C13.7929 31.5066 14.1668 32.7391 14.1668 34C14.1668 34.8372 14.0019 35.6662 13.6815 36.4396C13.3611 37.2131 12.8915 37.9158 12.2996 38.5078C11.7076 39.0998 11.0048 39.5694 10.2314 39.8897C9.45791 40.2101 8.62893 40.375 7.79175 40.375Z" fill="white"/>
<path d="M7.79175 58.0833C6.5309 58.0833 5.29835 57.7094 4.24999 57.0089C3.20163 56.3084 2.38453 55.3127 1.90202 54.1479C1.41951 52.983 1.29326 51.7012 1.53924 50.4646C1.78523 49.2279 2.39239 48.092 3.28395 47.2004C4.1755 46.3089 5.31142 45.7017 6.54805 45.4557C7.78468 45.2098 9.06648 45.336 10.2314 45.8185C11.3962 46.301 12.3919 47.1181 13.0924 48.1665C13.7929 49.2149 14.1668 50.4474 14.1668 51.7083C14.1668 52.5454 14.0019 53.3744 13.6815 54.1479C13.3611 54.9213 12.8915 55.6241 12.2996 56.2161C11.7076 56.808 11.0048 57.2776 10.2314 57.598C9.45791 57.9184 8.62893 58.0833 7.79175 58.0833Z" fill="white"/>
<path d="M60.2085 22.6665C58.9476 22.6665 57.7151 22.2926 56.6667 21.5921C55.6184 20.8916 54.8013 19.896 54.3188 18.7311C53.8363 17.5662 53.71 16.2844 53.956 15.0478C54.202 13.8112 54.8091 12.6753 55.7007 11.7837C56.5923 10.8921 57.7282 10.285 58.9648 10.039C60.2014 9.79302 61.4832 9.91927 62.6481 10.4018C63.813 10.8843 64.8086 11.7014 65.5091 12.7497C66.2096 13.7981 66.5835 15.0307 66.5835 16.2915C66.5835 17.9823 65.9118 19.6038 64.7163 20.7993C63.5208 21.9949 61.8993 22.6665 60.2085 22.6665Z" fill="white"/>
<path d="M60.2085 40.375C58.9476 40.375 57.7151 40.0011 56.6667 39.3006C55.6184 38.6001 54.8013 37.6045 54.3188 36.4396C53.8363 35.2747 53.71 33.9929 53.956 32.7563C54.202 31.5197 54.8091 30.3838 55.7007 29.4922C56.5923 28.6006 57.7282 27.9935 58.9648 27.7475C60.2014 27.5015 61.4832 27.6278 62.6481 28.1103C63.813 28.5928 64.8086 29.4099 65.5091 30.4582C66.2096 31.5066 66.5835 32.7391 66.5835 34C66.5835 35.6908 65.9118 37.3123 64.7163 38.5078C63.5208 39.7034 61.8993 40.375 60.2085 40.375Z" fill="white"/>
<path d="M60.2085 58.0833C58.9476 58.0833 57.7151 57.7094 56.6667 57.0089C55.6184 56.3084 54.8013 55.3127 54.3188 54.1479C53.8363 52.983 53.71 51.7012 53.956 50.4646C54.202 49.2279 54.8091 48.092 55.7007 47.2004C56.5923 46.3089 57.7282 45.7017 58.9648 45.4557C60.2014 45.2098 61.4832 45.336 62.6481 45.8185C63.813 46.301 64.8086 47.1181 65.5091 48.1665C66.2096 49.2149 66.5835 50.4474 66.5835 51.7083C66.5835 53.399 65.9118 55.0205 64.7163 56.2161C63.5208 57.4116 61.8993 58.0833 60.2085 58.0833Z" fill="white"/>
<path d="M45.3334 7.08325H22.6667C21.5396 7.08325 20.4586 7.53102 19.6615 8.32805C18.8645 9.12508 18.4167 10.2061 18.4167 11.3333V56.6666C18.4167 57.7938 18.8645 58.8748 19.6615 59.6718C20.4586 60.4688 21.5396 60.9166 22.6667 60.9166H45.3334C46.4606 60.9166 47.5416 60.4688 48.3386 59.6718C49.1356 58.8748 49.5834 57.7938 49.5834 56.6666V11.3333C49.5834 10.2061 49.1356 9.12508 48.3386 8.32805C47.5416 7.53102 46.4606 7.08325 45.3334 7.08325ZM36.8334 38.2499C36.8334 38.6256 36.6842 38.986 36.4185 39.2517C36.1528 39.5173 35.7925 39.6666 35.4167 39.6666H32.5834C32.2077 39.6666 31.8474 39.5173 31.5817 39.2517C31.316 38.986 31.1667 38.6256 31.1667 38.2499V31.1666C31.1667 30.7909 31.316 30.4305 31.5817 30.1648C31.8474 29.8992 32.2077 29.7499 32.5834 29.7499H35.4167C35.7925 29.7499 36.1528 29.8992 36.4185 30.1648C36.6842 30.4305 36.8334 30.7909 36.8334 31.1666V38.2499Z" fill="white"/>
</svg>
