<svg width="68" height="68" viewBox="0 0 68 68" fill="none" xmlns="http://www.w3.org/2000/svg">
<path d="M34 32.5833C36.3472 32.5833 38.25 30.6805 38.25 28.3333C38.25 25.986 36.3472 24.0833 34 24.0833C31.6528 24.0833 29.75 25.986 29.75 28.3333C29.75 30.6805 31.6528 32.5833 34 32.5833Z" fill="white"/>
<path d="M34 4.25C17.8075 4.25 1.41663 7.65 1.41663 14.1667V53.6789C1.41663 56.6142 4.62113 59.0311 10.9395 60.8614C11.1505 60.9225 11.3729 60.9337 11.589 60.894C11.8052 60.8543 12.0091 60.7649 12.1847 60.6329C12.3603 60.5008 12.5028 60.3297 12.6009 60.1331C12.699 59.9365 12.7501 59.7197 12.75 59.5V49.1059C19.7108 47.4572 26.8471 46.666 34 46.75C41.1529 46.666 48.2892 47.4572 55.25 49.1059V59.5C55.25 59.8757 55.3992 60.2361 55.6649 60.5017C55.9306 60.7674 56.2909 60.9167 56.6666 60.9167C56.7998 60.9166 56.9324 60.898 57.0605 60.8614C63.3788 59.0311 66.5833 56.6114 66.5833 53.6789V14.1667C66.5833 7.65 50.1925 4.25 34 4.25ZM56.2728 18.4719C55.9778 18.5573 55.7185 18.7362 55.534 18.9818C55.3495 19.2273 55.2498 19.5262 55.25 19.8333V46.1833C48.2801 44.5964 41.1477 43.8356 34 43.9167C26.8522 43.8356 19.7198 44.5964 12.75 46.1833V19.9878C12.7501 19.6806 12.6504 19.3818 12.4659 19.1362C12.2814 18.8907 12.0222 18.7117 11.7271 18.6263C6.20779 17.0297 4.24996 15.2263 4.24996 14.1667C4.24996 11.2781 15.8397 7.08333 34 7.08333C52.1602 7.08333 63.75 11.2781 63.75 14.1667C63.75 15.2008 61.785 16.8767 56.2728 18.4719Z" fill="white"/>
<path d="M49.3453 27.5472C49.0959 27.176 43.153 18.4167 33.9999 18.4167C24.8468 18.4167 18.9039 27.176 18.6546 27.5472C18.4993 27.78 18.4164 28.0536 18.4164 28.3334C18.4164 28.6133 18.4993 28.8869 18.6546 29.1197C18.9039 29.4908 24.8468 38.2501 33.9999 38.2501C43.153 38.2501 49.0959 29.4908 49.3453 29.1197C49.5006 28.8869 49.5835 28.6133 49.5835 28.3334C49.5835 28.0536 49.5006 27.78 49.3453 27.5472ZM33.9999 35.4167C32.599 35.4167 31.2295 35.0013 30.0646 34.223C28.8998 33.4447 27.9919 32.3384 27.4558 31.0441C26.9197 29.7498 26.7794 28.3256 27.0527 26.9515C27.326 25.5775 28.0006 24.3154 28.9913 23.3247C29.9819 22.3341 31.244 21.6595 32.618 21.3862C33.9921 21.1129 35.4163 21.2531 36.7106 21.7893C38.0049 22.3254 39.1112 23.2333 39.8895 24.3981C40.6678 25.563 41.0833 26.9325 41.0833 28.3334C41.0833 30.212 40.337 32.0137 39.0086 33.3421C37.6802 34.6705 35.8785 35.4167 33.9999 35.4167Z" fill="white"/>
</svg>
