<svg width="68" height="68" viewBox="0 0 68 68" fill="none" xmlns="http://www.w3.org/2000/svg">
<path d="M12.75 21.2502C16.662 21.2502 19.8333 18.0788 19.8333 14.1668C19.8333 10.2548 16.662 7.0835 12.75 7.0835C8.83794 7.0835 5.66663 10.2548 5.66663 14.1668C5.66663 18.0788 8.83794 21.2502 12.75 21.2502Z" fill="white"/>
<path d="M33.9999 21.2501C39.4767 21.2501 43.9166 16.8102 43.9166 11.3334C43.9166 5.85659 39.4767 1.41675 33.9999 1.41675C28.5231 1.41675 24.0833 5.85659 24.0833 11.3334C24.0833 16.8102 28.5231 21.2501 33.9999 21.2501Z" fill="white"/>
<path d="M18.802 50.8741C16.9065 50.3995 15.5833 48.7037 15.5833 46.7502V31.1668C15.5833 28.4667 16.6713 26.0187 18.428 24.228C17.9661 24.1331 17.4887 24.0835 17 24.0835H8.49996C4.59421 24.0835 1.41663 27.2611 1.41663 31.1668V43.9168C1.41663 44.5274 1.80621 45.0672 2.38563 45.2612L5.75729 46.3847L7.08896 61.0457C7.15554 61.7739 7.76754 62.3335 8.49996 62.3335H17C17.7324 62.3335 18.3444 61.7739 18.411 61.0443L19.3233 51.003L18.802 50.8741Z" fill="white"/>
<path d="M55.25 21.2502C59.162 21.2502 62.3333 18.0788 62.3333 14.1668C62.3333 10.2548 59.162 7.0835 55.25 7.0835C51.3379 7.0835 48.1666 10.2548 48.1666 14.1668C48.1666 18.0788 51.3379 21.2502 55.25 21.2502Z" fill="white"/>
<path d="M49.198 50.8741C51.0935 50.3995 52.4166 48.7037 52.4166 46.7502V31.1668C52.4166 28.4667 51.3286 26.0187 49.572 24.228C50.0338 24.1331 50.5112 24.0835 51 24.0835H59.5C63.4057 24.0835 66.5833 27.2611 66.5833 31.1668V43.9168C66.5833 44.5274 66.1937 45.0672 65.6143 45.2612L62.2426 46.3847L60.911 61.0457C60.8444 61.7739 60.2324 62.3335 59.5 62.3335H51C50.2676 62.3335 49.6556 61.7739 49.589 61.0443L48.6766 51.003L49.198 50.8741Z" fill="white"/>
<path d="M42.5 24.0835H25.5C21.5942 24.0835 18.4166 27.2611 18.4166 31.1668V46.7502C18.4166 47.4004 18.8586 47.9671 19.489 48.1243L24.1725 49.2945L25.5042 65.2844C25.5665 66.0197 26.18 66.5835 26.9166 66.5835H41.0833C41.82 66.5835 42.4334 66.0197 42.4957 65.2844L43.8274 49.2945L48.5109 48.1243C49.1413 47.9671 49.5833 47.4004 49.5833 46.7502V31.1668C49.5833 27.2611 46.4057 24.0835 42.5 24.0835Z" fill="white"/>
</svg>
