<svg width="68" height="68" viewBox="0 0 68 68" fill="none" xmlns="http://www.w3.org/2000/svg">
<path d="M59.5 60.9167H2.83329C2.45757 60.9167 2.09723 60.7674 1.83156 60.5017C1.56588 60.2361 1.41663 59.8757 1.41663 59.5V14.1667C1.41663 13.7909 1.56588 13.4306 1.83156 13.1649C2.09723 12.8993 2.45757 12.75 2.83329 12.75H32.5833V15.5833H4.24996V58.0833H58.0833V29.75H60.9166V59.5C60.9166 59.8757 60.7674 60.2361 60.5017 60.5017C60.236 60.7674 59.8757 60.9167 59.5 60.9167Z" fill="white"/>
<path d="M62.3333 1.41675H39.6666C38.5395 1.41675 37.4585 1.86451 36.6614 2.66154C35.8644 3.45857 35.4166 4.53958 35.4166 5.66675V22.6667C35.4166 23.7939 35.8644 24.8749 36.6614 25.672C37.4585 26.469 38.5395 26.9167 39.6666 26.9167H42.5V31.1667C42.4999 31.4232 42.5695 31.6749 42.7013 31.8949C42.8331 32.115 43.0222 32.2951 43.2483 32.4161C43.4744 32.5371 43.7292 32.5944 43.9854 32.582C44.2415 32.5695 44.4895 32.4878 44.7029 32.3454L52.8416 26.9167H62.3333C63.4605 26.9167 64.5415 26.469 65.3385 25.672C66.1355 24.8749 66.5833 23.7939 66.5833 22.6667V5.66675C66.5833 4.53958 66.1355 3.45857 65.3385 2.66154C64.5415 1.86451 63.4605 1.41675 62.3333 1.41675ZM49.5833 19.8334H42.5C42.1242 19.8334 41.7639 19.6842 41.4982 19.4185C41.2325 19.1528 41.0833 18.7925 41.0833 18.4167C41.0833 18.041 41.2325 17.6807 41.4982 17.415C41.7639 17.1493 42.1242 17.0001 42.5 17.0001H49.5833C49.959 17.0001 50.3194 17.1493 50.585 17.415C50.8507 17.6807 51 18.041 51 18.4167C51 18.7925 50.8507 19.1528 50.585 19.4185C50.3194 19.6842 49.959 19.8334 49.5833 19.8334ZM59.5 11.3334H42.5C42.1242 11.3334 41.7639 11.1842 41.4982 10.9185C41.2325 10.6528 41.0833 10.2925 41.0833 9.91675C41.0833 9.54102 41.2325 9.18069 41.4982 8.91501C41.7639 8.64934 42.1242 8.50008 42.5 8.50008H59.5C59.8757 8.50008 60.236 8.64934 60.5017 8.91501C60.7674 9.18069 60.9166 9.54102 60.9166 9.91675C60.9166 10.2925 60.7674 10.6528 60.5017 10.9185C60.236 11.1842 59.8757 11.3334 59.5 11.3334Z" fill="white"/>
<path d="M24.0833 42.5002C28.8702 42.5002 32.5833 37.1692 32.5833 32.5835C32.5833 30.3292 31.6877 28.1671 30.0937 26.5731C28.4996 24.979 26.3376 24.0835 24.0833 24.0835C21.8289 24.0835 19.6669 24.979 18.0728 26.5731C16.4788 28.1671 15.5833 30.3292 15.5833 32.5835C15.5833 37.1692 19.2963 42.5002 24.0833 42.5002Z" fill="white"/>
<path d="M33.1627 46.7062C27.2441 44.8824 20.9145 44.8765 14.9925 46.6892C13.5226 47.1159 12.2318 48.0102 11.3158 49.2365C10.3998 50.4628 9.90861 51.9543 9.9166 53.485V55.2501H38.2499V53.5062C38.2567 51.9738 37.7638 50.4808 36.8458 49.2538C35.9278 48.0267 34.6347 47.1323 33.1627 46.7062Z" fill="white"/>
</svg>
