<svg width="65" height="65" viewBox="0 0 65 65" fill="none" xmlns="http://www.w3.org/2000/svg">
<path fill-rule="evenodd" clip-rule="evenodd" d="M8.5625 3C6.595 3 5 4.70133 5 6.8C5 8.89867 6.595 10.6 8.5625 10.6V41.0001C8.5625 45.1975 11.7525 48.6001 15.6875 48.6001H24.8994L20.2934 53.5131C18.9022 54.997 18.9022 57.4032 20.2934 58.8871C21.6847 60.371 23.9403 60.371 25.3316 58.8871L33.5 50.174L41.6685 58.8871C43.0596 60.371 45.3154 60.371 46.7065 58.8871C48.0977 57.4032 48.0977 54.997 46.7065 53.5131L42.1006 48.6001H51.3125C55.2476 48.6001 58.4375 45.1975 58.4375 41.0001V10.6C60.4051 10.6 62 8.89867 62 6.8C62 4.70133 60.4051 3 58.4375 3H8.5625ZM47.75 18.2C47.75 16.1014 46.1551 14.4 44.1875 14.4C42.2199 14.4 40.625 16.1014 40.625 18.2V33.4C40.625 35.4988 42.2199 37.2001 44.1875 37.2001C46.1551 37.2001 47.75 35.4988 47.75 33.4V18.2ZM37.0625 22C37.0625 19.9014 35.4676 18.2 33.5 18.2C31.5325 18.2 29.9375 19.9014 29.9375 22V33.4C29.9375 35.4988 31.5325 37.2001 33.5 37.2001C35.4676 37.2001 37.0625 35.4988 37.0625 33.4V22ZM26.375 25.8C26.375 23.7014 24.78 22 22.8125 22C20.845 22 19.25 23.7014 19.25 25.8V33.4C19.25 35.4988 20.845 37.2001 22.8125 37.2001C24.78 37.2001 26.375 35.4988 26.375 33.4V25.8Z" fill="white"/>
</svg>
