<svg width="67" height="67" viewBox="0 0 67 67" fill="none" xmlns="http://www.w3.org/2000/svg">
<path d="M40.625 5H12.125C8.19675 5 5 8.19675 5 12.125V45.375C5 46.3345 5.5795 47.2038 6.46537 47.5695C6.75987 47.693 7.06862 47.75 7.375 47.75C7.9925 47.75 8.6005 47.5078 9.05412 47.0541L17.8582 38.25H40.625C44.5532 38.25 47.75 35.0532 47.75 31.125V12.125C47.75 8.19675 44.5532 5 40.625 5Z" fill="white"/>
<path d="M54.875 19.25H52.5V31.125C52.5 37.6729 47.1729 43 40.625 43H19.8271L19.25 43.5771V45.375C19.25 49.3032 22.4467 52.5 26.375 52.5H49.1418L57.9459 61.3041C58.3995 61.7578 59.0075 62 59.625 62C59.9314 62 60.2401 61.943 60.5346 61.8195C61.4205 61.4538 62 60.5845 62 59.625V26.375C62 22.4467 58.8032 19.25 54.875 19.25Z" fill="white"/>
</svg>
