<svg width="57" height="58" viewBox="0 0 57 58" fill="none" xmlns="http://www.w3.org/2000/svg">
<path d="M54.4091 13.4545H23.3182V8.27273C23.3182 6.84773 24.4841 5.68182 25.9091 5.68182H31.0909C32.5159 5.68182 33.6818 4.51591 33.6818 3.09091C33.6818 1.66591 32.5159 0.5 31.0909 0.5H25.9091C21.6341 0.5 18.1364 3.99773 18.1364 8.27273V13.4545H2.59091C1.16591 13.4545 0 14.6205 0 16.0455C0 17.4705 1.16591 18.6364 2.59091 18.6364H8.08364L12.5659 52.3182H7.77273C6.34773 52.3182 5.18182 53.4841 5.18182 54.9091C5.18182 56.3341 6.34773 57.5 7.77273 57.5H15.5455H41.4545H49.2273C50.6523 57.5 51.8182 56.3341 51.8182 54.9091C51.8182 53.4841 50.6523 52.3182 49.2273 52.3182H44.4082L48.8905 18.6364H54.4091C55.8341 18.6364 57 17.4705 57 16.0455C57 14.6205 55.8341 13.4545 54.4091 13.4545Z" fill="white"/>
</svg>
