<svg width="65" height="65" viewBox="0 0 65 65" fill="none" xmlns="http://www.w3.org/2000/svg">
<path fill-rule="evenodd" clip-rule="evenodd" d="M32.5 6C30.5325 6 28.9375 7.595 28.9375 9.5625V13.125C28.9375 15.0925 30.5325 16.6875 32.5 16.6875C34.4676 16.6875 36.0625 15.0925 36.0625 13.125V9.5625C36.0625 7.595 34.4676 6 32.5 6ZM11.125 13.125H21.8125C21.8125 19.0275 26.5975 23.8125 32.5 23.8125C38.4027 23.8125 43.1875 19.0275 43.1875 13.125H53.875C57.8101 13.125 61 16.315 61 20.25V52.3125C61 56.2476 57.8101 59.4375 53.875 59.4375H11.125C7.18997 59.4375 4 56.2476 4 52.3125V20.25C4 16.315 7.18997 13.125 11.125 13.125ZM20.0312 38.0625C22.9825 38.0625 25.375 35.6699 25.375 32.7188C25.375 29.7675 22.9825 27.375 20.0312 27.375C17.08 27.375 14.6875 29.7675 14.6875 32.7188C14.6875 35.6699 17.08 38.0625 20.0312 38.0625ZM28.7611 52.3125C28.8779 51.7368 28.9392 51.1412 28.9392 50.5312C28.9392 45.6125 24.9518 41.625 20.033 41.625C15.1142 41.625 11.1267 45.6125 11.1267 50.5312C11.1267 51.1412 11.1881 51.7368 11.3049 52.3125H28.7611ZM39.625 30.9375C37.6574 30.9375 36.0625 32.5325 36.0625 34.5C36.0625 36.4676 37.6574 38.0625 39.625 38.0625H50.3125C52.2801 38.0625 53.875 36.4676 53.875 34.5C53.875 32.5325 52.2801 30.9375 50.3125 30.9375H39.625ZM36.0625 45.1875C36.0625 43.2199 37.6574 41.625 39.625 41.625H46.75C48.7176 41.625 50.3125 43.2199 50.3125 45.1875C50.3125 47.1551 48.7176 48.75 46.75 48.75H39.625C37.6574 48.75 36.0625 47.1551 36.0625 45.1875Z" fill="white"/>
</svg>
