<svg width="20" height="18" viewBox="0 0 20 18" fill="none" xmlns="http://www.w3.org/2000/svg">
<path d="M18.8902 10.5483L18.9211 10.5416L5.70912 10.5416L9.86247 14.7041C10.0659 14.9073 10.1774 15.1826 10.1774 15.4715C10.1774 15.7605 10.0659 16.0338 9.86247 16.2375L9.21621 16.8841C9.01299 17.0873 8.74219 17.1997 8.45341 17.1997C8.16447 17.1997 7.89351 17.0881 7.69029 16.8849L0.570648 9.76593C0.366625 9.5619 0.255062 9.29014 0.255864 9.00104C0.255062 8.71033 0.366625 8.43841 0.570648 8.2347L7.69029 1.11507C7.89351 0.912007 8.16431 0.800284 8.45341 0.800284C8.74219 0.800284 9.01299 0.912167 9.21621 1.11507L9.86247 1.76165C10.0659 1.96455 10.1774 2.23551 10.1774 2.52445C10.1774 2.81323 10.0659 3.06991 9.86247 3.27297L5.66225 7.45874L18.905 7.45874C19.5001 7.45874 20.0001 7.97161 20.0001 8.56635L20.0001 9.48084C20.0001 10.0756 19.4853 10.5483 18.8902 10.5483Z" fill="white"/>
</svg>
