<svg width="20" height="18" viewBox="0 0 20 18" fill="none" xmlns="http://www.w3.org/2000/svg">
<path d="M1.10976 10.5483L1.07894 10.5416L14.2909 10.5416L10.1375 14.7041C9.93414 14.9073 9.82258 15.1826 9.82258 15.4715C9.82258 15.7605 9.93414 16.0338 10.1375 16.2375L10.7838 16.8841C10.987 17.0873 11.2578 17.1997 11.5466 17.1997C11.8355 17.1997 12.1065 17.0881 12.3097 16.8849L19.4294 9.76593C19.6334 9.5619 19.7449 9.29014 19.7441 9.00104C19.7449 8.71033 19.6334 8.43841 19.4294 8.2347L12.3097 1.11507C12.1065 0.912007 11.8357 0.800284 11.5466 0.800284C11.2578 0.800284 10.987 0.912167 10.7838 1.11507L10.1375 1.76165C9.93414 1.96455 9.82258 2.23551 9.82258 2.52445C9.82258 2.81323 9.93414 3.06991 10.1375 3.27297L14.3377 7.45874L1.09499 7.45874C0.499934 7.45874 -9.04521e-05 7.97161 -9.04001e-05 8.56635L-9.03202e-05 9.48084C-9.02682e-05 10.0756 0.514703 10.5483 1.10976 10.5483Z" fill="white"/>
</svg>
