<svg width="68" height="68" viewBox="0 0 68 68" fill="none" xmlns="http://www.w3.org/2000/svg">
<path d="M37.8122 46.6183C33.4843 44.8263 28.3885 43.9167 22.6666 43.9167C16.9447 43.9167 11.849 44.8263 7.52104 46.6183C3.81221 48.1554 1.41663 51.7509 1.41663 55.7813V62.3334C1.41663 63.1168 2.04988 63.7501 2.83329 63.7501H42.5C43.2834 63.7501 43.9166 63.1168 43.9166 62.3334V55.7813C43.9166 51.7509 41.521 48.1554 37.8122 46.6183Z" fill="white"/>
<path d="M22.6666 38.2499C29.9639 38.2499 35.4166 30.7713 35.4166 24.0833C35.4166 17.0538 29.6975 11.3333 22.6666 11.3333C15.6357 11.3333 9.91663 17.0538 9.91663 24.0833C9.91663 30.7713 15.3694 38.2499 22.6666 38.2499Z" fill="white"/>
<path d="M47.2331 16.9433C46.6466 17.4604 46.5899 18.3557 47.107 18.9422C48.7036 20.7541 49.5833 23.0831 49.5833 25.5C49.5833 27.9196 48.7036 30.2486 47.1041 32.0577C46.5871 32.6442 46.6423 33.5396 47.2288 34.0581C47.498 34.2961 47.8337 34.4122 48.1666 34.4122C48.5576 34.4122 48.9486 34.2507 49.2291 33.9334C51.2847 31.6058 52.4166 28.6096 52.4166 25.5C52.4166 22.3932 51.2861 19.3984 49.232 17.0694C48.7163 16.4815 47.8181 16.4291 47.2331 16.9433Z" fill="white"/>
<path d="M57.6158 5.44004C57.0363 4.92012 56.1382 4.96687 55.6154 5.55054C55.0941 6.13279 55.1437 7.02812 55.7259 7.55087C60.8259 12.1182 63.7499 18.6604 63.7499 25.5C63.7499 32.3411 60.8245 38.8819 55.7231 43.4492C55.1408 43.9705 55.0913 44.8673 55.6126 45.4495C55.8917 45.7626 56.2798 45.9213 56.668 45.9213C57.0052 45.9213 57.3438 45.8023 57.6129 45.56C63.3136 40.4572 66.5833 33.1444 66.5833 25.5C66.5833 17.8557 63.3136 10.5443 57.6158 5.44004Z" fill="white"/>
</svg>
