<svg width="68" height="68" viewBox="0 0 68 68" fill="none" xmlns="http://www.w3.org/2000/svg">
<path d="M24.6613 56.6281C18.4166 54.7822 12.536 54.8204 6.49113 56.6111C3.45521 57.5093 1.41663 60.2406 1.41663 63.4068V65.1663C1.41663 65.9483 2.04988 66.583 2.83329 66.583H28.3333C29.1167 66.583 29.75 65.9483 29.75 65.1663V63.4267C29.75 60.2604 27.7057 57.5277 24.6613 56.6281Z" fill="white"/>
<path d="M15.5833 52.4165C20.2777 52.4165 24.0833 48.6109 24.0833 43.9165C24.0833 39.2221 20.2777 35.4165 15.5833 35.4165C10.8888 35.4165 7.08325 39.2221 7.08325 43.9165C7.08325 48.6109 10.8888 52.4165 15.5833 52.4165Z" fill="white"/>
<path d="M61.4947 56.6281C55.2486 54.7822 49.368 54.8204 43.3245 56.6111C40.2886 57.5093 38.25 60.2406 38.25 63.4068V65.1663C38.25 65.9483 38.8833 66.583 39.6667 66.583H65.1667C65.9501 66.583 66.5833 65.9483 66.5833 65.1663V63.4267C66.5833 60.2604 64.5391 57.5277 61.4947 56.6281Z" fill="white"/>
<path d="M52.4166 52.4165C57.111 52.4165 60.9166 48.6109 60.9166 43.9165C60.9166 39.2221 57.111 35.4165 52.4166 35.4165C47.7222 35.4165 43.9166 39.2221 43.9166 43.9165C43.9166 48.6109 47.7222 52.4165 52.4166 52.4165Z" fill="white"/>
<path d="M21.2499 32.583H46.7499C47.5333 32.583 48.1666 31.9483 48.1666 31.1663V29.4266C48.1666 26.2604 46.1223 23.5276 43.0779 22.6266C36.8333 20.7807 30.9513 20.819 24.9078 22.6096C21.8718 23.5092 19.8333 26.2405 19.8333 29.4068V31.1663C19.8333 31.9483 20.4665 32.583 21.2499 32.583Z" fill="white"/>
<path d="M34 18.4165C38.6944 18.4165 42.5 14.6109 42.5 9.9165C42.5 5.22208 38.6944 1.4165 34 1.4165C29.3056 1.4165 25.5 5.22208 25.5 9.9165C25.5 14.6109 29.3056 18.4165 34 18.4165Z" fill="white"/>
</svg>
