<svg width="68" height="68" viewBox="0 0 68 68" fill="none" xmlns="http://www.w3.org/2000/svg">
<path d="M63.75 5.66667C63.75 5.29094 63.6007 4.93061 63.3351 4.66493C63.0694 4.39926 62.7091 4.25 62.3333 4.25H9.91667C8.41377 4.25 6.97243 4.84702 5.90973 5.90973C4.84702 6.97243 4.25 8.41377 4.25 9.91667V63.75C4.25 64.1257 4.39926 64.4861 4.66493 64.7517C4.93061 65.0174 5.29094 65.1667 5.66667 65.1667C6.04239 65.1667 6.40272 65.0174 6.6684 64.7517C6.93408 64.4861 7.08333 64.1257 7.08333 63.75V9.91667C7.08333 9.16522 7.38184 8.44455 7.9132 7.9132C8.44455 7.38184 9.16522 7.08333 9.91667 7.08333H62.3333C62.7091 7.08333 63.0694 6.93408 63.3351 6.6684C63.6007 6.40272 63.75 6.04239 63.75 5.66667Z" fill="white"/>
<path d="M59.5 15.5834H52.4167V9.91675H49.5833V15.5834H26.9167V9.91675H24.0833V15.5834H17C15.8728 15.5834 14.7918 16.0312 13.9948 16.8282C13.1978 17.6252 12.75 18.7062 12.75 19.8334V45.3334C12.75 46.4606 13.1978 47.5416 13.9948 48.3386C14.7918 49.1357 15.8728 49.5834 17 49.5834H59.5C60.6272 49.5834 61.7082 49.1357 62.5052 48.3386C63.3022 47.5416 63.75 46.4606 63.75 45.3334V19.8334C63.75 18.7062 63.3022 17.6252 62.5052 16.8282C61.7082 16.0312 60.6272 15.5834 59.5 15.5834Z" fill="white"/>
</svg>
