<svg width="41" height="72" viewBox="0 0 41 72" fill="none" xmlns="http://www.w3.org/2000/svg">
<path d="M20.4167 15.5833C18.4828 15.5833 16.6281 14.7624 15.2607 13.3011C13.8932 11.8399 13.125 9.85809 13.125 7.79163C13.125 5.72516 13.8932 3.74333 15.2607 2.28211C16.6281 0.820901 18.4828 0 20.4167 0C21.3742 0 22.3224 0.201536 23.2071 0.593102C24.0917 0.984668 24.8956 1.5586 25.5727 2.28211C26.2498 3.00563 26.7869 3.86458 27.1533 4.8099C27.5197 5.75522 27.7083 6.76841 27.7083 7.79163C27.7083 9.85809 26.9401 11.8399 25.5727 13.3011C24.2052 14.7624 22.3505 15.5833 20.4167 15.5833Z" fill="white"/>
<path d="M39.375 38.9578H1.45833C1.07156 38.9578 0.700627 39.1219 0.427136 39.4142C0.153646 39.7064 0 40.1028 0 40.5161V45.1912C0 45.6045 0.153646 46.0008 0.427136 46.2931C0.700627 46.5853 1.07156 46.7495 1.45833 46.7495H4.375V70.1248C4.375 70.5381 4.52865 70.9344 4.80214 71.2267C5.07563 71.5189 5.44656 71.6831 5.83333 71.6831H35C35.3868 71.6831 35.7577 71.5189 36.0312 71.2267C36.3047 70.9344 36.4583 70.5381 36.4583 70.1248V46.7495H39.375C39.7618 46.7495 40.1327 46.5853 40.4062 46.2931C40.6797 46.0008 40.8333 45.6045 40.8333 45.1912V40.5161C40.8333 40.1028 40.6797 39.7064 40.4062 39.4142C40.1327 39.1219 39.7618 38.9578 39.375 38.9578Z" fill="white"/>
<path d="M33.5417 24.9333C33.5417 23.2801 32.9272 21.6946 31.8332 20.5256C30.7392 19.3567 29.2555 18.7 27.7084 18.7H26.2501L20.4167 24.9333L14.5834 18.7H13.1251C11.578 18.7 10.0943 19.3567 9.00029 20.5256C7.90633 21.6946 7.29175 23.2801 7.29175 24.9333V35.8416H33.5417V24.9333Z" fill="white"/>
</svg>
