<svg width="68" height="68" viewBox="0 0 68 68" fill="none" xmlns="http://www.w3.org/2000/svg">
<path d="M60.9167 1.41675H15.5834C15.2076 1.41675 14.8473 1.566 14.5816 1.83168C14.3159 2.09736 14.1667 2.45769 14.1667 2.83341V7.08342H52.4167C53.5439 7.08342 54.6249 7.53118 55.4219 8.32821C56.2189 9.12524 56.6667 10.2062 56.6667 11.3334V58.0834H60.9167C61.2924 58.0834 61.6528 57.9342 61.9184 57.6685C62.1841 57.4028 62.3334 57.0425 62.3334 56.6668V2.83341C62.3334 2.45769 62.1841 2.09736 61.9184 1.83168C61.6528 1.566 61.2924 1.41675 60.9167 1.41675Z" fill="white"/>
<path d="M52.4167 9.91675H7.08335C6.70763 9.91675 6.3473 10.066 6.08162 10.3317C5.81594 10.5974 5.66669 10.9577 5.66669 11.3334V65.1668C5.66669 65.5425 5.81594 65.9028 6.08162 66.1685C6.3473 66.4342 6.70763 66.5834 7.08335 66.5834H52.4167C52.7924 66.5834 53.1527 66.4342 53.4184 66.1685C53.6841 65.9028 53.8334 65.5425 53.8334 65.1668V11.3334C53.8334 10.9577 53.6841 10.5974 53.4184 10.3317C53.1527 10.066 52.7924 9.91675 52.4167 9.91675ZM29.75 49.5834H17C16.6243 49.5834 16.264 49.4342 15.9983 49.1685C15.7326 48.9028 15.5834 48.5425 15.5834 48.1668C15.5834 47.791 15.7326 47.4307 15.9983 47.165C16.264 46.8993 16.6243 46.7501 17 46.7501H29.75C30.1257 46.7501 30.4861 46.8993 30.7518 47.165C31.0174 47.4307 31.1667 47.791 31.1667 48.1668C31.1667 48.5425 31.0174 48.9028 30.7518 49.1685C30.4861 49.4342 30.1257 49.5834 29.75 49.5834ZM42.5 38.2501H17C16.6243 38.2501 16.264 38.1008 15.9983 37.8352C15.7326 37.5695 15.5834 37.2091 15.5834 36.8334C15.5834 36.4577 15.7326 36.0974 15.9983 35.8317C16.264 35.566 16.6243 35.4167 17 35.4167H42.5C42.8757 35.4167 43.2361 35.566 43.5018 35.8317C43.7674 36.0974 43.9167 36.4577 43.9167 36.8334C43.9167 37.2091 43.7674 37.5695 43.5018 37.8352C43.2361 38.1008 42.8757 38.2501 42.5 38.2501ZM42.5 26.9167H17C16.6243 26.9167 16.264 26.7675 15.9983 26.5018C15.7326 26.2361 15.5834 25.8758 15.5834 25.5001C15.5834 25.1244 15.7326 24.764 15.9983 24.4983C16.264 24.2327 16.6243 24.0834 17 24.0834H42.5C42.8757 24.0834 43.2361 24.2327 43.5018 24.4983C43.7674 24.764 43.9167 25.1244 43.9167 25.5001C43.9167 25.8758 43.7674 26.2361 43.5018 26.5018C43.2361 26.7675 42.8757 26.9167 42.5 26.9167Z" fill="white"/>
</svg>
