<svg width="158" height="51" viewBox="0 0 158 51" fill="none" xmlns="http://www.w3.org/2000/svg">
<path d="M93.6647 0L82.644 12.7031L78.9888 9.05319L75.3337 12.7031L64.313 0V22.5613H65.4614H92.5162H93.6647V0Z" fill="white"/>
<path fill-rule="evenodd" clip-rule="evenodd" d="M19.4795 50.5258H23.6426V29.8943H19.4795V50.5258ZM0 50.5258H4.16313V29.8943H0V50.5258ZM18.0328 29.8943H12.7765L4.94716 40.1273L12.8317 50.5258H18.0881L10.2035 40.1273L18.0328 29.8943ZM41.8632 43.6781L31.3283 29.8943H27.0217V50.5258H31.1848V36.5546L41.8521 50.5148H46.0263V29.8943H41.8632V43.6781ZM70.4418 38.6277H70.3093H66.2125H65.2849L60.9782 42.9282H65.7487C64.6775 45.2329 62.3254 46.8428 59.6089 46.8428C55.8764 46.8428 52.8397 43.8104 52.8397 40.0943C52.8397 36.3671 55.8764 33.3457 59.6089 33.3457C62.5794 33.3457 65.0971 35.2644 66.0137 37.9109L69.1498 34.7792C67.2726 31.4491 63.7058 29.1885 59.6089 29.1885C53.5795 29.1885 48.6765 34.0845 48.6765 40.0943C48.6765 46.104 53.5795 51 59.6089 51C65.6382 51 70.5412 46.104 70.5412 40.0943C70.5412 39.5981 70.5081 39.1018 70.4418 38.6277Z" fill="white"/>
<path fill-rule="evenodd" clip-rule="evenodd" d="M101.096 29.1885C95.0671 29.1885 90.1641 34.0845 90.1641 40.0943C90.1641 46.104 95.0671 51 101.096 51C107.126 51 112.029 46.104 112.029 40.0943C112.029 34.0735 107.126 29.1885 101.096 29.1885ZM101.096 46.8428C97.364 46.8428 94.3273 43.8104 94.3273 40.0943C94.3273 36.3671 97.364 33.3457 101.096 33.3457C104.829 33.3457 107.866 36.3782 107.866 40.0943C107.866 43.8104 104.829 46.8428 101.096 46.8428ZM73.1472 50.5258H77.3103V29.8943H73.1472V50.5258ZM91.1801 29.8943H85.9237L78.0944 40.1273L85.9789 50.5258H91.2353L83.3507 40.1273L91.1801 29.8943ZM129.487 43.6339L118.953 29.8502H114.646V50.4817H118.809V36.5105L129.476 50.4707H133.651V29.8502H129.487V43.6339ZM157.889 38.6277H152.744L148.437 42.9282H153.207C152.136 45.2329 149.784 46.8428 147.068 46.8428C143.335 46.8428 140.298 43.8104 140.298 40.0943C140.298 36.3671 143.335 33.3457 147.068 33.3457C150.038 33.3457 152.556 35.2644 153.472 37.9109L156.609 34.7792C154.731 31.4491 151.164 29.1885 147.068 29.1885C141.038 29.1885 136.135 34.0845 136.135 40.0943C136.135 46.104 141.038 51 147.068 51C153.097 51 158 46.104 158 40.0943C157.989 39.5981 157.945 39.1018 157.889 38.6277Z" fill="white"/>
</svg>
