<svg width="196" height="65" viewBox="0 0 196 65" fill="none" xmlns="http://www.w3.org/2000/svg">
<g clip-path="url(#clip0)">
<path d="M116.201 0.279785L102.526 16.2216L97.9912 11.6413L93.4565 16.2216L79.7905 0.279785V28.594H81.2165H114.775H116.201V0.279785Z" fill="#52596B"/>
<path fill-rule="evenodd" clip-rule="evenodd" d="M24.1612 63.6803H29.3336V37.7904H24.1612V63.6803ZM0 63.6803H5.17235V37.7904H0V63.6803ZM22.3722 37.7904H15.8536L6.13773 50.628L15.9156 63.6803H22.4342L12.6563 50.628L22.3722 37.7904ZM51.9449 55.0921L38.8812 37.7904H33.5317V63.6803H38.704V46.155L51.936 63.6803H57.1172V37.7904H51.9449V55.0921ZM87.3896 48.7583H87.2302H82.1464H81.0039L75.6544 54.1527H81.5707C80.2333 57.0513 77.3195 59.0641 73.9539 59.0641C69.3218 59.0641 65.5577 55.2621 65.5577 50.5922C65.5577 45.9224 69.3218 42.1203 73.9539 42.1203C77.6383 42.1203 80.7648 44.5268 81.8984 47.8547L85.7954 43.9274C83.4749 39.7407 79.0377 36.9048 73.9539 36.9048C66.4699 36.9048 60.3854 43.0418 60.3854 50.5922C60.3854 58.1427 66.4699 64.2797 73.9539 64.2797C81.4379 64.2797 87.5225 58.1427 87.5225 50.5922C87.5136 49.966 87.4693 49.3577 87.3896 48.7583Z" fill="#52596B"/>
<path fill-rule="evenodd" clip-rule="evenodd" d="M125.429 36.9048C117.945 36.9048 111.861 43.0418 111.861 50.5922C111.861 58.1427 117.945 64.2797 125.429 64.2797C132.913 64.2797 138.998 58.1427 138.998 50.5922C138.989 43.0418 132.904 36.9048 125.429 36.9048ZM125.429 59.0641C120.797 59.0641 117.033 55.2621 117.033 50.5922C117.033 45.9224 120.797 42.1203 125.429 42.1203C130.061 42.1203 133.826 45.9224 133.826 50.5922C133.826 55.2621 130.053 59.0641 125.429 59.0641ZM90.7551 63.6803H95.9275V37.7904H90.7551V63.6803ZM113.127 37.7904H106.609L96.8929 50.628L106.671 63.6803H113.189L103.411 50.628L113.127 37.7904ZM160.644 55.0384L147.58 37.7368H142.231V63.6266H147.403V46.1013L160.635 63.6266H165.816V37.7368H160.644V55.0384ZM195.876 48.7583H189.49L184.141 54.1527H190.057C188.72 57.0513 185.806 59.0641 182.44 59.0641C177.808 59.0641 174.044 55.2621 174.044 50.5922C174.044 45.9224 177.808 42.1203 182.44 42.1203C186.125 42.1203 189.251 44.5268 190.385 47.8547L194.282 43.9274C191.961 39.7407 187.524 36.9048 182.44 36.9048C174.956 36.9048 168.872 43.0418 168.872 50.5922C168.872 58.1427 174.956 64.2797 182.44 64.2797C189.924 64.2797 196.009 58.1427 196.009 50.5922C196 49.966 195.956 49.3577 195.876 48.7583Z" fill="#52596B"/>
</g>
<defs>
<clipPath id="clip0">
<rect width="196" height="64" fill="white" transform="translate(0 0.279785)"/>
</clipPath>
</defs>
</svg>
