<svg width="101" height="101" viewBox="0 0 101 101" fill="none" xmlns="http://www.w3.org/2000/svg">
<g filter="url(#filter0_d)">
<circle cx="50.0905" cy="46.0905" r="30.0905" fill="#C1272D"/>
</g>
<path fill-rule="evenodd" clip-rule="evenodd" d="M59.7857 47.8597C57.6867 49.8974 51.9739 53.3455 49.0513 54.4525C48.5849 54.6288 47.3957 55.0021 47.1394 55.0073C46.5952 55.0229 46.0711 54.7481 45.8178 54.3073C45.7199 54.1362 45.4319 53.0188 45.3398 52.5211C45.0662 51.007 44.9251 48.6556 44.928 46.2912C44.9251 43.8101 45.0778 41.3472 45.383 39.8488C45.4636 39.4443 45.6997 38.5136 45.7688 38.3632C45.8984 38.0832 46.1345 37.8629 46.4196 37.7255C46.6384 37.6192 46.8889 37.5621 47.1394 37.5699C47.3957 37.5751 48.438 37.9044 48.7951 38.0314C51.6111 39.0166 57.5686 42.5891 59.757 44.689C59.9528 44.8783 60.4912 45.3864 60.5805 45.4901C60.7849 45.7234 60.8857 46.006 60.8857 46.2912C60.8857 46.5556 60.7964 46.8253 60.6121 47.0508C60.5171 47.1675 59.9672 47.686 59.7857 47.8597Z" fill="white"/>
<defs>
<filter id="filter0_d" x="0" y="0" width="100.181" height="100.181" filterUnits="userSpaceOnUse" color-interpolation-filters="sRGB">
<feFlood flood-opacity="0" result="BackgroundImageFix"/>
<feColorMatrix in="SourceAlpha" type="matrix" values="0 0 0 0 0 0 0 0 0 0 0 0 0 0 0 0 0 0 127 0"/>
<feOffset dy="4"/>
<feGaussianBlur stdDeviation="10"/>
<feColorMatrix type="matrix" values="0 0 0 0 0.756863 0 0 0 0 0.152941 0 0 0 0 0.176471 0 0 0 0.2 0"/>
<feBlend mode="normal" in2="BackgroundImageFix" result="effect1_dropShadow"/>
<feBlend mode="normal" in="SourceGraphic" in2="effect1_dropShadow" result="shape"/>
</filter>
</defs>
</svg>
