<svg width="321" height="204" viewBox="0 0 321 204" fill="none" xmlns="http://www.w3.org/2000/svg">
<path opacity="0.1" d="M297.974 135.038C297.974 133.019 298.574 131.045 299.698 129.367C300.822 127.688 302.419 126.379 304.288 125.607C306.157 124.834 308.214 124.632 310.198 125.026C312.182 125.42 314.005 126.392 315.435 127.82C316.866 129.247 317.84 131.066 318.234 133.047C318.629 135.027 318.426 137.08 317.652 138.945C316.878 140.81 315.567 142.405 313.885 143.527C312.203 144.648 310.225 145.247 308.202 145.247C305.49 145.247 302.888 144.172 300.97 142.257C299.052 140.342 297.974 137.746 297.974 135.038ZM69.9857 145.247C68.6425 145.247 67.3125 144.983 66.0715 144.47C64.8305 143.957 63.7029 143.205 62.7532 142.257C61.8034 141.309 61.0499 140.184 60.5359 138.945C60.0219 137.706 59.7573 136.379 59.7573 135.038C59.7573 133.698 60.0219 132.37 60.5359 131.132C61.0499 129.893 61.8034 128.768 62.7532 127.82C63.7029 126.872 64.8305 126.12 66.0715 125.607C67.3125 125.094 68.6425 124.829 69.9857 124.829H12.9887C10.2759 124.829 7.6743 123.754 5.75609 121.839C3.83789 119.925 2.76025 117.328 2.76025 114.621C2.76025 111.913 3.83789 109.316 5.75609 107.402C7.6743 105.487 10.2759 104.412 12.9887 104.412H71.4477C74.1605 104.412 76.7621 103.336 78.6803 101.422C80.5985 99.5072 81.6761 96.9105 81.6761 94.203C81.6761 91.4954 80.5985 88.8988 78.6803 86.9843C76.7621 85.0697 74.1605 83.9942 71.4477 83.9942H34.911C32.1983 83.9942 29.5967 82.9186 27.6784 81.0041C25.7602 79.0895 24.6826 76.4929 24.6826 73.7853C24.6826 71.0778 25.7602 68.4811 27.6784 66.5666C29.5967 64.6521 32.1983 63.5765 34.911 63.5765H93.3701C90.6573 63.5765 88.0557 62.501 86.1375 60.5864C84.2193 58.6719 83.1416 56.0752 83.1416 53.3677C83.1416 50.6602 84.2193 48.0635 86.1375 46.149C88.0557 44.2344 90.6573 43.1589 93.3701 43.1589H176.672C179.385 43.1589 181.986 44.2344 183.904 46.149C185.823 48.0635 186.9 50.6602 186.9 53.3677C186.9 56.0752 185.823 58.6719 183.904 60.5864C181.986 62.501 179.385 63.5765 176.672 63.5765H270.204C272.917 63.5765 275.518 64.6521 277.436 66.5666C279.355 68.4811 280.432 71.0778 280.432 73.7853C280.432 76.4929 279.355 79.0895 277.436 81.0041C275.518 82.9186 272.917 83.9942 270.204 83.9942H302.356C305.069 83.9942 307.671 85.0697 309.589 86.9843C311.507 88.8988 312.585 91.4954 312.585 94.203C312.585 96.9105 311.507 99.5072 309.589 101.422C307.671 103.336 305.069 104.412 302.356 104.412H274.588C271.875 104.412 269.274 105.487 267.355 107.402C265.437 109.316 264.359 111.913 264.359 114.621C264.359 117.328 265.437 119.925 267.355 121.839C269.274 123.754 271.875 124.829 274.588 124.829H283.356C284.699 124.829 286.029 125.094 287.27 125.607C288.511 126.12 289.639 126.872 290.589 127.82C291.539 128.768 292.292 129.893 292.806 131.132C293.32 132.37 293.585 133.698 293.585 135.038C293.585 136.379 293.32 137.706 292.806 138.945C292.292 140.184 291.539 141.309 290.589 142.257C289.639 143.205 288.511 143.957 287.27 144.47C286.029 144.983 284.699 145.247 283.356 145.247H69.9857Z" fill="#52596B"/>
<path d="M160.5 170.138C150.972 170.138 141.732 168.276 133.034 164.605C124.632 161.058 117.086 155.98 110.604 149.511C104.123 143.041 99.0352 135.51 95.4814 127.124C91.8028 118.443 89.9375 109.221 89.9375 99.7119C89.9375 90.2023 91.8028 80.9804 95.4814 72.2999C99.0352 63.9139 104.123 56.3824 110.604 49.9132C117.086 43.444 124.632 38.366 133.034 34.8189C141.732 31.1473 150.972 29.2855 160.5 29.2855C170.028 29.2855 179.268 31.1473 187.966 34.8189C196.368 38.366 203.914 43.444 210.396 49.9132C216.877 56.3824 221.965 63.9139 225.519 72.2999C229.197 80.9804 231.063 90.2023 231.063 99.7119C231.063 109.221 229.197 118.443 225.519 127.124C221.965 135.51 216.877 143.041 210.396 149.511C203.914 155.98 196.368 161.058 187.966 164.605C179.268 168.276 170.028 170.138 160.5 170.138Z" fill="white" stroke="url(#paint0_linear)"/>
<path d="M160.5 30.5857C151.149 30.5857 142.079 32.4128 133.543 36.0163C125.296 39.4977 117.889 44.4827 111.527 50.8321C105.166 57.1814 100.171 64.5748 96.6828 72.8059C93.0723 81.3258 91.2417 90.3789 91.2417 99.712C91.2417 109.045 93.0723 118.098 96.6828 126.618C100.171 134.849 105.166 142.243 111.527 148.592C117.889 154.941 125.296 159.926 133.543 163.408C142.079 167.011 151.149 168.838 160.5 168.838C169.851 168.838 178.921 167.011 187.457 163.408C195.704 159.926 203.111 154.941 209.473 148.592C215.834 142.243 220.829 134.849 224.317 126.618C227.928 118.098 229.758 109.045 229.758 99.712C229.758 90.3789 227.928 81.3258 224.317 72.8059C220.829 64.5748 215.834 57.1814 209.473 50.8321C203.111 44.4827 195.704 39.4977 187.457 36.0163C178.921 32.4128 169.851 30.5857 160.5 30.5857ZM160.5 26.9854C200.744 26.9854 233.367 59.5469 233.367 99.712C233.367 139.877 200.744 172.439 160.5 172.439C120.256 172.439 87.6329 139.877 87.6329 99.712C87.6329 59.5469 120.256 26.9854 160.5 26.9854Z" fill="url(#paint1_linear)" stroke="url(#paint2_linear)" stroke-width="0.8"/>
<path d="M132.628 97.3274C131.597 96.4069 130.246 95.9258 128.864 95.9874C127.482 96.0489 126.179 96.6481 125.235 97.6566C124.772 98.1534 124.414 98.7373 124.18 99.374C123.946 100.011 123.842 100.688 123.873 101.365C123.904 102.042 124.07 102.707 124.362 103.319C124.653 103.932 125.064 104.481 125.57 104.933L150.198 127.077C151.641 128.366 153.532 129.04 155.467 128.953C157.401 128.867 159.225 128.028 160.548 126.616C160.662 126.491 160.662 126.491 160.772 126.363L195.922 84.7618C196.362 84.2436 196.693 83.643 196.897 82.9954C197.101 82.3478 197.173 81.666 197.11 80.99C197.047 80.3141 196.849 79.6575 196.529 79.0588C196.208 78.46 195.771 77.9311 195.243 77.503C194.171 76.6306 192.8 76.2118 191.422 76.3365C190.045 76.4612 188.771 77.1194 187.873 78.1701L154.829 117.287L132.628 97.3274Z" fill="#FADBDB" stroke="url(#paint3_linear)" stroke-width="2.5" stroke-miterlimit="10"/>
<path d="M113.049 66.907C111.723 69.1359 110.571 71.4639 109.605 73.8702" stroke="url(#paint4_linear)" stroke-width="2.5" stroke-miterlimit="10" stroke-linecap="round"/>
<path d="M139.952 43.1589C130.705 47.4519 122.623 53.8952 116.386 61.9484" stroke="url(#paint5_linear)" stroke-width="2.5" stroke-miterlimit="10" stroke-linecap="round"/>
<path d="M237.265 14.8856V23.6617" stroke="url(#paint6_linear)" stroke-width="2.5" stroke-miterlimit="10" stroke-linecap="round" stroke-linejoin="round"/>
<path d="M237.265 35.3615V44.1375" stroke="url(#paint7_linear)" stroke-width="2.5" stroke-miterlimit="10" stroke-linecap="round" stroke-linejoin="round"/>
<path d="M222.611 29.5108H231.404" stroke="url(#paint8_linear)" stroke-width="2.5" stroke-miterlimit="10" stroke-linecap="round" stroke-linejoin="round"/>
<path d="M243.126 29.5108H251.919" stroke="url(#paint9_linear)" stroke-width="2.5" stroke-miterlimit="10" stroke-linecap="round" stroke-linejoin="round"/>
<path d="M115.642 165.527V171.378" stroke="url(#paint10_linear)" stroke-width="2.5" stroke-miterlimit="10" stroke-linecap="round" stroke-linejoin="round"/>
<path d="M115.642 183.078V188.928" stroke="url(#paint11_linear)" stroke-width="2.5" stroke-miterlimit="10" stroke-linecap="round" stroke-linejoin="round"/>
<path d="M103.919 177.227H109.781" stroke="url(#paint12_linear)" stroke-width="2.5" stroke-miterlimit="10" stroke-linecap="round" stroke-linejoin="round"/>
<path d="M121.503 177.227H127.365" stroke="url(#paint13_linear)" stroke-width="2.5" stroke-miterlimit="10" stroke-linecap="round" stroke-linejoin="round"/>
<defs>
<linearGradient id="paint0_linear" x1="175.735" y1="59.7804" x2="82.4757" y2="77.0726" gradientUnits="userSpaceOnUse">
<stop stop-color="#FA2B56"/>
<stop offset="1" stop-color="#F91C3D"/>
</linearGradient>
<linearGradient id="paint1_linear" x1="176.207" y1="58.5418" x2="80.0552" y2="76.3705" gradientUnits="userSpaceOnUse">
<stop stop-color="#FA2B56"/>
<stop offset="1" stop-color="#F91C3D"/>
</linearGradient>
<linearGradient id="paint2_linear" x1="176.207" y1="58.5418" x2="80.0552" y2="76.3705" gradientUnits="userSpaceOnUse">
<stop stop-color="#FA2B56"/>
<stop offset="1" stop-color="#F91C3D"/>
</linearGradient>
<linearGradient id="paint3_linear" x1="168.353" y1="87.8181" x2="121.719" y2="99.8286" gradientUnits="userSpaceOnUse">
<stop stop-color="#FA2B56"/>
<stop offset="1" stop-color="#F91C3D"/>
</linearGradient>
<linearGradient id="paint4_linear" x1="111.696" y1="68.4285" x2="109.378" y2="68.6407" gradientUnits="userSpaceOnUse">
<stop stop-color="#FA2B56"/>
<stop offset="1" stop-color="#F91C3D"/>
</linearGradient>
<linearGradient id="paint5_linear" x1="130.695" y1="47.2644" x2="115.517" y2="50.7872" gradientUnits="userSpaceOnUse">
<stop stop-color="#FA2B56"/>
<stop offset="1" stop-color="#F91C3D"/>
</linearGradient>
<linearGradient id="paint6_linear" x1="237.872" y1="16.8032" x2="237.193" y2="16.8175" gradientUnits="userSpaceOnUse">
<stop stop-color="#FA2B56"/>
<stop offset="1" stop-color="#F91C3D"/>
</linearGradient>
<linearGradient id="paint7_linear" x1="237.872" y1="37.279" x2="237.193" y2="37.2933" gradientUnits="userSpaceOnUse">
<stop stop-color="#FA2B56"/>
<stop offset="1" stop-color="#F91C3D"/>
</linearGradient>
<linearGradient id="paint8_linear" x1="224.533" y1="28.9036" x2="224.547" y2="29.582" gradientUnits="userSpaceOnUse">
<stop stop-color="#FA2B56"/>
<stop offset="1" stop-color="#F91C3D"/>
</linearGradient>
<linearGradient id="paint9_linear" x1="245.048" y1="28.9036" x2="245.062" y2="29.582" gradientUnits="userSpaceOnUse">
<stop stop-color="#FA2B56"/>
<stop offset="1" stop-color="#F91C3D"/>
</linearGradient>
<linearGradient id="paint10_linear" x1="116.249" y1="166.806" x2="115.571" y2="166.827" gradientUnits="userSpaceOnUse">
<stop stop-color="#FA2B56"/>
<stop offset="1" stop-color="#F91C3D"/>
</linearGradient>
<linearGradient id="paint11_linear" x1="116.249" y1="184.356" x2="115.571" y2="184.378" gradientUnits="userSpaceOnUse">
<stop stop-color="#FA2B56"/>
<stop offset="1" stop-color="#F91C3D"/>
</linearGradient>
<linearGradient id="paint12_linear" x1="105.2" y1="176.62" x2="105.222" y2="177.298" gradientUnits="userSpaceOnUse">
<stop stop-color="#FA2B56"/>
<stop offset="1" stop-color="#F91C3D"/>
</linearGradient>
<linearGradient id="paint13_linear" x1="122.784" y1="176.62" x2="122.806" y2="177.298" gradientUnits="userSpaceOnUse">
<stop stop-color="#FA2B56"/>
<stop offset="1" stop-color="#F91C3D"/>
</linearGradient>
</defs>
</svg>
