<svg width="68" height="68" viewBox="0 0 68 68" fill="none" xmlns="http://www.w3.org/2000/svg">
<path d="M56.6666 29.7498C56.1963 29.7498 55.7245 29.7867 55.25 29.8618V14.1665C55.25 13.3845 54.6167 12.7498 53.8333 12.7498H38.138C38.2131 12.2753 38.25 11.8035 38.25 11.3332C38.25 5.86484 33.8002 1.4165 28.3333 1.4165C22.8664 1.4165 18.4166 5.86484 18.4166 11.3332C18.4166 11.8035 18.4535 12.2753 18.5285 12.7498H2.83329C2.04988 12.7498 1.41663 13.3845 1.41663 14.1665V31.1665C1.41663 31.9485 2.04988 32.5832 2.83329 32.5832C6.73904 32.5832 9.91663 35.7608 9.91663 39.6665C9.91663 43.5723 6.73904 46.7498 2.83329 46.7498C2.04988 46.7498 1.41663 47.3845 1.41663 48.1665V65.1665C1.41663 65.9485 2.04988 66.5832 2.83329 66.5832H19.8333C20.6167 66.5832 21.25 65.9485 21.25 65.1665C21.25 61.2608 24.4275 58.0832 28.3333 58.0832C32.239 58.0832 35.4166 61.2608 35.4166 65.1665C35.4166 65.9485 36.0499 66.5832 36.8333 66.5832H53.8333C54.6167 66.5832 55.25 65.9485 55.25 65.1665V49.4713C55.7245 49.5463 56.1963 49.5832 56.6666 49.5832C62.1335 49.5832 66.5833 45.1348 66.5833 39.6665C66.5833 34.1982 62.1335 29.7498 56.6666 29.7498Z" fill="white"/>
</svg>
