<svg width="50" height="51" viewBox="0 0 50 51" fill="none" xmlns="http://www.w3.org/2000/svg">
<rect y="0.737305" width="50" height="50.003" rx="25" fill="#222127"/>
<path d="M30.4603 19.2949C29.7705 19.2949 29.2532 19.8037 29.2532 20.4821C29.2532 21.1604 29.7705 21.6692 30.4603 21.6692C31.15 21.6692 31.6674 21.1604 31.6674 20.4821C31.6674 19.8037 31.0926 19.2949 30.4603 19.2949Z" fill="white"/>
<path d="M25.1144 20.7646C22.3554 20.7646 20.0562 22.9694 20.0562 25.7394C20.0562 28.4529 22.2979 30.7141 25.1144 30.7141C27.8735 30.7141 30.1727 28.5094 30.1727 25.7394C30.1727 23.0259 27.8735 20.7646 25.1144 20.7646ZM25.1144 28.9051C23.3325 28.9051 21.8955 27.4918 21.8955 25.7394C21.8955 23.9869 23.3325 22.5736 25.1144 22.5736C26.8963 22.5736 28.3333 23.9869 28.3333 25.7394C28.3333 27.4918 26.8963 28.9051 25.1144 28.9051Z" fill="white"/>
<path d="M29.1382 35.8018H20.9185C17.5271 35.8018 14.7681 33.0883 14.7681 29.753V21.7256C14.7681 18.3902 17.5271 15.6768 20.9185 15.6768H29.0807C32.4721 15.6768 35.2311 18.3902 35.2311 21.7256V29.753C35.2886 33.0883 32.5296 35.8018 29.1382 35.8018ZM20.9185 17.5423C18.5618 17.5423 16.7224 19.4078 16.7224 21.669V29.753C16.7224 32.0708 18.6193 33.8798 20.9185 33.8798H29.0807C31.4374 33.8798 33.2768 32.0142 33.2768 29.753V21.7256C33.2768 19.4078 31.3799 17.5988 29.0807 17.5988H20.9185V17.5423Z" fill="white"/>
</svg>
