<svg width="50" height="51" viewBox="0 0 50 51" fill="none" xmlns="http://www.w3.org/2000/svg">
<path d="M50 25C50 11.1929 38.8071 0 25 0C11.1929 0 0 11.1929 0 25V25.003C0 38.8101 11.1929 50.003 25 50.003C38.8071 50.003 50 38.8101 50 25.003V25Z" fill="#222127"/>
<path d="M14.3352 34.3535H19.0961V18.0466H14.3352V34.3535Z" fill="white"/>
<path d="M14 12.9196C14 14.5574 15.207 15.8391 16.7493 15.8391C18.2915 15.8391 19.4985 14.4862 19.4985 12.9196C19.4985 11.2818 18.2915 10 16.7493 10C15.207 10 14 11.2818 14 12.9196Z" fill="white"/>
<path d="M32.2392 34.3535H36.933V25.3812C36.933 20.9662 36.0613 17.6194 31.2333 17.6194C28.9535 17.6194 27.3441 18.9723 26.7406 20.2541H26.6736V18.0466H22.1138V34.3535H26.8747V26.3069C26.8747 24.1706 27.2771 22.1055 29.7581 22.1055C32.2392 22.1055 32.2392 24.5267 32.2392 26.4493V34.3535Z" fill="white"/>
</svg>
