<svg width="27" height="27" viewBox="0 0 27 27" fill="none" xmlns="http://www.w3.org/2000/svg">
<path d="M23.625 2.8125H3.375C3.00566 2.8125 2.63993 2.88525 2.2987 3.02659C1.95747 3.16793 1.64743 3.3751 1.38626 3.63626C0.858816 4.16371 0.5625 4.87908 0.5625 5.625V7.875C0.562481 7.97605 0.589687 8.07525 0.641256 8.16215C0.692826 8.24906 0.766855 8.32047 0.855563 8.36887L13.2306 15.1189C13.3132 15.164 13.4059 15.1876 13.5 15.1876C13.5941 15.1876 13.6868 15.164 13.7694 15.1189L26.1444 8.36887C26.2331 8.32047 26.3072 8.24906 26.3587 8.16215C26.4103 8.07525 26.4375 7.97605 26.4375 7.875V5.625C26.4375 4.87908 26.1412 4.16371 25.6137 3.63626C25.0863 3.10882 24.3709 2.8125 23.625 2.8125Z" fill="#FA2A55"/>
<path d="M14.3083 16.1067C14.0607 16.2416 13.7831 16.3123 13.5011 16.3123C13.2191 16.3123 12.9416 16.2416 12.6939 16.1067L0.575438 9.49792L0.5625 9.50636V21.3751C0.5625 22.121 0.858816 22.8364 1.38626 23.3639C1.91371 23.8913 2.62908 24.1876 3.375 24.1876H23.625C24.3709 24.1876 25.0863 23.8913 25.6137 23.3639C26.1412 22.8364 26.4375 22.121 26.4375 21.3751V9.50636L26.4246 9.49849L14.3083 16.1067Z" fill="#FA2A55"/>
</svg>
