<svg width="27" height="27" viewBox="0 0 27 27" fill="none" xmlns="http://www.w3.org/2000/svg">
<path d="M17.649 16.4109L15.6319 18.9326C12.5077 17.0967 9.90409 14.4933 8.06795 11.3692L10.5891 9.35206C10.8847 9.1156 11.0936 8.78783 11.1832 8.42002C11.2728 8.05221 11.2379 7.66508 11.0841 7.31918L8.7857 2.14418C8.62081 1.77292 8.32941 1.4723 7.96347 1.29593C7.59753 1.11955 7.18084 1.07888 6.7877 1.18118L2.41314 2.31518C2.00484 2.42168 1.64981 2.67431 1.41539 3.02517C1.18096 3.37602 1.08345 3.80071 1.14133 4.21868C1.90946 9.6863 4.43655 14.7553 8.34065 18.6595C12.2448 22.5637 17.3137 25.0909 22.7813 25.8592C23.1992 25.9169 23.6239 25.8194 23.9747 25.585C24.3255 25.3506 24.5782 24.9956 24.6848 24.5874L25.8188 20.2117C25.9207 19.8186 25.8798 19.4022 25.7035 19.0364C25.5272 18.6706 25.2268 18.3793 24.8558 18.2142L19.6819 15.9187C19.3363 15.7647 18.9494 15.7296 18.5816 15.8186C18.2139 15.9076 17.886 16.1159 17.649 16.4109Z" fill="#FA2A55"/>
</svg>
