<svg width="27" height="28" viewBox="0 0 27 28" fill="none" xmlns="http://www.w3.org/2000/svg">
<path d="M13.5 0.583374C8.79979 0.583374 3.93754 4.29279 3.93754 10.5C3.93754 17.083 12.7277 26.2745 13.1024 26.6625C13.2075 26.7721 13.351 26.8334 13.5 26.8334C13.6491 26.8334 13.7925 26.7721 13.8977 26.6625C14.2724 26.2745 23.0625 17.083 23.0625 10.5C23.0625 4.29279 18.2003 0.583374 13.5 0.583374ZM13.5 14C11.6387 14 10.125 12.4303 10.125 10.5C10.125 8.56979 11.6387 7.00004 13.5 7.00004C15.3614 7.00004 16.875 8.56979 16.875 10.5C16.875 12.4303 15.3614 14 13.5 14Z" fill="#FA2A55"/>
</svg>
