<svg width="51" height="51" viewBox="0 0 51 51" fill="none" xmlns="http://www.w3.org/2000/svg">
<rect x="0.5" y="0.737305" width="50" height="50.003" rx="25" fill="#222127"/>
<path d="M38.776 18.0596C37.8654 18.4631 36.8872 18.7358 35.8588 18.859C36.9079 18.2308 37.7127 17.2341 38.0923 16.0475C37.1108 16.6299 36.0235 17.053 34.8664 17.2799C33.9394 16.294 32.6199 15.6768 31.1585 15.6768C28.3536 15.6768 26.0787 17.9517 26.0787 20.7587C26.0787 21.1557 26.1245 21.5418 26.2096 21.9147C21.9859 21.7021 18.2442 19.6791 15.7381 16.6059C15.3019 17.3584 15.051 18.2308 15.051 19.16C15.051 20.9223 15.9486 22.4785 17.3107 23.3892C16.4775 23.3619 15.6945 23.134 15.0096 22.7534V22.8188C15.0096 25.2802 16.7599 27.3337 19.085 27.8004C18.6575 27.916 18.2093 27.9771 17.7469 27.9771C17.4197 27.9771 17.1002 27.9466 16.7905 27.8877C17.4372 29.9052 19.3129 31.3753 21.5366 31.4145C19.7971 32.7777 17.6062 33.5902 15.2266 33.5902C14.8166 33.5902 14.412 33.5662 14.0139 33.5193C16.2626 34.9621 18.9323 35.8018 21.8005 35.8018C31.1465 35.8018 36.2558 28.0611 36.2558 21.3476C36.2558 21.1295 36.2503 20.9092 36.2405 20.6911C37.2329 19.9735 38.0944 19.0804 38.7739 18.0629L38.776 18.0596Z" fill="white"/>
</svg>
