<svg width="51" height="51" viewBox="0 0 51 51" fill="none" xmlns="http://www.w3.org/2000/svg">
<rect x="0.5" y="0.737305" width="50" height="50.003" rx="25" fill="#222127"/>
<path d="M35.8755 23.0538C35.8755 20.5665 33.8062 18.5879 31.3345 18.5879H19.666C17.1368 18.5879 15.125 20.623 15.125 23.0538V28.4243C15.125 30.9117 17.1943 32.8902 19.666 32.8902H31.3345C33.8637 32.8902 35.8755 30.8551 35.8755 28.4243V23.0538ZM29.0353 26.1065L23.8046 28.6504C23.5746 28.7635 22.8849 28.5939 22.8849 28.3678V23.1104C22.8849 22.8842 23.5746 22.7147 23.8046 22.8277L28.8054 25.4847C28.9778 25.7108 29.2077 25.9935 29.0353 26.1065Z" fill="white"/>
</svg>
