<svg width="68" height="68" viewBox="0 0 68 68" fill="none" xmlns="http://www.w3.org/2000/svg">
<g clip-path="url(#clip0)">
<path d="M11.5 42.5001C12.282 42.5001 12.9166 41.8668 12.9166 41.0834V34.0001H34.1666V41.0834C34.1666 41.8668 34.8013 42.5001 35.5833 42.5001C36.3653 42.5001 37 41.8668 37 41.0834V34.0001H58.25V41.0834C58.25 41.8668 58.8846 42.5001 59.6666 42.5001C60.4486 42.5001 61.0833 41.8668 61.0833 41.0834V32.5834C61.0833 31.8 60.4486 31.1667 59.6666 31.1667H37V24.0834C37 23.3 36.3653 22.6667 35.5833 22.6667C34.8013 22.6667 34.1666 23.3 34.1666 24.0834V31.1667H11.5C10.718 31.1667 10.0833 31.8 10.0833 32.5834V41.0834C10.0833 41.8668 10.718 42.5001 11.5 42.5001Z" fill="white"/>
<path d="M35.5833 17C40.2777 17 44.0833 13.1944 44.0833 8.5C44.0833 3.80558 40.2777 0 35.5833 0C30.8889 0 27.0833 3.80558 27.0833 8.5C27.0833 13.1944 30.8889 17 35.5833 17Z" fill="white"/>
<path d="M11.5 65.1667C16.1944 65.1667 20 61.3612 20 56.6667C20 51.9723 16.1944 48.1667 11.5 48.1667C6.80558 48.1667 3 51.9723 3 56.6667C3 61.3612 6.80558 65.1667 11.5 65.1667Z" fill="white"/>
<path d="M35.5833 65.1667C40.2777 65.1667 44.0833 61.3612 44.0833 56.6667C44.0833 51.9723 40.2777 48.1667 35.5833 48.1667C30.8889 48.1667 27.0833 51.9723 27.0833 56.6667C27.0833 61.3612 30.8889 65.1667 35.5833 65.1667Z" fill="white"/>
<path d="M59.6667 65.1667C64.3611 65.1667 68.1667 61.3612 68.1667 56.6667C68.1667 51.9723 64.3611 48.1667 59.6667 48.1667C54.9723 48.1667 51.1667 51.9723 51.1667 56.6667C51.1667 61.3612 54.9723 65.1667 59.6667 65.1667Z" fill="white"/>
</g>
<defs>
<clipPath id="clip0">
<rect width="68" height="68" fill="white"/>
</clipPath>
</defs>
</svg>
